PotroSansBangla-Regular.ufo
<glyph name="exclam" format="2">
  <advance width="578"/>
  <unicode hex="0021"/>
  <outline>
    <contour>
      <point x="356" y="350" type="line"/>
      <point x="221" y="350" type="line"/>
      <point x="221" y="1328" type="line"/>
      <point x="356" y="1328" type="line"/>
    </contour>
    <contour>
      <point x="289" y="-10" type="qcurve"/>
      <point x="248" y="-10"/>
      <point x="194" y="43"/>
      <point x="194" y="83" type="qcurve"/>
      <point x="194" y="123"/>
      <point x="248" y="177"/>
      <point x="289" y="177" type="qcurve"/>
      <point x="329" y="177"/>
      <point x="383" y="122"/>
      <point x="383" y="83" type="qcurve"/>
      <point x="383" y="43"/>
      <point x="329" y="-10"/>
    </contour>
  </outline>
</glyph>
<glyph name="quotedbl" format="2">
  <advance width="723"/>
  <unicode hex="0022"/>
  <outline>
    <contour>
      <point x="276" y="1105" type="line"/>
      <point x="161" y="1105" type="line"/>
      <point x="161" y="1548" type="line"/>
      <point x="276" y="1548" type="line"/>
    </contour>
    <contour>
      <point x="506" y="1105" type="line"/>
      <point x="391" y="1105" type="line"/>
      <point x="391" y="1548" type="line"/>
      <point x="506" y="1548" type="line"/>
    </contour>
  </outline>
</glyph>
<glyph name="numbersign" format="2">
  <advance width="1697"/>
  <unicode hex="0023"/>
  <outline>
    <contour>
      <point x="513" y="1" type="line"/>
      <point x="379" y="1" type="line"/>
      <point x="486" y="400" type="line"/>
      <point x="111" y="400" type="line"/>
      <point x="145" y="530" type="line"/>
      <point x="521" y="530" type="line"/>
      <point x="599" y="826" type="line"/>
      <point x="224" y="826" type="line"/>
      <point x="259" y="956" type="line"/>
      <point x="635" y="956" type="line"/>
      <point x="734" y="1328" type="line"/>
      <point x="869" y="1328" type="line"/>
      <point x="769" y="956" type="line"/>
      <point x="1077" y="956" type="line"/>
      <point x="1176" y="1328" type="line"/>
      <point x="1311" y="1328" type="line"/>
      <point x="1211" y="956" type="line"/>
      <point x="1586" y="956" type="line"/>
      <point x="1551" y="826" type="line"/>
      <point x="1177" y="826" type="line"/>
      <point x="1097" y="530" type="line"/>
      <point x="1472" y="530" type="line"/>
      <point x="1436" y="400" type="line"/>
      <point x="1063" y="400" type="line"/>
      <point x="956" y="1" type="line"/>
      <point x="821" y="1" type="line"/>
      <point x="927" y="400" type="line"/>
      <point x="620" y="400" type="line"/>
    </contour>
    <contour>
      <point x="734" y="826" type="line"/>
      <point x="655" y="530" type="line"/>
      <point x="963" y="530" type="line"/>
      <point x="1041" y="826" type="line"/>
    </contour>
  </outline>
</glyph>
<glyph name="dollar" format="2">
  <advance width="1085"/>
  <unicode hex="0024"/>
  <outline>
    <contour>
      <point x="1024" y="361" type="qcurve"/>
      <point x="1024" y="253"/>
      <point x="923" y="83"/>
      <point x="738" y="-17"/>
      <point x="615" y="-26" type="qcurve"/>
      <point x="615" y="-182" type="line"/>
      <point x="479" y="-182" type="line"/>
      <point x="479" y="-23" type="line"/>
      <point x="370" y="-8"/>
      <point x="194" y="91"/>
      <point x="81" y="252"/>
      <point x="62" y="355" type="qcurve"/>
      <point x="194" y="378" type="line"/>
      <point x="214" y="293"/>
      <point x="318" y="168"/>
      <point x="473" y="103"/>
      <point x="569" y="103" type="qcurve"/>
      <point x="664" y="103"/>
      <point x="811" y="167"/>
      <point x="892" y="282"/>
      <point x="892" y="357" type="qcurve"/>
      <point x="892" y="441"/>
      <point x="792" y="544"/>
      <point x="674" y="580" type="qcurve"/>
      <point x="379" y="671" type="line"/>
      <point x="248" y="713"/>
      <point x="112" y="874"/>
      <point x="112" y="989" type="qcurve"/>
      <point x="112" y="1087"/>
      <point x="202" y="1244"/>
      <point x="369" y="1341"/>
      <point x="479" y="1351" type="qcurve"/>
      <point x="479" y="1510" type="line"/>
      <point x="615" y="1510" type="line"/>
      <point x="615" y="1349" type="line"/>
      <point x="776" y="1329"/>
      <point x="989" y="1127"/>
      <point x="1017" y="967" type="qcurve"/>
      <point x="882" y="941" type="line"/>
      <point x="869" y="1025"/>
      <point x="775" y="1154"/>
      <point x="627" y="1225"/>
      <point x="538" y="1225" type="qcurve"/>
      <point x="455" y="1225"/>
      <point x="322" y="1166"/>
      <point x="247" y="1060"/>
      <point x="247" y="995" type="qcurve"/>
      <point x="247" y="920"/>
      <point x="353" y="818"/>
      <point x="468" y="783" type="qcurve"/>
      <point x="722" y="707" type="line"/>
      <point x="830" y="675"/>
      <point x="962" y="582"/>
      <point x="1024" y="452"/>
    </contour>
  </outline>
</glyph>
<glyph name="percent" format="2">
  <advance width="1661"/>
  <unicode hex="0025"/>
  <outline>
    <contour>
      <point x="443" y="691" type="qcurve"/>
      <point x="352" y="691"/>
      <point x="200" y="779"/>
      <point x="111" y="932"/>
      <point x="111" y="1023" type="qcurve"/>
      <point x="111" y="1112"/>
      <point x="202" y="1265"/>
      <point x="355" y="1355"/>
      <point x="443" y="1355" type="qcurve"/>
      <point x="533" y="1355"/>
      <point x="685" y="1266"/>
      <point x="774" y="1113"/>
      <point x="774" y="1023" type="qcurve"/>
      <point x="774" y="932"/>
      <point x="685" y="779"/>
      <point x="533" y="691"/>
    </contour>
    <contour>
      <point x="1496" y="1236" type="line"/>
      <point x="258" y="0" type="line"/>
      <point x="166" y="92" type="line"/>
      <point x="1404" y="1328" type="line"/>
    </contour>
    <contour>
      <point x="443" y="814" type="qcurve"/>
      <point x="498" y="814"/>
      <point x="594" y="871"/>
      <point x="652" y="968"/>
      <point x="652" y="1023" type="qcurve"/>
      <point x="652" y="1078"/>
      <point x="594" y="1175"/>
      <point x="498" y="1232"/>
      <point x="443" y="1232" type="qcurve"/>
      <point x="387" y="1232"/>
      <point x="291" y="1175"/>
      <point x="233" y="1078"/>
      <point x="233" y="1023" type="qcurve"/>
      <point x="233" y="968"/>
      <point x="291" y="871"/>
      <point x="387" y="814"/>
    </contour>
    <contour>
      <point x="1220" y="-28" type="qcurve"/>
      <point x="1129" y="-28"/>
      <point x="977" y="61"/>
      <point x="887" y="214"/>
      <point x="887" y="304" type="qcurve"/>
      <point x="887" y="392"/>
      <point x="978" y="545"/>
      <point x="1131" y="636"/>
      <point x="1220" y="636" type="qcurve"/>
      <point x="1310" y="636"/>
      <point x="1462" y="547"/>
      <point x="1551" y="394"/>
      <point x="1551" y="304" type="qcurve"/>
      <point x="1551" y="214"/>
      <point x="1462" y="61"/>
      <point x="1310" y="-28"/>
    </contour>
    <contour>
      <point x="1220" y="95" type="qcurve"/>
      <point x="1274" y="95"/>
      <point x="1372" y="152"/>
      <point x="1428" y="248"/>
      <point x="1428" y="304" type="qcurve"/>
      <point x="1428" y="359"/>
      <point x="1372" y="456"/>
      <point x="1274" y="513"/>
      <point x="1220" y="513" type="qcurve"/>
      <point x="1163" y="513"/>
      <point x="1067" y="456"/>
      <point x="1009" y="359"/>
      <point x="1009" y="304" type="qcurve"/>
      <point x="1009" y="248"/>
      <point x="1067" y="152"/>
      <point x="1163" y="95"/>
    </contour>
  </outline>
</glyph>
<glyph name="ampersand" format="2">
  <advance width="1201"/>
  <unicode hex="0026"/>
  <outline>
    <contour>
      <point x="555" y="-28" type="qcurve"/>
      <point x="441" y="-28"/>
      <point x="255" y="38"/>
      <point x="193" y="104" type="qcurve"/>
      <point x="98" y="205"/>
      <point x="92" y="363" type="qcurve"/>
      <point x="92" y="366"/>
      <point x="92" y="369" type="qcurve"/>
      <point x="92" y="439"/>
      <point x="135" y="572"/>
      <point x="179" y="625" type="qcurve"/>
      <point x="226" y="683"/>
      <point x="309" y="718" type="qcurve"/>
      <point x="258" y="770"/>
      <point x="198" y="852"/>
      <point x="167" y="944"/>
      <point x="167" y="1002" type="qcurve"/>
      <point x="167" y="1105"/>
      <point x="272" y="1274"/>
      <point x="363" y="1315" type="qcurve"/>
      <point x="451" y="1354"/>
      <point x="558" y="1354" type="qcurve"/>
      <point x="636" y="1354"/>
      <point x="777" y="1310"/>
      <point x="827" y="1268" type="qcurve"/>
      <point x="860" y="1241"/>
      <point x="913" y="1169"/>
      <point x="927" y="1129" type="qcurve"/>
      <point x="797" y="1090" type="line"/>
      <point x="776" y="1141"/>
      <point x="732" y="1175" type="qcurve"/>
      <point x="698" y="1200"/>
      <point x="609" y="1224"/>
      <point x="560" y="1224" type="qcurve"/>
      <point x="482" y="1224"/>
      <point x="418" y="1193" type="qcurve"/>
      <point x="362" y="1166"/>
      <point x="307" y="1069"/>
      <point x="307" y="1003" type="qcurve"/>
      <point x="307" y="950"/>
      <point x="340" y="878"/>
      <point x="379" y="832" type="qcurve"/>
      <point x="405" y="803"/>
      <point x="474" y="740" type="qcurve"/>
      <point x="895" y="350" type="line"/>
      <point x="900" y="391"/>
      <point x="900" y="449" type="qcurve"/>
      <point x="899" y="644" type="line"/>
      <point x="1028" y="644" type="line"/>
      <point x="1028" y="439" type="line"/>
      <point x="1028" y="311"/>
      <point x="1007" y="244" type="qcurve"/>
      <point x="1179" y="86" type="line"/>
      <point x="1089" y="-8" type="line"/>
      <point x="943" y="130" type="line"/>
      <point x="913" y="91"/>
      <point x="821" y="28"/>
      <point x="773" y="10" type="qcurve"/>
      <point x="687" y="-28"/>
    </contour>
    <contour>
      <point x="558" y="104" type="qcurve"/>
      <point x="615" y="104"/>
      <point x="698" y="117"/>
      <point x="734" y="137" type="qcurve"/>
      <point x="776" y="158"/>
      <point x="822" y="199"/>
      <point x="845" y="225" type="qcurve"/>
      <point x="414" y="619" type="line"/>
      <point x="332" y="594"/>
      <point x="284" y="537" type="qcurve"/>
      <point x="258" y="505"/>
      <point x="231" y="421"/>
      <point x="231" y="374" type="qcurve"/>
      <point x="231" y="321"/>
      <point x="263" y="233"/>
      <point x="294" y="200" type="qcurve"/>
      <point x="335" y="151"/>
      <point x="477" y="104"/>
    </contour>
  </outline>
</glyph>
<glyph name="quotesingle" format="2">
  <advance width="393"/>
  <unicode hex="0027"/>
  <outline>
    <contour>
      <point x="276" y="1105" type="line"/>
      <point x="161" y="1105" type="line"/>
      <point x="161" y="1548" type="line"/>
      <point x="276" y="1548" type="line"/>
    </contour>
  </outline>
</glyph>
<glyph name="parenleft" format="2">
  <advance width="785"/>
  <unicode hex="0028"/>
  <outline>
    <contour>
      <point x="606" y="-331" type="line"/>
      <point x="498" y="-206"/>
      <point x="340" y="102"/>
      <point x="258" y="435"/>
      <point x="258" y="600" type="qcurve"/>
      <point x="258" y="604"/>
      <point x="258" y="608" type="qcurve"/>
      <point x="258" y="612"/>
      <point x="258" y="616" type="qcurve"/>
      <point x="258" y="781"/>
      <point x="340" y="1115"/>
      <point x="498" y="1423"/>
      <point x="606" y="1547" type="qcurve"/>
      <point x="705" y="1470" type="line"/>
      <point x="545" y="1280"/>
      <point x="383" y="842"/>
      <point x="383" y="608" type="qcurve"/>
      <point x="383" y="377"/>
      <point x="548" y="-69"/>
      <point x="705" y="-252" type="qcurve"/>
    </contour>
  </outline>
</glyph>
<glyph name="parenright" format="2">
  <advance width="785"/>
  <unicode hex="0029"/>
  <outline>
    <contour>
      <point x="80" y="-252" type="line"/>
      <point x="237" y="-69"/>
      <point x="401" y="377"/>
      <point x="402" y="608" type="qcurve"/>
      <point x="401" y="842"/>
      <point x="239" y="1280"/>
      <point x="80" y="1470" type="qcurve"/>
      <point x="180" y="1547" type="line"/>
      <point x="287" y="1423"/>
      <point x="446" y="1115"/>
      <point x="527" y="781"/>
      <point x="527" y="616" type="qcurve"/>
      <point x="527" y="612"/>
      <point x="527" y="608" type="qcurve"/>
      <point x="527" y="604"/>
      <point x="527" y="600" type="qcurve"/>
      <point x="527" y="435"/>
      <point x="446" y="102"/>
      <point x="287" y="-206"/>
      <point x="180" y="-331" type="qcurve"/>
    </contour>
  </outline>
</glyph>
<glyph name="asterisk" format="2">
  <advance width="805"/>
  <unicode hex="002A"/>
  <outline>
    <contour>
      <point x="375" y="914" type="line"/>
      <point x="239" y="718" type="line"/>
      <point x="138" y="792" type="line"/>
      <point x="283" y="980" type="line"/>
      <point x="55" y="1049" type="line"/>
      <point x="94" y="1167" type="line"/>
      <point x="318" y="1088" type="line"/>
      <point x="312" y="1328" type="line"/>
      <point x="437" y="1328" type="line"/>
      <point x="432" y="1088" type="line"/>
      <point x="655" y="1167" type="line"/>
      <point x="694" y="1049" type="line"/>
      <point x="467" y="980" type="line"/>
      <point x="611" y="792" type="line"/>
      <point x="509" y="718" type="line"/>
    </contour>
  </outline>
</glyph>
<glyph name="plus" format="2">
  <advance width="1063"/>
  <unicode hex="002B"/>
  <outline>
    <contour>
      <point x="590" y="242" type="line"/>
      <point x="473" y="242" type="line"/>
      <point x="473" y="606" type="line"/>
      <point x="111" y="606" type="line"/>
      <point x="111" y="722" type="line"/>
      <point x="473" y="722" type="line"/>
      <point x="473" y="1085" type="line"/>
      <point x="590" y="1085" type="line"/>
      <point x="590" y="722" type="line"/>
      <point x="952" y="722" type="line"/>
      <point x="952" y="606" type="line"/>
      <point x="590" y="606" type="line"/>
    </contour>
  </outline>
</glyph>
<glyph name="comma" format="2">
  <advance width="490"/>
  <unicode hex="002C"/>
  <outline>
    <contour>
      <point x="-8" y="-227" type="qcurve"/>
      <point x="-50" y="-130" type="line"/>
      <point x="-7" y="-112"/>
      <point x="54" y="-61"/>
      <point x="91" y="-6"/>
      <point x="105" y="50"/>
      <point x="100" y="73" type="qcurve"/>
      <point x="98" y="84"/>
      <point x="78" y="126"/>
      <point x="50" y="149" type="qcurve"/>
      <point x="117" y="230" type="line"/>
      <point x="161" y="194"/>
      <point x="199" y="120"/>
      <point x="204" y="94" type="qcurve"/>
      <point x="213" y="48"/>
      <point x="191" y="-46"/>
      <point x="134" y="-132"/>
      <point x="47" y="-203"/>
    </contour>
  </outline>
</glyph>
<glyph name="period" format="2">
  <advance width="467"/>
  <unicode hex="002E"/>
  <outline>
    <contour>
      <point x="233" y="-10" type="qcurve"/>
      <point x="194" y="-10"/>
      <point x="140" y="43"/>
      <point x="140" y="83" type="qcurve"/>
      <point x="140" y="123"/>
      <point x="194" y="177"/>
      <point x="233" y="177" type="qcurve"/>
      <point x="274" y="177"/>
      <point x="329" y="122"/>
      <point x="329" y="83" type="qcurve"/>
      <point x="329" y="43"/>
      <point x="274" y="-10"/>
    </contour>
  </outline>
</glyph>
<glyph name="slash" format="2">
  <advance width="715"/>
  <unicode hex="002F"/>
  <outline>
    <contour>
      <point x="111" y="0" type="line"/>
      <point x="464" y="1328" type="line"/>
      <point x="604" y="1328" type="line"/>
      <point x="250" y="0" type="line"/>
    </contour>
  </outline>
</glyph>
<glyph name="zero" format="2">
  <advance width="1124"/>
  <unicode hex="0030"/>
  <outline>
    <contour>
      <point x="563" y="-28" type="qcurve"/>
      <point x="440" y="-28"/>
      <point x="242" y="86"/>
      <point x="129" y="284"/>
      <point x="129" y="406" type="qcurve"/>
      <point x="129" y="922" type="line"/>
      <point x="129" y="1043"/>
      <point x="242" y="1241"/>
      <point x="440" y="1355"/>
      <point x="563" y="1355" type="qcurve"/>
      <point x="684" y="1355"/>
      <point x="882" y="1241"/>
      <point x="995" y="1043"/>
      <point x="995" y="922" type="qcurve"/>
      <point x="995" y="406" type="line"/>
      <point x="995" y="284"/>
      <point x="882" y="86"/>
      <point x="684" y="-28"/>
    </contour>
    <contour>
      <point x="563" y="104" type="qcurve"/>
      <point x="643" y="104"/>
      <point x="779" y="183"/>
      <point x="858" y="319"/>
      <point x="858" y="399" type="qcurve"/>
      <point x="858" y="928" type="line"/>
      <point x="858" y="1009"/>
      <point x="779" y="1145"/>
      <point x="643" y="1225"/>
      <point x="563" y="1225" type="qcurve"/>
      <point x="482" y="1225"/>
      <point x="346" y="1145"/>
      <point x="266" y="1009"/>
      <point x="266" y="928" type="qcurve"/>
      <point x="266" y="399" type="line"/>
      <point x="266" y="319"/>
      <point x="346" y="183"/>
      <point x="482" y="104"/>
    </contour>
  </outline>
</glyph>
<glyph name="one" format="2">
  <advance width="719"/>
  <unicode hex="0031"/>
  <outline>
    <contour>
      <point x="498" y="0" type="line"/>
      <point x="360" y="0" type="line"/>
      <point x="360" y="1176" type="line"/>
      <point x="111" y="1026" type="line"/>
      <point x="111" y="1178" type="line"/>
      <point x="360" y="1328" type="line"/>
      <point x="498" y="1328" type="line"/>
    </contour>
  </outline>
</glyph>
<glyph name="two" format="2">
  <advance width="1050"/>
  <unicode hex="0032"/>
  <outline>
    <contour>
      <point x="299" y="131" type="line"/>
      <point x="959" y="131" type="line"/>
      <point x="959" y="1" type="line"/>
      <point x="92" y="1" type="line"/>
      <point x="93" y="124" type="line"/>
      <point x="693" y="666" type="line"/>
      <point x="766" y="732"/>
      <point x="821" y="857"/>
      <point x="821" y="932" type="qcurve"/>
      <point x="821" y="1013"/>
      <point x="744" y="1147"/>
      <point x="612" y="1225"/>
      <point x="532" y="1225" type="qcurve"/>
      <point x="449" y="1225"/>
      <point x="314" y="1145"/>
      <point x="239" y="1012"/>
      <point x="239" y="936" type="qcurve"/>
      <point x="239" y="934"/>
      <point x="239" y="932" type="qcurve"/>
      <point x="101" y="932" type="line"/>
      <point x="101" y="1051"/>
      <point x="214" y="1245"/>
      <point x="412" y="1355"/>
      <point x="534" y="1355" type="qcurve"/>
      <point x="653" y="1355"/>
      <point x="847" y="1242"/>
      <point x="959" y="1048"/>
      <point x="959" y="931" type="qcurve"/>
      <point x="959" y="849"/>
      <point x="919" y="725"/>
      <point x="839" y="617"/>
      <point x="770" y="556" type="qcurve"/>
    </contour>
  </outline>
</glyph>
<glyph name="three" format="2">
  <advance width="1020"/>
  <unicode hex="0033"/>
  <outline>
    <contour>
      <point x="504" y="824" type="line"/>
      <point x="623" y="824"/>
      <point x="807" y="719"/>
      <point x="909" y="527"/>
      <point x="909" y="405" type="qcurve"/>
      <point x="909" y="279"/>
      <point x="800" y="83"/>
      <point x="607" y="-27"/>
      <point x="486" y="-27" type="qcurve"/>
      <point x="388" y="-27"/>
      <point x="221" y="43"/>
      <point x="102" y="175"/>
      <point x="74" y="264" type="qcurve"/>
      <point x="203" y="302" type="line"/>
      <point x="235" y="207"/>
      <point x="382" y="104"/>
      <point x="476" y="104" type="qcurve"/>
      <point x="566" y="104"/>
      <point x="698" y="179"/>
      <point x="769" y="315"/>
      <point x="769" y="405" type="qcurve"/>
      <point x="769" y="494"/>
      <point x="697" y="630"/>
      <point x="567" y="705"/>
      <point x="482" y="705" type="qcurve"/>
      <point x="447" y="705"/>
      <point x="367" y="685"/>
      <point x="333" y="668" type="qcurve"/>
      <point x="265" y="776" type="line"/>
      <point x="721" y="1197" type="line"/>
      <point x="126" y="1197" type="line"/>
      <point x="126" y="1328" type="line"/>
      <point x="893" y="1328" type="line"/>
      <point x="893" y="1195" type="line"/>
    </contour>
  </outline>
</glyph>
<glyph name="four" format="2">
  <advance width="1086"/>
  <unicode hex="0034"/>
  <outline>
    <contour>
      <point x="850" y="0" type="line"/>
      <point x="714" y="0" type="line"/>
      <point x="714" y="257" type="line"/>
      <point x="92" y="257" type="line"/>
      <point x="92" y="386" type="line"/>
      <point x="536" y="1328" type="line"/>
      <point x="689" y="1328" type="line"/>
      <point x="244" y="386" type="line"/>
      <point x="714" y="386" type="line"/>
      <point x="714" y="773" type="line"/>
      <point x="850" y="773" type="line"/>
      <point x="850" y="386" type="line"/>
      <point x="995" y="386" type="line"/>
      <point x="995" y="257" type="line"/>
      <point x="850" y="257" type="line"/>
    </contour>
  </outline>
</glyph>
<glyph name="five" format="2">
  <advance width="1065"/>
  <unicode hex="0035"/>
  <outline>
    <contour>
      <point x="536" y="856" type="qcurve"/>
      <point x="656" y="856"/>
      <point x="856" y="739"/>
      <point x="972" y="538"/>
      <point x="972" y="418" type="qcurve"/>
      <point x="972" y="298"/>
      <point x="850" y="93"/>
      <point x="642" y="-28"/>
      <point x="521" y="-28" type="qcurve"/>
      <point x="419" y="-28"/>
      <point x="242" y="56"/>
      <point x="118" y="206"/>
      <point x="92" y="303" type="qcurve"/>
      <point x="222" y="338" type="line"/>
      <point x="239" y="268"/>
      <point x="331" y="162"/>
      <point x="456" y="105"/>
      <point x="525" y="105" type="qcurve"/>
      <point x="611" y="105"/>
      <point x="754" y="190"/>
      <point x="837" y="334"/>
      <point x="837" y="418" type="qcurve"/>
      <point x="837" y="503"/>
      <point x="752" y="646"/>
      <point x="608" y="729"/>
      <point x="525" y="729" type="qcurve"/>
      <point x="434" y="729"/>
      <point x="297" y="652"/>
      <point x="254" y="585" type="qcurve"/>
      <point x="130" y="637" type="line"/>
      <point x="170" y="1328" type="line"/>
      <point x="879" y="1328" type="line"/>
      <point x="879" y="1197" type="line"/>
      <point x="294" y="1197" type="line"/>
      <point x="267" y="756" type="line"/>
      <point x="322" y="804"/>
      <point x="462" y="856"/>
    </contour>
  </outline>
</glyph>
<glyph name="six" format="2">
  <advance width="1144"/>
  <unicode hex="0036"/>
  <outline>
    <contour>
      <point x="590" y="855" type="qcurve"/>
      <point x="712" y="855"/>
      <point x="913" y="738"/>
      <point x="1028" y="537"/>
      <point x="1028" y="416" type="qcurve"/>
      <point x="1028" y="295"/>
      <point x="906" y="91"/>
      <point x="698" y="-28"/>
      <point x="578" y="-28" type="qcurve"/>
      <point x="455" y="-28"/>
      <point x="248" y="93"/>
      <point x="129" y="303"/>
      <point x="129" y="430" type="qcurve"/>
      <point x="129" y="890" type="line"/>
      <point x="129" y="1022"/>
      <point x="248" y="1233"/>
      <point x="458" y="1354"/>
      <point x="588" y="1354" type="qcurve"/>
      <point x="701" y="1354"/>
      <point x="895" y="1255"/>
      <point x="958" y="1165" type="qcurve"/>
      <point x="853" y="1079" type="line"/>
      <point x="811" y="1146"/>
      <point x="669" y="1225"/>
      <point x="588" y="1225" type="qcurve"/>
      <point x="497" y="1225"/>
      <point x="349" y="1137"/>
      <point x="266" y="988"/>
      <point x="266" y="902" type="qcurve"/>
      <point x="266" y="698" type="line"/>
      <point x="326" y="771"/>
      <point x="496" y="855"/>
    </contour>
    <contour>
      <point x="578" y="104" type="qcurve"/>
      <point x="663" y="104"/>
      <point x="807" y="187"/>
      <point x="891" y="331"/>
      <point x="891" y="416" type="qcurve"/>
      <point x="891" y="501"/>
      <point x="807" y="645"/>
      <point x="663" y="729"/>
      <point x="579" y="729" type="qcurve"/>
      <point x="494" y="729"/>
      <point x="350" y="645"/>
      <point x="266" y="501"/>
      <point x="266" y="416" type="qcurve"/>
      <point x="266" y="331"/>
      <point x="349" y="188"/>
      <point x="493" y="104"/>
    </contour>
  </outline>
</glyph>
<glyph name="seven" format="2">
  <advance width="925"/>
  <unicode hex="0037"/>
  <outline>
    <contour>
      <point x="346" y="0" type="line"/>
      <point x="200" y="0" type="line"/>
      <point x="689" y="1195" type="line"/>
      <point x="74" y="1195" type="line"/>
      <point x="74" y="1328" type="line"/>
      <point x="833" y="1328" type="line"/>
      <point x="833" y="1195" type="line"/>
    </contour>
  </outline>
</glyph>
<glyph name="eight" format="2">
  <advance width="1070"/>
  <unicode hex="0038"/>
  <outline>
    <contour>
      <point x="772" y="709" type="qcurve"/>
      <point x="863" y="656"/>
      <point x="959" y="482"/>
      <point x="959" y="373" type="qcurve"/>
      <point x="959" y="253"/>
      <point x="851" y="72"/>
      <point x="658" y="-28"/>
      <point x="534" y="-28" type="qcurve"/>
      <point x="410" y="-28"/>
      <point x="218" y="72"/>
      <point x="111" y="253"/>
      <point x="111" y="373" type="qcurve"/>
      <point x="111" y="483"/>
      <point x="203" y="658"/>
      <point x="297" y="711" type="qcurve"/>
      <point x="221" y="756"/>
      <point x="142" y="907"/>
      <point x="142" y="998" type="qcurve"/>
      <point x="142" y="1107"/>
      <point x="241" y="1268"/>
      <point x="419" y="1355"/>
      <point x="534" y="1355" type="qcurve"/>
      <point x="648" y="1355"/>
      <point x="826" y="1268"/>
      <point x="926" y="1107"/>
      <point x="926" y="998" type="qcurve"/>
      <point x="926" y="906"/>
      <point x="848" y="754"/>
    </contour>
    <contour>
      <point x="534" y="1221" type="qcurve"/>
      <point x="419" y="1221"/>
      <point x="285" y="1107"/>
      <point x="285" y="998" type="qcurve"/>
      <point x="285" y="889"/>
      <point x="420" y="773"/>
      <point x="534" y="773" type="qcurve"/>
      <point x="648" y="773"/>
      <point x="782" y="889"/>
      <point x="782" y="998" type="qcurve"/>
      <point x="782" y="1107"/>
      <point x="648" y="1221"/>
    </contour>
    <contour>
      <point x="534" y="103" type="qcurve"/>
      <point x="618" y="103"/>
      <point x="745" y="165"/>
      <point x="815" y="286"/>
      <point x="815" y="373" type="qcurve"/>
      <point x="815" y="502"/>
      <point x="663" y="643"/>
      <point x="534" y="643" type="qcurve"/>
      <point x="404" y="643"/>
      <point x="254" y="502"/>
      <point x="254" y="373" type="qcurve"/>
      <point x="254" y="286"/>
      <point x="323" y="165"/>
      <point x="450" y="103"/>
    </contour>
  </outline>
</glyph>
<glyph name="nine" format="2">
  <advance width="1144"/>
  <unicode hex="0039"/>
  <outline>
    <contour>
      <point x="566" y="1354" type="qcurve"/>
      <point x="689" y="1354"/>
      <point x="895" y="1233"/>
      <point x="1014" y="1023"/>
      <point x="1014" y="896" type="qcurve"/>
      <point x="1014" y="436" type="line"/>
      <point x="1014" y="305"/>
      <point x="895" y="93"/>
      <point x="686" y="-28"/>
      <point x="555" y="-28" type="qcurve"/>
      <point x="443" y="-28"/>
      <point x="248" y="72"/>
      <point x="186" y="161" type="qcurve"/>
      <point x="291" y="247" type="line"/>
      <point x="333" y="181"/>
      <point x="474" y="102"/>
      <point x="555" y="102" type="qcurve"/>
      <point x="647" y="102"/>
      <point x="795" y="190"/>
      <point x="878" y="338"/>
      <point x="878" y="424" type="qcurve"/>
      <point x="878" y="627" type="line"/>
      <point x="817" y="554"/>
      <point x="648" y="471"/>
      <point x="553" y="471" type="qcurve"/>
      <point x="432" y="471"/>
      <point x="231" y="588"/>
      <point x="116" y="789"/>
      <point x="116" y="911" type="qcurve"/>
      <point x="116" y="1031"/>
      <point x="238" y="1235"/>
      <point x="446" y="1354"/>
    </contour>
    <contour>
      <point x="565" y="598" type="qcurve"/>
      <point x="650" y="598"/>
      <point x="794" y="681"/>
      <point x="878" y="824"/>
      <point x="878" y="911" type="qcurve"/>
      <point x="878" y="995"/>
      <point x="795" y="1139"/>
      <point x="651" y="1222"/>
      <point x="566" y="1222" type="qcurve"/>
      <point x="481" y="1222"/>
      <point x="337" y="1139"/>
      <point x="253" y="995"/>
      <point x="253" y="911" type="qcurve"/>
      <point x="253" y="824"/>
      <point x="337" y="681"/>
      <point x="481" y="598"/>
    </contour>
  </outline>
</glyph>
<glyph name="colon" format="2">
  <advance width="514"/>
  <unicode hex="003A"/>
  <outline>
    <contour>
      <point x="357" y="750" type="qcurve"/>
      <point x="357" y="727"/>
      <point x="340" y="691"/>
      <point x="311" y="665"/>
      <point x="276" y="652"/>
      <point x="258" y="652" type="qcurve"/>
      <point x="238" y="652"/>
      <point x="201" y="667"/>
      <point x="173" y="694"/>
      <point x="157" y="729"/>
      <point x="157" y="750" type="qcurve"/>
      <point x="157" y="771"/>
      <point x="173" y="808"/>
      <point x="201" y="834"/>
      <point x="238" y="850"/>
      <point x="258" y="850" type="qcurve"/>
      <point x="278" y="850"/>
      <point x="314" y="834"/>
      <point x="341" y="808"/>
      <point x="357" y="771"/>
    </contour>
    <contour>
      <point x="357" y="77" type="qcurve"/>
      <point x="357" y="53"/>
      <point x="339" y="14"/>
      <point x="311" y="-13"/>
      <point x="275" y="-27"/>
      <point x="257" y="-27" type="qcurve"/>
      <point x="238" y="-27"/>
      <point x="201" y="-12"/>
      <point x="172" y="15"/>
      <point x="155" y="53"/>
      <point x="155" y="77" type="qcurve"/>
      <point x="155" y="101"/>
      <point x="175" y="139"/>
      <point x="204" y="163"/>
      <point x="240" y="176"/>
      <point x="257" y="176" type="qcurve"/>
      <point x="273" y="176"/>
      <point x="309" y="162"/>
      <point x="338" y="137"/>
      <point x="357" y="100"/>
    </contour>
  </outline>
</glyph>
<glyph name="semicolon" format="2">
  <advance width="514"/>
  <unicode hex="003B"/>
  <outline>
    <contour>
      <point x="380" y="752" type="qcurve"/>
      <point x="380" y="729"/>
      <point x="363" y="693"/>
      <point x="335" y="667"/>
      <point x="300" y="653"/>
      <point x="282" y="653" type="qcurve"/>
      <point x="261" y="653"/>
      <point x="224" y="669"/>
      <point x="196" y="696"/>
      <point x="180" y="731"/>
      <point x="180" y="752" type="qcurve"/>
      <point x="180" y="773"/>
      <point x="196" y="810"/>
      <point x="224" y="836"/>
      <point x="261" y="851"/>
      <point x="282" y="851" type="qcurve"/>
      <point x="302" y="851"/>
      <point x="337" y="836"/>
      <point x="364" y="810"/>
      <point x="380" y="773"/>
    </contour>
    <contour>
      <point x="172" y="-227" type="qcurve"/>
      <point x="130" y="-130" type="line"/>
      <point x="173" y="-112"/>
      <point x="234" y="-61"/>
      <point x="271" y="-6"/>
      <point x="285" y="50"/>
      <point x="280" y="73" type="qcurve"/>
      <point x="278" y="84"/>
      <point x="258" y="126"/>
      <point x="230" y="149" type="qcurve"/>
      <point x="297" y="230" type="line"/>
      <point x="341" y="194"/>
      <point x="379" y="120"/>
      <point x="384" y="94" type="qcurve"/>
      <point x="393" y="48"/>
      <point x="371" y="-46"/>
      <point x="314" y="-132"/>
      <point x="227" y="-203"/>
    </contour>
  </outline>
</glyph>
<glyph name="less" format="2">
  <advance width="1132"/>
  <unicode hex="003C"/>
  <outline>
    <contour>
      <point x="777" y="233" type="line"/>
      <point x="690" y="149" type="line"/>
      <point x="258" y="581" type="line"/>
      <point x="690" y="1013" type="line"/>
      <point x="777" y="928" type="line"/>
      <point x="425" y="581" type="line"/>
    </contour>
  </outline>
</glyph>
<glyph name="equal" format="2">
  <advance width="1382"/>
  <unicode hex="003D"/>
  <outline>
    <contour>
      <point x="1161" y="762" type="line"/>
      <point x="221" y="762" type="line"/>
      <point x="221" y="878" type="line"/>
      <point x="1161" y="878" type="line"/>
    </contour>
    <contour>
      <point x="1161" y="449" type="line"/>
      <point x="221" y="449" type="line"/>
      <point x="221" y="565" type="line"/>
      <point x="1161" y="565" type="line"/>
    </contour>
  </outline>
</glyph>
<glyph name="greater" format="2">
  <advance width="1132"/>
  <unicode hex="003E"/>
  <outline>
    <contour>
      <point x="875" y="581" type="line"/>
      <point x="443" y="149" type="line"/>
      <point x="356" y="233" type="line"/>
      <point x="707" y="581" type="line"/>
      <point x="356" y="928" type="line"/>
      <point x="443" y="1013" type="line"/>
    </contour>
  </outline>
</glyph>
<glyph name="question" format="2">
  <advance width="965"/>
  <unicode hex="003F"/>
  <outline>
    <contour>
      <point x="389" y="362" type="line"/>
      <point x="389" y="446"/>
      <point x="405" y="548"/>
      <point x="432" y="599" type="qcurve"/>
      <point x="455" y="642"/>
      <point x="517" y="700"/>
      <point x="571" y="741" type="qcurve"/>
      <point x="608" y="770"/>
      <point x="649" y="803"/>
      <point x="669" y="824" type="qcurve"/>
      <point x="702" y="863"/>
      <point x="729" y="948"/>
      <point x="729" y="998" type="qcurve"/>
      <point x="729" y="1093"/>
      <point x="682" y="1146" type="qcurve"/>
      <point x="617" y="1224"/>
      <point x="481" y="1224" type="qcurve"/>
      <point x="421" y="1224"/>
      <point x="323" y="1191"/>
      <point x="293" y="1158" type="qcurve"/>
      <point x="262" y="1130"/>
      <point x="232" y="1050"/>
      <point x="232" y="1006" type="qcurve"/>
      <point x="232" y="1003"/>
      <point x="232" y="1000" type="qcurve"/>
      <point x="92" y="1000" type="line"/>
      <point x="95" y="1076"/>
      <point x="154" y="1214"/>
      <point x="206" y="1259" type="qcurve"/>
      <point x="259" y="1306"/>
      <point x="401" y="1354"/>
      <point x="479" y="1354" type="qcurve"/>
      <point x="574" y="1354"/>
      <point x="734" y="1297"/>
      <point x="787" y="1236" type="qcurve"/>
      <point x="831" y="1189"/>
      <point x="873" y="1069"/>
      <point x="873" y="1000" type="qcurve"/>
      <point x="873" y="925"/>
      <point x="815" y="790"/>
      <point x="764" y="736" type="qcurve"/>
      <point x="735" y="706"/>
      <point x="676" y="660" type="qcurve"/>
      <point x="632" y="626"/>
      <point x="578" y="576"/>
      <point x="562" y="546" type="qcurve"/>
      <point x="544" y="514"/>
      <point x="533" y="455"/>
      <point x="533" y="410" type="qcurve"/>
      <point x="533" y="362" type="line"/>
    </contour>
    <contour>
      <point x="461" y="-10" type="qcurve"/>
      <point x="421" y="-10"/>
      <point x="367" y="43"/>
      <point x="367" y="83" type="qcurve"/>
      <point x="367" y="123"/>
      <point x="421" y="177"/>
      <point x="461" y="177" type="qcurve"/>
      <point x="501" y="177"/>
      <point x="555" y="122"/>
      <point x="555" y="83" type="qcurve"/>
      <point x="555" y="43"/>
      <point x="501" y="-10"/>
    </contour>
  </outline>
</glyph>
<glyph name="at" format="2">
  <advance width="1665"/>
  <unicode hex="0040"/>
  <outline>
    <contour>
      <point x="841" y="1189" type="qcurve"/>
      <point x="1055" y="1189"/>
      <point x="1362" y="1013"/>
      <point x="1518" y="726"/>
      <point x="1518" y="560" type="qcurve"/>
      <point x="1518" y="535"/>
      <point x="1517" y="522" type="qcurve"/>
      <point x="1508" y="347"/>
      <point x="1362" y="170"/>
      <point x="1230" y="170" type="qcurve"/>
      <point x="1159" y="170"/>
      <point x="1048" y="226"/>
      <point x="1017" y="277" type="qcurve"/>
      <point x="983" y="235"/>
      <point x="875" y="193"/>
      <point x="814" y="193" type="qcurve"/>
      <point x="731" y="193"/>
      <point x="604" y="266"/>
      <point x="533" y="395"/>
      <point x="533" y="479" type="qcurve"/>
      <point x="533" y="566"/>
      <point x="607" y="696"/>
      <point x="735" y="767"/>
      <point x="816" y="767" type="qcurve"/>
      <point x="867" y="767"/>
      <point x="967" y="734"/>
      <point x="1003" y="702" type="qcurve"/>
      <point x="1003" y="741" type="line"/>
      <point x="1101" y="741" type="line"/>
      <point x="1100" y="441" type="line"/>
      <point x="1100" y="369"/>
      <point x="1166" y="287"/>
      <point x="1237" y="287" type="qcurve"/>
      <point x="1309" y="287"/>
      <point x="1389" y="407"/>
      <point x="1393" y="511" type="qcurve"/>
      <point x="1394" y="542" type="line"/>
      <point x="1394" y="712"/>
      <point x="1247" y="951"/>
      <point x="998" y="1073"/>
      <point x="847" y="1073" type="qcurve"/>
      <point x="670" y="1073"/>
      <point x="410" y="918"/>
      <point x="272" y="655"/>
      <point x="272" y="497" type="qcurve"/>
      <point x="272" y="333"/>
      <point x="421" y="71"/>
      <point x="682" y="-77"/>
      <point x="842" y="-77" type="qcurve"/>
      <point x="921" y="-77"/>
      <point x="1077" y="-37"/>
      <point x="1140" y="-1" type="qcurve"/>
      <point x="1184" y="-104" type="line"/>
      <point x="1025" y="-194"/>
      <point x="836" y="-194" type="qcurve"/>
      <point x="643" y="-194"/>
      <point x="328" y="-16"/>
      <point x="148" y="295"/>
      <point x="148" y="488" type="qcurve"/>
      <point x="148" y="693"/>
      <point x="324" y="1012"/>
      <point x="640" y="1189"/>
    </contour>
    <contour>
      <point x="821" y="311" type="qcurve"/>
      <point x="896" y="311"/>
      <point x="985" y="396"/>
      <point x="985" y="481" type="qcurve"/>
      <point x="985" y="563"/>
      <point x="897" y="652"/>
      <point x="824" y="652" type="qcurve"/>
      <point x="741" y="652"/>
      <point x="653" y="563"/>
      <point x="653" y="481" type="qcurve"/>
      <point x="653" y="398"/>
      <point x="743" y="311"/>
    </contour>
  </outline>
</glyph>
<glyph name="A" format="2">
  <advance width="1167"/>
  <unicode hex="0041"/>
  <outline>
    <contour>
      <point x="1130" y="0" type="line"/>
      <point x="990" y="0" type="line"/>
      <point x="878" y="321" type="line"/>
      <point x="289" y="321" type="line"/>
      <point x="178" y="0" type="line"/>
      <point x="37" y="0" type="line"/>
      <point x="494" y="1328" type="line"/>
      <point x="674" y="1328" type="line"/>
    </contour>
    <contour>
      <point x="582" y="1175" type="line"/>
      <point x="333" y="449" type="line"/>
      <point x="834" y="449" type="line"/>
    </contour>
  </outline>
</glyph>
<glyph name="B" format="2">
  <advance width="1130"/>
  <unicode hex="0042"/>
  <outline>
    <contour>
      <point x="855" y="704" type="qcurve"/>
      <point x="960" y="659"/>
      <point x="1076" y="487"/>
      <point x="1076" y="373" type="qcurve"/>
      <point x="1076" y="259"/>
      <point x="977" y="90"/>
      <point x="801" y="0"/>
      <point x="684" y="0" type="qcurve"/>
      <point x="129" y="0" type="line"/>
      <point x="129" y="1328" type="line"/>
      <point x="642" y="1328" type="line"/>
      <point x="751" y="1328"/>
      <point x="918" y="1236"/>
      <point x="1011" y="1079"/>
      <point x="1011" y="986" type="qcurve"/>
      <point x="1011" y="895"/>
      <point x="927" y="745"/>
    </contour>
    <contour>
      <point x="266" y="1199" type="line"/>
      <point x="266" y="761" type="line"/>
      <point x="641" y="761" type="line"/>
      <point x="704" y="761"/>
      <point x="809" y="819"/>
      <point x="871" y="923"/>
      <point x="871" y="987" type="qcurve"/>
      <point x="871" y="1049"/>
      <point x="812" y="1146"/>
      <point x="707" y="1199"/>
      <point x="641" y="1199" type="qcurve"/>
    </contour>
    <contour>
      <point x="651" y="130" type="line"/>
      <point x="732" y="130"/>
      <point x="860" y="188"/>
      <point x="935" y="297"/>
      <point x="935" y="371" type="qcurve"/>
      <point x="935" y="444"/>
      <point x="868" y="563"/>
      <point x="750" y="633"/>
      <point x="676" y="633" type="qcurve"/>
      <point x="266" y="633" type="line"/>
      <point x="266" y="130" type="line"/>
    </contour>
  </outline>
</glyph>
<glyph name="C" format="2">
  <advance width="1248"/>
  <unicode hex="0043"/>
  <outline>
    <contour>
      <point x="618" y="-28" type="qcurve"/>
      <point x="438" y="-28"/>
      <point x="185" y="146"/>
      <point x="55" y="458"/>
      <point x="55" y="663" type="qcurve"/>
      <point x="55" y="869"/>
      <point x="185" y="1182"/>
      <point x="438" y="1355"/>
      <point x="618" y="1355" type="qcurve"/>
      <point x="756" y="1355"/>
      <point x="972" y="1249"/>
      <point x="1116" y="1053"/>
      <point x="1150" y="919" type="qcurve"/>
      <point x="1023" y="883" type="line"/>
      <point x="984" y="1044"/>
      <point x="778" y="1225"/>
      <point x="618" y="1225" type="qcurve"/>
      <point x="477" y="1225"/>
      <point x="283" y="1083"/>
      <point x="186" y="828"/>
      <point x="186" y="658" type="qcurve"/>
      <point x="186" y="491"/>
      <point x="284" y="241"/>
      <point x="479" y="103"/>
      <point x="618" y="103" type="qcurve"/>
      <point x="778" y="103"/>
      <point x="984" y="283"/>
      <point x="1023" y="445" type="qcurve"/>
      <point x="1150" y="409" type="line"/>
      <point x="1116" y="274"/>
      <point x="972" y="78"/>
      <point x="756" y="-28"/>
    </contour>
  </outline>
</glyph>
<glyph name="D" format="2">
  <advance width="1238"/>
  <unicode hex="0044"/>
  <outline>
    <contour>
      <point x="129" y="0" type="line"/>
      <point x="129" y="1328" type="line"/>
      <point x="532" y="1328" type="line"/>
      <point x="639" y="1328"/>
      <point x="702" y="1319" type="qcurve"/>
      <point x="849" y="1299"/>
      <point x="1054" y="1118"/>
      <point x="1157" y="836"/>
      <point x="1157" y="663" type="qcurve"/>
      <point x="1157" y="491"/>
      <point x="1054" y="208"/>
      <point x="850" y="29"/>
      <point x="702" y="8" type="qcurve"/>
      <point x="641" y="0"/>
      <point x="532" y="0" type="qcurve"/>
    </contour>
    <contour>
      <point x="532" y="130" type="line"/>
      <point x="632" y="130"/>
      <point x="689" y="141" type="qcurve"/>
      <point x="854" y="169"/>
      <point x="1013" y="452"/>
      <point x="1013" y="663" type="qcurve"/>
      <point x="1013" y="877"/>
      <point x="853" y="1157"/>
      <point x="689" y="1186" type="qcurve"/>
      <point x="632" y="1197"/>
      <point x="532" y="1197" type="qcurve"/>
      <point x="269" y="1197" type="line"/>
      <point x="269" y="130" type="line"/>
    </contour>
  </outline>
</glyph>
<glyph name="E" format="2">
  <advance width="1050"/>
  <unicode hex="0045"/>
  <outline>
    <contour>
      <point x="959" y="0" type="line"/>
      <point x="129" y="0" type="line"/>
      <point x="129" y="1328" type="line"/>
      <point x="959" y="1328" type="line"/>
      <point x="959" y="1197" type="line"/>
      <point x="265" y="1197" type="line"/>
      <point x="265" y="738" type="line"/>
      <point x="848" y="738" type="line"/>
      <point x="848" y="608" type="line"/>
      <point x="265" y="608" type="line"/>
      <point x="265" y="130" type="line"/>
      <point x="959" y="130" type="line"/>
    </contour>
  </outline>
</glyph>
<glyph name="F" format="2">
  <advance width="928"/>
  <unicode hex="0046"/>
  <outline>
    <contour>
      <point x="265" y="0" type="line"/>
      <point x="129" y="0" type="line"/>
      <point x="129" y="1328" type="line"/>
      <point x="891" y="1328" type="line"/>
      <point x="891" y="1192" type="line"/>
      <point x="265" y="1192" type="line"/>
      <point x="265" y="731" type="line"/>
      <point x="780" y="731" type="line"/>
      <point x="780" y="597" type="line"/>
      <point x="265" y="597" type="line"/>
    </contour>
  </outline>
</glyph>
<glyph name="G" format="2">
  <advance width="1300"/>
  <unicode hex="0047"/>
  <outline>
    <contour>
      <point x="661" y="-28" type="qcurve"/>
      <point x="474" y="-28"/>
      <point x="202" y="142"/>
      <point x="55" y="455"/>
      <point x="55" y="663" type="qcurve"/>
      <point x="55" y="872"/>
      <point x="200" y="1184"/>
      <point x="473" y="1354"/>
      <point x="661" y="1354" type="qcurve"/>
      <point x="867" y="1354"/>
      <point x="1132" y="1166"/>
      <point x="1187" y="1001" type="qcurve"/>
      <point x="1050" y="968" type="line"/>
      <point x="1004" y="1086"/>
      <point x="806" y="1223"/>
      <point x="662" y="1223" type="qcurve"/>
      <point x="510" y="1223"/>
      <point x="302" y="1081"/>
      <point x="199" y="826"/>
      <point x="199" y="655" type="qcurve"/>
      <point x="199" y="489"/>
      <point x="306" y="239"/>
      <point x="517" y="103"/>
      <point x="668" y="103" type="qcurve"/>
      <point x="876" y="103"/>
      <point x="1087" y="342"/>
      <point x="1099" y="561" type="qcurve"/>
      <point x="676" y="561" type="line"/>
      <point x="676" y="677" type="line"/>
      <point x="1240" y="677" type="line"/>
      <point x="1244" y="639"/>
      <point x="1244" y="599" type="qcurve"/>
      <point x="1244" y="416"/>
      <point x="1112" y="132"/>
      <point x="851" y="-28"/>
    </contour>
  </outline>
</glyph>
<glyph name="H" format="2">
  <advance width="1262"/>
  <unicode hex="0048"/>
  <outline>
    <contour>
      <point x="265" y="0" type="line"/>
      <point x="129" y="0" type="line"/>
      <point x="129" y="1328" type="line"/>
      <point x="265" y="1328" type="line"/>
      <point x="265" y="729" type="line"/>
      <point x="998" y="729" type="line"/>
      <point x="998" y="1328" type="line"/>
      <point x="1132" y="1328" type="line"/>
      <point x="1132" y="0" type="line"/>
      <point x="998" y="0" type="line"/>
      <point x="998" y="599" type="line"/>
      <point x="265" y="599" type="line"/>
    </contour>
  </outline>
</glyph>
<glyph name="J" format="2">
  <advance width="854"/>
  <unicode hex="004A"/>
  <outline>
    <contour>
      <point x="356" y="-27" type="qcurve"/>
      <point x="268" y="-27"/>
      <point x="122" y="40"/>
      <point x="22" y="162"/>
      <point x="0" y="244" type="qcurve"/>
      <point x="136" y="276" type="line"/>
      <point x="147" y="228"/>
      <point x="209" y="149"/>
      <point x="302" y="104"/>
      <point x="355" y="104" type="qcurve"/>
      <point x="411" y="104"/>
      <point x="514" y="157"/>
      <point x="543" y="210" type="qcurve"/>
      <point x="562" y="246"/>
      <point x="570" y="329"/>
      <point x="570" y="409" type="qcurve"/>
      <point x="570" y="1328" type="line"/>
      <point x="706" y="1328" type="line"/>
      <point x="706" y="357" type="line"/>
      <point x="706" y="283"/>
      <point x="690" y="188"/>
      <point x="662" y="140" type="qcurve"/>
      <point x="616" y="57"/>
      <point x="455" y="-27"/>
    </contour>
  </outline>
</glyph>
<glyph name="K" format="2">
  <advance width="1094"/>
  <unicode hex="004B"/>
  <outline>
    <contour>
      <point x="1094" y="0" type="line"/>
      <point x="920" y="0" type="line"/>
      <point x="406" y="645" type="line"/>
      <point x="261" y="490" type="line"/>
      <point x="261" y="0" type="line"/>
      <point x="129" y="0" type="line"/>
      <point x="129" y="1328" type="line"/>
      <point x="261" y="1328" type="line"/>
      <point x="261" y="678" type="line"/>
      <point x="871" y="1328" type="line"/>
      <point x="1043" y="1328" type="line"/>
      <point x="499" y="743" type="line"/>
    </contour>
  </outline>
</glyph>
<glyph name="L" format="2">
  <advance width="941"/>
  <unicode hex="004C"/>
  <outline>
    <contour>
      <point x="914" y="0" type="line"/>
      <point x="148" y="0" type="line"/>
      <point x="148" y="1328" type="line"/>
      <point x="283" y="1328" type="line"/>
      <point x="283" y="130" type="line"/>
      <point x="914" y="130" type="line"/>
    </contour>
  </outline>
</glyph>
<glyph name="M" format="2">
  <advance width="1549"/>
  <unicode hex="004D"/>
  <outline>
    <contour>
      <point x="259" y="0" type="line"/>
      <point x="129" y="0" type="line"/>
      <point x="129" y="1328" type="line"/>
      <point x="254" y="1328" type="line"/>
      <point x="775" y="211" type="line"/>
      <point x="1294" y="1328" type="line"/>
      <point x="1420" y="1328" type="line"/>
      <point x="1420" y="1" type="line"/>
      <point x="1292" y="1" type="line"/>
      <point x="1292" y="1025" type="line"/>
      <point x="818" y="0" type="line"/>
      <point x="731" y="0" type="line"/>
      <point x="259" y="1025" type="line"/>
    </contour>
  </outline>
</glyph>
<glyph name="N" format="2">
  <advance width="1262"/>
  <unicode hex="004E"/>
  <outline>
    <contour>
      <point x="266" y="0" type="line"/>
      <point x="129" y="0" type="line"/>
      <point x="129" y="1328" type="line"/>
      <point x="266" y="1328" type="line"/>
      <point x="996" y="239" type="line"/>
      <point x="996" y="1328" type="line"/>
      <point x="1132" y="1328" type="line"/>
      <point x="1132" y="0" type="line"/>
      <point x="996" y="0" type="line"/>
      <point x="266" y="1088" type="line"/>
    </contour>
  </outline>
</glyph>
<glyph name="O" format="2">
  <advance width="1270"/>
  <unicode hex="004F"/>
  <outline>
    <contour>
      <point x="631" y="-28" type="qcurve"/>
      <point x="448" y="-28"/>
      <point x="189" y="146"/>
      <point x="55" y="458"/>
      <point x="55" y="663" type="qcurve"/>
      <point x="55" y="869"/>
      <point x="189" y="1182"/>
      <point x="448" y="1355"/>
      <point x="631" y="1355" type="qcurve"/>
      <point x="814" y="1355"/>
      <point x="1076" y="1182"/>
      <point x="1209" y="869"/>
      <point x="1209" y="663" type="qcurve"/>
      <point x="1209" y="458"/>
      <point x="1076" y="146"/>
      <point x="814" y="-28"/>
    </contour>
    <contour>
      <point x="633" y="103" type="qcurve"/>
      <point x="777" y="103"/>
      <point x="975" y="243"/>
      <point x="1074" y="496"/>
      <point x="1074" y="663" type="qcurve"/>
      <point x="1074" y="833"/>
      <point x="973" y="1085"/>
      <point x="773" y="1225"/>
      <point x="629" y="1225" type="qcurve"/>
      <point x="485" y="1225"/>
      <point x="288" y="1082"/>
      <point x="191" y="826"/>
      <point x="191" y="655" type="qcurve"/>
      <point x="191" y="489"/>
      <point x="292" y="239"/>
      <point x="491" y="103"/>
    </contour>
  </outline>
</glyph>
<glyph name="P" format="2">
  <advance width="1113"/>
  <unicode hex="0050"/>
  <outline>
    <contour>
      <point x="129" y="0" type="line"/>
      <point x="129" y="1328" type="line"/>
      <point x="642" y="1328" type="line"/>
      <point x="690" y="1328"/>
      <point x="734" y="1319" type="qcurve"/>
      <point x="836" y="1304"/>
      <point x="983" y="1192"/>
      <point x="1058" y="1020"/>
      <point x="1058" y="915" type="qcurve"/>
      <point x="1058" y="811"/>
      <point x="982" y="640"/>
      <point x="836" y="527"/>
      <point x="734" y="511" type="qcurve"/>
      <point x="690" y="504"/>
      <point x="642" y="504" type="qcurve"/>
      <point x="265" y="504" type="line"/>
      <point x="265" y="0" type="line"/>
    </contour>
    <contour>
      <point x="638" y="633" type="line"/>
      <point x="684" y="633"/>
      <point x="720" y="642" type="qcurve"/>
      <point x="785" y="655"/>
      <point x="875" y="736"/>
      <point x="919" y="851"/>
      <point x="919" y="915" type="qcurve"/>
      <point x="919" y="978"/>
      <point x="875" y="1094"/>
      <point x="785" y="1176"/>
      <point x="720" y="1190" type="qcurve"/>
      <point x="683" y="1197"/>
      <point x="638" y="1197" type="qcurve"/>
      <point x="265" y="1197" type="line"/>
      <point x="265" y="633" type="line"/>
    </contour>
  </outline>
</glyph>
<glyph name="Q" format="2">
  <advance width="1334"/>
  <unicode hex="0051"/>
  <outline>
    <contour>
      <point x="1278" y="663" type="qcurve"/>
      <point x="1278" y="519"/>
      <point x="1208" y="277"/>
      <point x="1139" y="188" type="qcurve"/>
      <point x="1262" y="66" type="line"/>
      <point x="1172" y="-27" type="line"/>
      <point x="1049" y="95" type="line"/>
      <point x="896" y="-28"/>
      <point x="666" y="-28" type="qcurve"/>
      <point x="472" y="-28"/>
      <point x="197" y="146"/>
      <point x="55" y="458"/>
      <point x="55" y="663" type="qcurve"/>
      <point x="55" y="869"/>
      <point x="197" y="1182"/>
      <point x="472" y="1355"/>
      <point x="666" y="1355" type="qcurve"/>
      <point x="860" y="1355"/>
      <point x="1137" y="1182"/>
      <point x="1278" y="869"/>
    </contour>
    <contour>
      <point x="666" y="103" type="qcurve"/>
      <point x="837" y="103"/>
      <point x="951" y="192" type="qcurve"/>
      <point x="817" y="325" type="line"/>
      <point x="910" y="418" type="line"/>
      <point x="1039" y="289" type="line"/>
      <point x="1085" y="360"/>
      <point x="1135" y="551"/>
      <point x="1135" y="663" type="qcurve"/>
      <point x="1135" y="833"/>
      <point x="1028" y="1085"/>
      <point x="816" y="1225"/>
      <point x="664" y="1225" type="qcurve"/>
      <point x="511" y="1225"/>
      <point x="302" y="1082"/>
      <point x="199" y="826"/>
      <point x="199" y="655" type="qcurve"/>
      <point x="199" y="491"/>
      <point x="305" y="241"/>
      <point x="515" y="104"/>
    </contour>
  </outline>
</glyph>
<glyph name="R" format="2">
  <advance width="1162"/>
  <unicode hex="0052"/>
  <outline>
    <contour>
      <point x="1079" y="0" type="line"/>
      <point x="923" y="0" type="line"/>
      <point x="638" y="553" type="line"/>
      <point x="265" y="553" type="line"/>
      <point x="265" y="0" type="line"/>
      <point x="129" y="0" type="line"/>
      <point x="129" y="1328" type="line"/>
      <point x="642" y="1328" type="line"/>
      <point x="690" y="1328"/>
      <point x="734" y="1319" type="qcurve"/>
      <point x="836" y="1304"/>
      <point x="982" y="1197"/>
      <point x="1058" y="1037"/>
      <point x="1058" y="940" type="qcurve"/>
      <point x="1058" y="857"/>
      <point x="994" y="707"/>
      <point x="869" y="597"/>
      <point x="783" y="572" type="qcurve"/>
    </contour>
    <contour>
      <point x="265" y="1197" type="line"/>
      <point x="265" y="683" type="line"/>
      <point x="638" y="683" type="line"/>
      <point x="692" y="683"/>
      <point x="720" y="690" type="qcurve"/>
      <point x="817" y="716"/>
      <point x="919" y="853"/>
      <point x="919" y="940" type="qcurve"/>
      <point x="919" y="996"/>
      <point x="875" y="1100"/>
      <point x="785" y="1176"/>
      <point x="720" y="1190" type="qcurve"/>
      <point x="683" y="1197"/>
      <point x="638" y="1197" type="qcurve"/>
    </contour>
  </outline>
</glyph>
<glyph name="S" format="2">
  <advance width="1137"/>
  <unicode hex="0053"/>
  <outline>
    <contour>
      <point x="590" y="-28" type="qcurve"/>
      <point x="452" y="-28"/>
      <point x="229" y="66"/>
      <point x="84" y="238"/>
      <point x="62" y="355" type="qcurve"/>
      <point x="200" y="378" type="line"/>
      <point x="222" y="293"/>
      <point x="334" y="168"/>
      <point x="497" y="103"/>
      <point x="596" y="103" type="qcurve"/>
      <point x="693" y="103"/>
      <point x="849" y="165"/>
      <point x="936" y="280"/>
      <point x="936" y="356" type="qcurve"/>
      <point x="936" y="448"/>
      <point x="822" y="545"/>
      <point x="733" y="572" type="qcurve"/>
      <point x="396" y="671" type="line"/>
      <point x="113" y="756"/>
      <point x="113" y="990" type="qcurve"/>
      <point x="113" y="1100"/>
      <point x="230" y="1265"/>
      <point x="434" y="1354"/>
      <point x="564" y="1354" type="qcurve"/>
      <point x="696" y="1354"/>
      <point x="909" y="1261"/>
      <point x="1046" y="1085"/>
      <point x="1067" y="967" type="qcurve"/>
      <point x="925" y="941" type="line"/>
      <point x="913" y="1026"/>
      <point x="811" y="1155"/>
      <point x="656" y="1225"/>
      <point x="563" y="1225" type="qcurve"/>
      <point x="476" y="1225"/>
      <point x="337" y="1165"/>
      <point x="257" y="1060"/>
      <point x="257" y="995" type="qcurve"/>
      <point x="257" y="932"/>
      <point x="326" y="851"/>
      <point x="425" y="806"/>
      <point x="492" y="786" type="qcurve"/>
      <point x="752" y="709" type="line"/>
      <point x="833" y="687"/>
      <point x="968" y="620"/>
      <point x="1075" y="477"/>
      <point x="1075" y="362" type="qcurve"/>
      <point x="1075" y="241"/>
      <point x="950" y="66"/>
      <point x="729" y="-28"/>
    </contour>
  </outline>
</glyph>
<glyph name="T" format="2">
  <advance width="1100"/>
  <unicode hex="0054"/>
  <outline>
    <contour>
      <point x="617" y="0" type="line"/>
      <point x="482" y="0" type="line"/>
      <point x="482" y="1197" type="line"/>
      <point x="18" y="1197" type="line"/>
      <point x="18" y="1328" type="line"/>
      <point x="1081" y="1328" type="line"/>
      <point x="1081" y="1197" type="line"/>
      <point x="617" y="1197" type="line"/>
    </contour>
  </outline>
</glyph>
<glyph name="U" format="2">
  <advance width="1294"/>
  <unicode hex="0055"/>
  <outline>
    <contour>
      <point x="647" y="-28" type="qcurve"/>
      <point x="496" y="-28"/>
      <point x="261" y="98"/>
      <point x="129" y="329"/>
      <point x="129" y="479" type="qcurve"/>
      <point x="129" y="1327" type="line"/>
      <point x="266" y="1328" type="line"/>
      <point x="266" y="497" type="line"/>
      <point x="266" y="367"/>
      <point x="380" y="187"/>
      <point x="555" y="101"/>
      <point x="647" y="101" type="qcurve"/>
      <point x="739" y="101"/>
      <point x="914" y="188"/>
      <point x="1029" y="367"/>
      <point x="1029" y="497" type="qcurve"/>
      <point x="1029" y="1328" type="line"/>
      <point x="1165" y="1328" type="line"/>
      <point x="1165" y="479" type="line"/>
      <point x="1165" y="329"/>
      <point x="1033" y="99"/>
      <point x="797" y="-28"/>
    </contour>
  </outline>
</glyph>
<glyph name="V" format="2">
  <advance width="1112"/>
  <unicode hex="0056"/>
  <outline>
    <contour>
      <point x="646" y="0" type="line"/>
      <point x="466" y="0" type="line"/>
      <point x="9" y="1328" type="line"/>
      <point x="150" y="1328" type="line"/>
      <point x="554" y="154" type="line"/>
      <point x="962" y="1328" type="line"/>
      <point x="1103" y="1328" type="line"/>
    </contour>
  </outline>
</glyph>
<glyph name="W" format="2">
  <advance width="1724"/>
  <unicode hex="0057"/>
  <outline>
    <contour>
      <point x="550" y="0" type="line"/>
      <point x="414" y="0" type="line"/>
      <point x="31" y="1328" type="line"/>
      <point x="171" y="1328" type="line"/>
      <point x="482" y="231" type="line"/>
      <point x="791" y="1327" type="line"/>
      <point x="932" y="1328" type="line"/>
      <point x="1243" y="231" type="line"/>
      <point x="1552" y="1328" type="line"/>
      <point x="1694" y="1328" type="line"/>
      <point x="1311" y="0" type="line"/>
      <point x="1175" y="0" type="line"/>
      <point x="861" y="1088" type="line"/>
    </contour>
  </outline>
</glyph>
<glyph name="X" format="2">
  <advance width="1117"/>
  <unicode hex="0058"/>
  <outline>
    <contour>
      <point x="184" y="0" type="line"/>
      <point x="18" y="0" type="line"/>
      <point x="478" y="671" type="line"/>
      <point x="31" y="1328" type="line"/>
      <point x="194" y="1328" type="line"/>
      <point x="559" y="785" type="line"/>
      <point x="923" y="1328" type="line"/>
      <point x="1087" y="1328" type="line"/>
      <point x="640" y="671" type="line"/>
      <point x="1099" y="0" type="line"/>
      <point x="934" y="0" type="line"/>
      <point x="559" y="558" type="line"/>
    </contour>
  </outline>
</glyph>
<glyph name="Y" format="2">
  <advance width="1025"/>
  <unicode hex="0059"/>
  <outline>
    <contour>
      <point x="581" y="0" type="line"/>
      <point x="446" y="0" type="line"/>
      <point x="446" y="555" type="line"/>
      <point x="0" y="1328" type="line"/>
      <point x="157" y="1328" type="line"/>
      <point x="513" y="711" type="line"/>
      <point x="869" y="1328" type="line"/>
      <point x="1025" y="1328" type="line"/>
      <point x="581" y="555" type="line"/>
    </contour>
  </outline>
</glyph>
<glyph name="Z" format="2">
  <advance width="1131"/>
  <unicode hex="005A"/>
  <outline>
    <contour>
      <point x="1033" y="0" type="line"/>
      <point x="92" y="0" type="line"/>
      <point x="92" y="29" type="line"/>
      <point x="817" y="1197" type="line"/>
      <point x="111" y="1197" type="line"/>
      <point x="111" y="1328" type="line"/>
      <point x="1040" y="1328" type="line"/>
      <point x="1040" y="1296" type="line"/>
      <point x="318" y="129" type="line"/>
      <point x="1033" y="129" type="line"/>
    </contour>
  </outline>
</glyph>
<glyph name="bracketleft" format="2">
  <advance width="614"/>
  <unicode hex="005B"/>
  <outline>
    <contour>
      <point x="149" y="-365" type="line"/>
      <point x="149" y="1249" type="line"/>
      <point x="546" y="1249" type="line"/>
      <point x="546" y="1180" type="line"/>
      <point x="284" y="1180" type="line"/>
      <point x="284" y="-294" type="line"/>
      <point x="546" y="-294" type="line"/>
      <point x="546" y="-365" type="line"/>
    </contour>
  </outline>
</glyph>
<glyph name="backslash" format="2">
  <advance width="715"/>
  <unicode hex="005C"/>
  <outline>
    <contour>
      <point x="604" y="0" type="line"/>
      <point x="465" y="0" type="line"/>
      <point x="111" y="1328" type="line"/>
      <point x="251" y="1328" type="line"/>
    </contour>
  </outline>
</glyph>
<glyph name="bracketright" format="2">
  <advance width="614"/>
  <unicode hex="005D"/>
  <outline>
    <contour>
      <point x="70" y="-367" type="line"/>
      <point x="70" y="-294" type="line"/>
      <point x="331" y="-294" type="line"/>
      <point x="331" y="1180" type="line"/>
      <point x="70" y="1180" type="line"/>
      <point x="70" y="1249" type="line"/>
      <point x="466" y="1249" type="line"/>
      <point x="466" y="-367" type="line"/>
    </contour>
  </outline>
</glyph>
<glyph name="asciicircum" format="2">
  <advance width="579"/>
  <unicode hex="005E"/>
  <outline>
    <contour>
      <point x="515" y="938" type="line"/>
      <point x="289" y="1130" type="line"/>
      <point x="64" y="938" type="line"/>
      <point x="0" y="938" type="line"/>
      <point x="232" y="1247" type="line"/>
      <point x="347" y="1247" type="line"/>
      <point x="579" y="938" type="line"/>
    </contour>
  </outline>
</glyph>
<glyph name="underscore" format="2">
  <advance width="579"/>
  <unicode hex="005F"/>
  <outline>
    <contour>
      <point x="0" y="-266" type="line"/>
      <point x="0" y="-167" type="line"/>
      <point x="579" y="-167" type="line"/>
      <point x="579" y="-266" type="line"/>
    </contour>
  </outline>
</glyph>
<glyph name="grave" format="2">
  <advance width="632"/>
  <unicode hex="0060"/>
  <outline>
    <contour>
      <point x="346" y="938" type="line"/>
      <point x="80" y="1107" type="line"/>
      <point x="68" y="1114"/>
      <point x="41" y="1131"/>
      <point x="16" y="1152"/>
      <point x="0" y="1175"/>
      <point x="0" y="1186" type="qcurve"/>
      <point x="0" y="1219"/>
      <point x="31" y="1256"/>
      <point x="58" y="1256" type="qcurve"/>
      <point x="81" y="1256"/>
      <point x="140" y="1221"/>
      <point x="165" y="1195" type="qcurve"/>
      <point x="420" y="938" type="line"/>
    </contour>
  </outline>
</glyph>
<glyph name="a" format="2">
  <advance width="1024"/>
  <unicode hex="0061"/>
  <outline>
    <contour>
      <point x="884" y="824" type="qcurve"/>
      <point x="914" y="752"/>
      <point x="914" y="618" type="qcurve"/>
      <point x="914" y="0" type="line"/>
      <point x="793" y="0" type="line"/>
      <point x="793" y="165" type="line"/>
      <point x="734" y="70"/>
      <point x="541" y="-28"/>
      <point x="414" y="-28" type="qcurve"/>
      <point x="305" y="-28"/>
      <point x="151" y="51"/>
      <point x="74" y="186"/>
      <point x="74" y="267" type="qcurve"/>
      <point x="74" y="383"/>
      <point x="208" y="526"/>
      <point x="328" y="556" type="qcurve"/>
      <point x="400" y="574"/>
      <point x="580" y="602"/>
      <point x="698" y="617" type="qcurve"/>
      <point x="780" y="628" type="line"/>
      <point x="779" y="766"/>
      <point x="654" y="895"/>
      <point x="515" y="895" type="qcurve"/>
      <point x="410" y="895"/>
      <point x="271" y="801"/>
      <point x="243" y="703" type="qcurve"/>
      <point x="112" y="742" type="line"/>
      <point x="147" y="877"/>
      <point x="354" y="1023"/>
      <point x="517" y="1023" type="qcurve"/>
      <point x="653" y="1023"/>
      <point x="844" y="920"/>
    </contour>
    <contour>
      <point x="429" y="89" type="qcurve"/>
      <point x="522" y="89"/>
      <point x="665" y="157"/>
      <point x="753" y="275"/>
      <point x="766" y="351" type="qcurve"/>
      <point x="779" y="409"/>
      <point x="779" y="509" type="qcurve"/>
      <point x="743" y="506"/>
      <point x="727" y="503" type="qcurve"/>
      <point x="602" y="489"/>
      <point x="446" y="465"/>
      <point x="382" y="448" type="qcurve"/>
      <point x="209" y="397"/>
      <point x="209" y="267" type="qcurve"/>
      <point x="209" y="221"/>
      <point x="255" y="140"/>
      <point x="354" y="89"/>
    </contour>
  </outline>
</glyph>
<glyph name="b" format="2">
  <advance width="1091"/>
  <unicode hex="0062"/>
  <outline>
    <contour>
      <point x="581" y="1023" type="qcurve"/>
      <point x="715" y="1023"/>
      <point x="913" y="887"/>
      <point x="1017" y="648"/>
      <point x="1017" y="499" type="qcurve"/>
      <point x="1017" y="348"/>
      <point x="913" y="109"/>
      <point x="713" y="-28"/>
      <point x="576" y="-28" type="qcurve"/>
      <point x="470" y="-28"/>
      <point x="305" y="60"/>
      <point x="250" y="140" type="qcurve"/>
      <point x="250" y="0" type="line"/>
      <point x="128" y="0" type="line"/>
      <point x="128" y="1328" type="line"/>
      <point x="265" y="1328" type="line"/>
      <point x="265" y="878" type="line"/>
      <point x="320" y="948"/>
      <point x="481" y="1023"/>
    </contour>
    <contour>
      <point x="563" y="99" type="qcurve"/>
      <point x="662" y="99"/>
      <point x="803" y="202"/>
      <point x="874" y="383"/>
      <point x="874" y="499" type="qcurve"/>
      <point x="874" y="614"/>
      <point x="805" y="794"/>
      <point x="662" y="896"/>
      <point x="560" y="896" type="qcurve"/>
      <point x="458" y="896"/>
      <point x="319" y="797"/>
      <point x="250" y="617"/>
      <point x="250" y="499" type="qcurve"/>
      <point x="250" y="381"/>
      <point x="319" y="201"/>
      <point x="459" y="99"/>
    </contour>
  </outline>
</glyph>
<glyph name="c" format="2">
  <advance width="1021"/>
  <unicode hex="0063"/>
  <outline>
    <contour>
      <point x="542" y="-28" type="qcurve"/>
      <point x="394" y="-28"/>
      <point x="185" y="105"/>
      <point x="76" y="343"/>
      <point x="74" y="498" type="qcurve"/>
      <point x="76" y="655"/>
      <point x="186" y="892"/>
      <point x="396" y="1023"/>
      <point x="543" y="1023" type="qcurve"/>
      <point x="643" y="1023"/>
      <point x="812" y="957"/>
      <point x="932" y="833"/>
      <point x="959" y="747" type="qcurve"/>
      <point x="827" y="705" type="line"/>
      <point x="792" y="794"/>
      <point x="640" y="893"/>
      <point x="542" y="893" type="qcurve"/>
      <point x="383" y="893"/>
      <point x="220" y="680"/>
      <point x="218" y="498" type="qcurve"/>
      <point x="220" y="314"/>
      <point x="385" y="103"/>
      <point x="542" y="103" type="qcurve"/>
      <point x="644" y="103"/>
      <point x="786" y="195"/>
      <point x="823" y="284" type="qcurve"/>
      <point x="959" y="244" type="line"/>
      <point x="904" y="112"/>
      <point x="689" y="-28"/>
    </contour>
  </outline>
</glyph>
<glyph name="d" format="2">
  <advance width="1092"/>
  <unicode hex="0064"/>
  <outline>
    <contour>
      <point x="827" y="1328" type="line"/>
      <point x="963" y="1328" type="line"/>
      <point x="963" y="0" type="line"/>
      <point x="842" y="0" type="line"/>
      <point x="842" y="140" type="line"/>
      <point x="786" y="60"/>
      <point x="621" y="-28"/>
      <point x="515" y="-28" type="qcurve"/>
      <point x="379" y="-28"/>
      <point x="179" y="109"/>
      <point x="74" y="348"/>
      <point x="74" y="499" type="qcurve"/>
      <point x="74" y="648"/>
      <point x="179" y="887"/>
      <point x="377" y="1023"/>
      <point x="509" y="1023" type="qcurve"/>
      <point x="611" y="1023"/>
      <point x="770" y="948"/>
      <point x="827" y="878" type="qcurve"/>
    </contour>
    <contour>
      <point x="529" y="99" type="qcurve"/>
      <point x="632" y="99"/>
      <point x="772" y="201"/>
      <point x="842" y="381"/>
      <point x="842" y="499" type="qcurve"/>
      <point x="842" y="617"/>
      <point x="772" y="797"/>
      <point x="633" y="896"/>
      <point x="532" y="896" type="qcurve"/>
      <point x="428" y="896"/>
      <point x="286" y="794"/>
      <point x="218" y="614"/>
      <point x="218" y="499" type="qcurve"/>
      <point x="218" y="383"/>
      <point x="289" y="202"/>
      <point x="428" y="99"/>
    </contour>
  </outline>
</glyph>
<glyph name="e" format="2">
  <advance width="1077"/>
  <unicode hex="0065"/>
  <outline>
    <contour>
      <point x="219" y="460" type="line"/>
      <point x="227" y="289"/>
      <point x="396" y="103"/>
      <point x="545" y="103" type="qcurve"/>
      <point x="651" y="103"/>
      <point x="811" y="201"/>
      <point x="857" y="294" type="qcurve"/>
      <point x="984" y="245" type="line"/>
      <point x="924" y="115"/>
      <point x="696" y="-28"/>
      <point x="550" y="-28" type="qcurve"/>
      <point x="407" y="-28"/>
      <point x="191" y="102"/>
      <point x="74" y="337"/>
      <point x="74" y="493" type="qcurve"/>
      <point x="74" y="654"/>
      <point x="189" y="894"/>
      <point x="401" y="1023"/>
      <point x="545" y="1023" type="qcurve"/>
      <point x="688" y="1023"/>
      <point x="893" y="895"/>
      <point x="1003" y="654"/>
      <point x="1003" y="489" type="qcurve"/>
      <point x="1003" y="460" type="line"/>
    </contour>
    <contour>
      <point x="548" y="898" type="qcurve"/>
      <point x="406" y="898"/>
      <point x="237" y="731"/>
      <point x="221" y="573" type="qcurve"/>
      <point x="860" y="573" type="line"/>
      <point x="846" y="734"/>
      <point x="688" y="898"/>
    </contour>
  </outline>
</glyph>
<glyph name="f" format="2">
  <advance width="653"/>
  <unicode hex="0066"/>
  <outline>
    <contour>
      <point x="517" y="1240" type="line"/>
      <point x="438" y="1240"/>
      <point x="363" y="1164"/>
      <point x="363" y="1084" type="qcurve"/>
      <point x="363" y="995" type="line"/>
      <point x="635" y="995" type="line"/>
      <point x="635" y="879" type="line"/>
      <point x="363" y="879" type="line"/>
      <point x="363" y="0" type="line"/>
      <point x="228" y="0" type="line"/>
      <point x="228" y="879" type="line"/>
      <point x="55" y="879" type="line"/>
      <point x="55" y="995" type="line"/>
      <point x="228" y="995" type="line"/>
      <point x="228" y="1069" type="line"/>
      <point x="228" y="1139"/>
      <point x="253" y="1241"/>
      <point x="290" y="1282" type="qcurve"/>
      <point x="330" y="1327"/>
      <point x="437" y="1355"/>
      <point x="508" y="1355" type="qcurve"/>
      <point x="635" y="1355" type="line"/>
      <point x="635" y="1240" type="line"/>
    </contour>
  </outline>
</glyph>
<glyph name="g" format="2">
  <advance width="1091"/>
  <unicode hex="0067"/>
  <outline>
    <contour>
      <point x="842" y="995" type="line"/>
      <point x="962" y="995" type="line"/>
      <point x="962" y="14" type="line"/>
      <point x="962" y="-77"/>
      <point x="951" y="-145" type="qcurve"/>
      <point x="898" y="-470"/>
      <point x="525" y="-470" type="qcurve"/>
      <point x="401" y="-470"/>
      <point x="193" y="-361"/>
      <point x="131" y="-251" type="qcurve"/>
      <point x="255" y="-183" type="line"/>
      <point x="293" y="-261"/>
      <point x="439" y="-338"/>
      <point x="525" y="-338" type="qcurve"/>
      <point x="683" y="-338"/>
      <point x="826" y="-164"/>
      <point x="826" y="10" type="qcurve"/>
      <point x="826" y="13"/>
      <point x="826" y="15" type="qcurve"/>
      <point x="826" y="118" type="line"/>
      <point x="770" y="48"/>
      <point x="614" y="-28"/>
      <point x="515" y="-28" type="qcurve"/>
      <point x="379" y="-28"/>
      <point x="179" y="109"/>
      <point x="74" y="348"/>
      <point x="74" y="499" type="qcurve"/>
      <point x="74" y="648"/>
      <point x="179" y="887"/>
      <point x="377" y="1023"/>
      <point x="509" y="1023" type="qcurve"/>
      <point x="617" y="1023"/>
      <point x="785" y="937"/>
      <point x="842" y="858" type="qcurve"/>
    </contour>
    <contour>
      <point x="529" y="99" type="qcurve"/>
      <point x="632" y="99"/>
      <point x="772" y="201"/>
      <point x="842" y="381"/>
      <point x="842" y="499" type="qcurve"/>
      <point x="842" y="617"/>
      <point x="772" y="797"/>
      <point x="633" y="896"/>
      <point x="532" y="896" type="qcurve"/>
      <point x="428" y="896"/>
      <point x="286" y="794"/>
      <point x="218" y="614"/>
      <point x="218" y="499" type="qcurve"/>
      <point x="218" y="383"/>
      <point x="289" y="202"/>
      <point x="428" y="99"/>
    </contour>
  </outline>
</glyph>
<glyph name="h" format="2">
  <advance width="1095"/>
  <unicode hex="0068"/>
  <outline>
    <contour>
      <point x="585" y="1021" type="qcurve"/>
      <point x="726" y="1021"/>
      <point x="905" y="884"/>
      <point x="985" y="669"/>
      <point x="985" y="547" type="qcurve"/>
      <point x="985" y="0" type="line"/>
      <point x="848" y="0" type="line"/>
      <point x="848" y="508" type="line"/>
      <point x="848" y="684"/>
      <point x="707" y="891"/>
      <point x="560" y="891" type="qcurve"/>
      <point x="418" y="891"/>
      <point x="265" y="701"/>
      <point x="265" y="531" type="qcurve"/>
      <point x="265" y="0" type="line"/>
      <point x="128" y="0" type="line"/>
      <point x="128" y="1328" type="line"/>
      <point x="251" y="1328" type="line"/>
      <point x="251" y="857" type="line"/>
      <point x="306" y="937"/>
      <point x="477" y="1021"/>
    </contour>
  </outline>
</glyph>
<glyph name="i" format="2">
  <advance width="430"/>
  <unicode hex="0069"/>
  <outline>
    <contour>
      <point x="253" y="1166" type="qcurve"/>
      <point x="213" y="1166"/>
      <point x="158" y="1220"/>
      <point x="158" y="1260" type="qcurve"/>
      <point x="158" y="1301"/>
      <point x="213" y="1354"/>
      <point x="253" y="1354" type="qcurve"/>
      <point x="293" y="1354"/>
      <point x="347" y="1301"/>
      <point x="347" y="1260" type="qcurve"/>
      <point x="347" y="1220"/>
      <point x="293" y="1166"/>
    </contour>
    <contour>
      <point x="185" y="0" type="line"/>
      <point x="185" y="995" type="line"/>
      <point x="320" y="995" type="line"/>
      <point x="320" y="0" type="line"/>
    </contour>
  </outline>
</glyph>
<glyph name="j" format="2">
  <advance width="462"/>
  <unicode hex="006A"/>
  <outline>
    <contour>
      <point x="253" y="1166" type="qcurve"/>
      <point x="213" y="1166"/>
      <point x="158" y="1220"/>
      <point x="158" y="1260" type="qcurve"/>
      <point x="158" y="1301"/>
      <point x="213" y="1354"/>
      <point x="253" y="1354" type="qcurve"/>
      <point x="293" y="1354"/>
      <point x="347" y="1301"/>
      <point x="347" y="1260" type="qcurve"/>
      <point x="347" y="1220"/>
      <point x="293" y="1166"/>
    </contour>
    <contour>
      <point x="-18" y="-443" type="line"/>
      <point x="-18" y="-311" type="line"/>
      <point x="38" y="-311" type="line"/>
      <point x="185" y="-311"/>
      <point x="185" y="-161" type="qcurve"/>
      <point x="185" y="995" type="line"/>
      <point x="320" y="995" type="line"/>
      <point x="320" y="-195" type="line"/>
      <point x="320" y="-320"/>
      <point x="201" y="-443"/>
      <point x="78" y="-443" type="qcurve"/>
    </contour>
  </outline>
</glyph>
<glyph name="k" format="2">
  <advance width="914"/>
  <unicode hex="006B"/>
  <outline>
    <contour>
      <point x="910" y="0" type="line"/>
      <point x="748" y="0" type="line"/>
      <point x="354" y="485" type="line"/>
      <point x="259" y="393" type="line"/>
      <point x="259" y="0" type="line"/>
      <point x="128" y="0" type="line"/>
      <point x="129" y="1328" type="line"/>
      <point x="259" y="1328" type="line"/>
      <point x="259" y="563" type="line"/>
      <point x="717" y="995" type="line"/>
      <point x="886" y="995" type="line"/>
      <point x="446" y="573" type="line"/>
    </contour>
  </outline>
</glyph>
<glyph name="l" format="2">
  <advance width="430"/>
  <unicode hex="006C"/>
  <outline>
    <contour>
      <point x="283" y="0" type="line"/>
      <point x="148" y="0" type="line"/>
      <point x="148" y="1355" type="line"/>
      <point x="283" y="1355" type="line"/>
    </contour>
  </outline>
</glyph>
<glyph name="m" format="2">
  <advance width="1563"/>
  <unicode hex="006D"/>
  <outline>
    <contour>
      <point x="1121" y="1022" type="qcurve"/>
      <point x="1221" y="1022"/>
      <point x="1372" y="938"/>
      <point x="1453" y="783"/>
      <point x="1453" y="680" type="qcurve"/>
      <point x="1452" y="0" type="line"/>
      <point x="1316" y="0" type="line"/>
      <point x="1317" y="653" type="line"/>
      <point x="1317" y="729"/>
      <point x="1259" y="841"/>
      <point x="1156" y="900"/>
      <point x="1090" y="900" type="qcurve"/>
      <point x="1030" y="900"/>
      <point x="924" y="846"/>
      <point x="858" y="730"/>
      <point x="858" y="643" type="qcurve"/>
      <point x="857" y="0" type="line"/>
      <point x="724" y="0" type="line"/>
      <point x="725" y="644" type="line"/>
      <point x="725" y="723"/>
      <point x="667" y="839"/>
      <point x="563" y="900"/>
      <point x="495" y="900" type="qcurve"/>
      <point x="427" y="900"/>
      <point x="321" y="837"/>
      <point x="265" y="720"/>
      <point x="265" y="643" type="qcurve"/>
      <point x="265" y="0" type="line"/>
      <point x="128" y="0" type="line"/>
      <point x="128" y="995" type="line"/>
      <point x="250" y="995" type="line"/>
      <point x="250" y="890" type="line"/>
      <point x="297" y="952"/>
      <point x="443" y="1022"/>
      <point x="530" y="1022" type="qcurve"/>
      <point x="628" y="1022"/>
      <point x="780" y="935"/>
      <point x="820" y="854" type="qcurve"/>
      <point x="863" y="933"/>
      <point x="1022" y="1022"/>
    </contour>
  </outline>
</glyph>
<glyph name="o" format="2">
  <advance width="1090"/>
  <unicode hex="006F"/>
  <outline>
    <contour>
      <point x="545" y="-28" type="qcurve"/>
      <point x="399" y="-28"/>
      <point x="186" y="106"/>
      <point x="74" y="344"/>
      <point x="74" y="499" type="qcurve"/>
      <point x="74" y="654"/>
      <point x="188" y="892"/>
      <point x="401" y="1023"/>
      <point x="545" y="1023" type="qcurve"/>
      <point x="691" y="1023"/>
      <point x="905" y="890"/>
      <point x="1016" y="653"/>
      <point x="1016" y="499" type="qcurve"/>
      <point x="1016" y="342"/>
      <point x="904" y="104"/>
      <point x="690" y="-28"/>
    </contour>
    <contour>
      <point x="545" y="103" type="qcurve"/>
      <point x="653" y="103"/>
      <point x="800" y="201"/>
      <point x="873" y="379"/>
      <point x="873" y="499" type="qcurve"/>
      <point x="873" y="683"/>
      <point x="706" y="893"/>
      <point x="545" y="893" type="qcurve"/>
      <point x="383" y="893"/>
      <point x="218" y="680"/>
      <point x="218" y="499" type="qcurve"/>
      <point x="218" y="378"/>
      <point x="293" y="199"/>
      <point x="438" y="103"/>
    </contour>
  </outline>
</glyph>
<glyph name="p" format="2">
  <advance width="1091"/>
  <unicode hex="0070"/>
  <outline>
    <contour>
      <point x="581" y="1023" type="qcurve"/>
      <point x="715" y="1023"/>
      <point x="913" y="887"/>
      <point x="1017" y="648"/>
      <point x="1017" y="499" type="qcurve"/>
      <point x="1017" y="348"/>
      <point x="913" y="109"/>
      <point x="713" y="-28"/>
      <point x="576" y="-28" type="qcurve"/>
      <point x="477" y="-28"/>
      <point x="320" y="49"/>
      <point x="265" y="119" type="qcurve"/>
      <point x="265" y="-443" type="line"/>
      <point x="128" y="-443" type="line"/>
      <point x="128" y="995" type="line"/>
      <point x="250" y="995" type="line"/>
      <point x="250" y="858" type="line"/>
      <point x="306" y="937"/>
      <point x="473" y="1023"/>
    </contour>
    <contour>
      <point x="563" y="99" type="qcurve"/>
      <point x="662" y="99"/>
      <point x="803" y="202"/>
      <point x="874" y="383"/>
      <point x="874" y="499" type="qcurve"/>
      <point x="874" y="614"/>
      <point x="805" y="794"/>
      <point x="662" y="896"/>
      <point x="560" y="896" type="qcurve"/>
      <point x="458" y="896"/>
      <point x="319" y="797"/>
      <point x="250" y="617"/>
      <point x="250" y="499" type="qcurve"/>
      <point x="250" y="381"/>
      <point x="319" y="201"/>
      <point x="459" y="99"/>
    </contour>
  </outline>
</glyph>
<glyph name="q" format="2">
  <advance width="1092"/>
  <unicode hex="0071"/>
  <outline>
    <contour>
      <point x="842" y="995" type="line"/>
      <point x="963" y="995" type="line"/>
      <point x="963" y="-443" type="line"/>
      <point x="827" y="-443" type="line"/>
      <point x="827" y="119" type="line"/>
      <point x="771" y="49"/>
      <point x="614" y="-28"/>
      <point x="515" y="-28" type="qcurve"/>
      <point x="379" y="-28"/>
      <point x="179" y="109"/>
      <point x="74" y="348"/>
      <point x="74" y="499" type="qcurve"/>
      <point x="74" y="648"/>
      <point x="179" y="887"/>
      <point x="377" y="1023"/>
      <point x="509" y="1023" type="qcurve"/>
      <point x="617" y="1023"/>
      <point x="785" y="937"/>
      <point x="842" y="858" type="qcurve"/>
    </contour>
    <contour>
      <point x="529" y="99" type="qcurve"/>
      <point x="632" y="99"/>
      <point x="772" y="201"/>
      <point x="842" y="381"/>
      <point x="842" y="499" type="qcurve"/>
      <point x="842" y="617"/>
      <point x="772" y="797"/>
      <point x="633" y="896"/>
      <point x="532" y="896" type="qcurve"/>
      <point x="428" y="896"/>
      <point x="286" y="794"/>
      <point x="218" y="614"/>
      <point x="218" y="499" type="qcurve"/>
      <point x="218" y="383"/>
      <point x="289" y="202"/>
      <point x="428" y="99"/>
    </contour>
  </outline>
</glyph>
<glyph name="r" format="2">
  <advance width="664"/>
  <unicode hex="0072"/>
  <outline>
    <contour>
      <point x="329" y="930" type="qcurve"/>
      <point x="370" y="967"/>
      <point x="485" y="1004"/>
      <point x="544" y="1004" type="qcurve"/>
      <point x="583" y="1004"/>
      <point x="618" y="995" type="qcurve"/>
      <point x="618" y="869" type="line"/>
      <point x="579" y="878"/>
      <point x="542" y="878" type="qcurve"/>
      <point x="446" y="878"/>
      <point x="381" y="823" type="qcurve"/>
      <point x="312" y="770"/>
      <point x="265" y="604"/>
      <point x="265" y="497" type="qcurve"/>
      <point x="265" y="0" type="line"/>
      <point x="129" y="0" type="line"/>
      <point x="129" y="995" type="line"/>
      <point x="251" y="995" type="line"/>
      <point x="251" y="838" type="line"/>
      <point x="283" y="895"/>
    </contour>
  </outline>
</glyph>
<glyph name="s" format="2">
  <advance width="968"/>
  <unicode hex="0073"/>
  <outline>
    <contour>
      <point x="500" y="-27" type="qcurve"/>
      <point x="384" y="-27"/>
      <point x="203" y="41"/>
      <point x="90" y="169"/>
      <point x="74" y="259" type="qcurve"/>
      <point x="212" y="282" type="line"/>
      <point x="233" y="196"/>
      <point x="392" y="97"/>
      <point x="508" y="97" type="qcurve"/>
      <point x="621" y="97"/>
      <point x="752" y="192"/>
      <point x="752" y="274" type="qcurve"/>
      <point x="752" y="321"/>
      <point x="708" y="378"/>
      <point x="589" y="426"/>
      <point x="457" y="462" type="qcurve"/>
      <point x="320" y="499"/>
      <point x="168" y="573"/>
      <point x="104" y="668"/>
      <point x="104" y="739" type="qcurve"/>
      <point x="104" y="823"/>
      <point x="199" y="952"/>
      <point x="371" y="1023"/>
      <point x="482" y="1023" type="qcurve"/>
      <point x="593" y="1023"/>
      <point x="772" y="950"/>
      <point x="881" y="818"/>
      <point x="891" y="733" type="qcurve"/>
      <point x="753" y="707" type="line"/>
      <point x="738" y="797"/>
      <point x="587" y="899"/>
      <point x="471" y="899" type="qcurve"/>
      <point x="404" y="899"/>
      <point x="300" y="860"/>
      <point x="241" y="791"/>
      <point x="241" y="745" type="qcurve"/>
      <point x="241" y="704"/>
      <point x="291" y="650"/>
      <point x="413" y="601"/>
      <point x="533" y="571" type="qcurve"/>
      <point x="673" y="535"/>
      <point x="827" y="458"/>
      <point x="893" y="354"/>
      <point x="893" y="275" type="qcurve"/>
      <point x="893" y="183"/>
      <point x="799" y="46"/>
      <point x="622" y="-27"/>
    </contour>
  </outline>
</glyph>
<glyph name="t" format="2">
  <advance width="738"/>
  <unicode hex="0074"/>
  <outline>
    <contour>
      <point x="366" y="879" type="line"/>
      <point x="366" y="311" type="line"/>
      <point x="366" y="266"/>
      <point x="374" y="209"/>
      <point x="386" y="187" type="qcurve"/>
      <point x="409" y="145"/>
      <point x="491" y="108"/>
      <point x="554" y="108" type="qcurve"/>
      <point x="607" y="108"/>
      <point x="671" y="119" type="qcurve"/>
      <point x="671" y="0" type="line"/>
      <point x="598" y="-14"/>
      <point x="534" y="-14" type="qcurve"/>
      <point x="438" y="-14"/>
      <point x="297" y="50"/>
      <point x="263" y="119" type="qcurve"/>
      <point x="243" y="158"/>
      <point x="231" y="241"/>
      <point x="231" y="303" type="qcurve"/>
      <point x="231" y="879" type="line"/>
      <point x="18" y="879" type="line"/>
      <point x="18" y="995" type="line"/>
      <point x="231" y="995" type="line"/>
      <point x="231" y="1272" type="line"/>
      <point x="366" y="1272" type="line"/>
      <point x="366" y="995" type="line"/>
      <point x="671" y="995" type="line"/>
      <point x="671" y="879" type="line"/>
    </contour>
  </outline>
</glyph>
<glyph name="u" format="2">
  <advance width="1095"/>
  <unicode hex="0075"/>
  <outline>
    <contour>
      <point x="831" y="995" type="line"/>
      <point x="966" y="995" type="line"/>
      <point x="966" y="0" type="line"/>
      <point x="844" y="0" type="line"/>
      <point x="844" y="139" type="line"/>
      <point x="789" y="59"/>
      <point x="617" y="-25"/>
      <point x="509" y="-25" type="qcurve"/>
      <point x="369" y="-25"/>
      <point x="190" y="112"/>
      <point x="111" y="326"/>
      <point x="111" y="448" type="qcurve"/>
      <point x="111" y="995" type="line"/>
      <point x="247" y="995" type="line"/>
      <point x="247" y="488" type="line"/>
      <point x="247" y="311"/>
      <point x="387" y="104"/>
      <point x="536" y="104" type="qcurve"/>
      <point x="678" y="104"/>
      <point x="831" y="294"/>
      <point x="831" y="464" type="qcurve"/>
    </contour>
  </outline>
</glyph>
<glyph name="v" format="2">
  <advance width="936"/>
  <unicode hex="0076"/>
  <outline>
    <contour>
      <point x="538" y="0" type="line"/>
      <point x="398" y="0" type="line"/>
      <point x="37" y="995" type="line"/>
      <point x="175" y="995" type="line"/>
      <point x="468" y="177" type="line"/>
      <point x="761" y="995" type="line"/>
      <point x="899" y="995" type="line"/>
    </contour>
  </outline>
</glyph>
<glyph name="w" format="2">
  <advance width="1415"/>
  <unicode hex="0077"/>
  <outline>
    <contour>
      <point x="459" y="0" type="line"/>
      <point x="341" y="0" type="line"/>
      <point x="37" y="996" type="line"/>
      <point x="172" y="995" type="line"/>
      <point x="409" y="222" type="line"/>
      <point x="645" y="995" type="line"/>
      <point x="769" y="995" type="line"/>
      <point x="1005" y="222" type="line"/>
      <point x="1243" y="995" type="line"/>
      <point x="1378" y="995" type="line"/>
      <point x="1074" y="0" type="line"/>
      <point x="956" y="0" type="line"/>
      <point x="707" y="793" type="line"/>
    </contour>
  </outline>
</glyph>
<glyph name="x" format="2">
  <advance width="971"/>
  <unicode hex="0078"/>
  <outline>
    <contour>
      <point x="182" y="0" type="line"/>
      <point x="18" y="0" type="line"/>
      <point x="408" y="503" type="line"/>
      <point x="27" y="995" type="line"/>
      <point x="189" y="995" type="line"/>
      <point x="487" y="608" type="line"/>
      <point x="781" y="995" type="line"/>
      <point x="944" y="995" type="line"/>
      <point x="563" y="503" type="line"/>
      <point x="953" y="0" type="line"/>
      <point x="790" y="0" type="line"/>
      <point x="487" y="399" type="line"/>
    </contour>
  </outline>
</glyph>
<glyph name="y" format="2">
  <advance width="972"/>
  <unicode hex="0079"/>
  <outline>
    <contour>
      <point x="501" y="177" type="line"/>
      <point x="803" y="995" type="line"/>
      <point x="941" y="995" type="line"/>
      <point x="407" y="-443" type="line"/>
      <point x="271" y="-443" type="line"/>
      <point x="435" y="3" type="line"/>
      <point x="31" y="995" type="line"/>
      <point x="175" y="995" type="line"/>
    </contour>
  </outline>
</glyph>
<glyph name="z" format="2">
  <advance width="976"/>
  <unicode hex="007A"/>
  <outline>
    <contour>
      <point x="868" y="0" type="line"/>
      <point x="37" y="0" type="line"/>
      <point x="37" y="29" type="line"/>
      <point x="680" y="869" type="line"/>
      <point x="85" y="869" type="line"/>
      <point x="85" y="995" type="line"/>
      <point x="902" y="995" type="line"/>
      <point x="902" y="964" type="line"/>
      <point x="261" y="126" type="line"/>
      <point x="868" y="126" type="line"/>
    </contour>
  </outline>
</glyph>
<glyph name="braceleft" format="2">
  <advance width="773"/>
  <unicode hex="007B"/>
  <outline>
    <contour>
      <point x="583" y="-401" type="line"/>
      <point x="520" y="-401"/>
      <point x="420" y="-346"/>
      <point x="364" y="-246"/>
      <point x="364" y="-184" type="qcurve"/>
      <point x="364" y="418" type="line"/>
      <point x="364" y="446"/>
      <point x="347" y="471" type="qcurve"/>
      <point x="269" y="581" type="line"/>
      <point x="257" y="599"/>
      <point x="257" y="617" type="qcurve"/>
      <point x="257" y="637"/>
      <point x="269" y="654" type="qcurve"/>
      <point x="347" y="764" type="line"/>
      <point x="364" y="791"/>
      <point x="364" y="817" type="qcurve"/>
      <point x="364" y="1418" type="line"/>
      <point x="364" y="1481"/>
      <point x="420" y="1580"/>
      <point x="520" y="1637"/>
      <point x="583" y="1637" type="qcurve"/>
      <point x="693" y="1637" type="line"/>
      <point x="693" y="1507" type="line"/>
      <point x="589" y="1507" type="line"/>
      <point x="549" y="1507"/>
      <point x="494" y="1451"/>
      <point x="494" y="1411" type="qcurve"/>
      <point x="494" y="817" type="line"/>
      <point x="494" y="746"/>
      <point x="453" y="689" type="qcurve"/>
      <point x="401" y="617" type="line"/>
      <point x="453" y="546" type="line"/>
      <point x="494" y="489"/>
      <point x="494" y="418" type="qcurve"/>
      <point x="494" y="-178" type="line"/>
      <point x="494" y="-217"/>
      <point x="549" y="-272"/>
      <point x="589" y="-272" type="qcurve"/>
      <point x="693" y="-272" type="line"/>
      <point x="693" y="-401" type="line"/>
    </contour>
  </outline>
</glyph>
<glyph name="bar" format="2">
  <advance width="467"/>
  <unicode hex="007C"/>
  <outline>
    <contour>
      <point x="302" y="0" type="line"/>
      <point x="166" y="0" type="line"/>
      <point x="166" y="1328" type="line"/>
      <point x="302" y="1328" type="line"/>
    </contour>
  </outline>
</glyph>
<glyph name="braceright" format="2">
  <advance width="773"/>
  <unicode hex="007D"/>
  <outline>
    <contour>
      <point x="80" y="-401" type="line"/>
      <point x="80" y="-272" type="line"/>
      <point x="185" y="-272" type="line"/>
      <point x="224" y="-272"/>
      <point x="279" y="-217"/>
      <point x="279" y="-178" type="qcurve"/>
      <point x="279" y="418" type="line"/>
      <point x="279" y="489"/>
      <point x="320" y="546" type="qcurve"/>
      <point x="372" y="617" type="line"/>
      <point x="320" y="689" type="line"/>
      <point x="279" y="746"/>
      <point x="279" y="817" type="qcurve"/>
      <point x="279" y="1411" type="line"/>
      <point x="279" y="1451"/>
      <point x="224" y="1507"/>
      <point x="185" y="1507" type="qcurve"/>
      <point x="80" y="1507" type="line"/>
      <point x="80" y="1637" type="line"/>
      <point x="190" y="1637" type="line"/>
      <point x="254" y="1637"/>
      <point x="353" y="1580"/>
      <point x="410" y="1481"/>
      <point x="410" y="1418" type="qcurve"/>
      <point x="410" y="817" type="line"/>
      <point x="410" y="791"/>
      <point x="426" y="764" type="qcurve"/>
      <point x="504" y="654" type="line"/>
      <point x="516" y="639"/>
      <point x="516" y="617" type="qcurve"/>
      <point x="516" y="597"/>
      <point x="504" y="581" type="qcurve"/>
      <point x="426" y="471" type="line"/>
      <point x="410" y="446"/>
      <point x="410" y="418" type="qcurve"/>
      <point x="410" y="-184" type="line"/>
      <point x="410" y="-246"/>
      <point x="353" y="-346"/>
      <point x="254" y="-401"/>
      <point x="190" y="-401" type="qcurve"/>
    </contour>
  </outline>
</glyph>
<glyph name="asciitilde" format="2">
  <advance width="1220"/>
  <unicode hex="007E"/>
  <outline>
    <contour>
      <point x="805" y="429" type="qcurve"/>
      <point x="752" y="429"/>
      <point x="653" y="472"/>
      <point x="581" y="512" type="qcurve"/>
      <point x="527" y="545"/>
      <point x="455" y="577"/>
      <point x="423" y="577" type="qcurve"/>
      <point x="387" y="577"/>
      <point x="351" y="532"/>
      <point x="351" y="497" type="qcurve"/>
      <point x="351" y="475"/>
      <point x="358" y="451" type="qcurve"/>
      <point x="224" y="451" type="line"/>
      <point x="214" y="489"/>
      <point x="214" y="529" type="qcurve"/>
      <point x="214" y="587"/>
      <point x="262" y="679"/>
      <point x="352" y="730"/>
      <point x="414" y="730" type="qcurve"/>
      <point x="467" y="730"/>
      <point x="569" y="687"/>
      <point x="640" y="646" type="qcurve"/>
      <point x="695" y="614"/>
      <point x="766" y="582"/>
      <point x="797" y="582" type="qcurve"/>
      <point x="832" y="582"/>
      <point x="869" y="627"/>
      <point x="869" y="663" type="qcurve"/>
      <point x="869" y="687"/>
      <point x="860" y="712" type="qcurve"/>
      <point x="996" y="712" type="line"/>
      <point x="1006" y="669"/>
      <point x="1006" y="633" type="qcurve"/>
      <point x="1006" y="574"/>
      <point x="959" y="482"/>
      <point x="868" y="429"/>
    </contour>
  </outline>
</glyph>
<glyph name="cent" format="2">
  <advance width="1021"/>
  <unicode hex="00A2"/>
  <outline>
    <contour>
      <point x="490" y="113" type="line"/>
      <point x="357" y="125"/>
      <point x="172" y="263"/>
      <point x="76" y="491"/>
      <point x="74" y="636" type="qcurve"/>
      <point x="76" y="783"/>
      <point x="174" y="1010"/>
      <point x="358" y="1146"/>
      <point x="490" y="1157" type="qcurve"/>
      <point x="490" y="1328" type="line"/>
      <point x="606" y="1328" type="line"/>
      <point x="606" y="1157" type="line"/>
      <point x="734" y="1142"/>
      <point x="922" y="1000"/>
      <point x="959" y="886" type="qcurve"/>
      <point x="827" y="843" type="line"/>
      <point x="792" y="932"/>
      <point x="640" y="1031"/>
      <point x="542" y="1031" type="qcurve"/>
      <point x="383" y="1031"/>
      <point x="220" y="817"/>
      <point x="218" y="636" type="qcurve"/>
      <point x="220" y="453"/>
      <point x="385" y="240"/>
      <point x="542" y="240" type="qcurve"/>
      <point x="644" y="240"/>
      <point x="786" y="334"/>
      <point x="823" y="423" type="qcurve"/>
      <point x="959" y="383" type="line"/>
      <point x="908" y="265"/>
      <point x="728" y="129"/>
      <point x="606" y="115" type="qcurve"/>
      <point x="606" y="-54" type="line"/>
      <point x="490" y="-54" type="line"/>
    </contour>
  </outline>
</glyph>
<glyph name="dieresis" format="2">
  <advance width="721"/>
  <unicode hex="00A8"/>
  <outline>
    <contour>
      <point x="269" y="1136" type="qcurve"/>
      <point x="269" y="1084"/>
      <point x="210" y="1012"/>
      <point x="166" y="1012" type="qcurve"/>
      <point x="90" y="1012"/>
      <point x="90" y="1099" type="qcurve"/>
      <point x="90" y="1150"/>
      <point x="151" y="1220"/>
      <point x="194" y="1220" type="qcurve"/>
      <point x="269" y="1220"/>
    </contour>
    <contour>
      <point x="630" y="1136" type="qcurve"/>
      <point x="630" y="1084"/>
      <point x="570" y="1012"/>
      <point x="526" y="1012" type="qcurve"/>
      <point x="450" y="1012"/>
      <point x="450" y="1099" type="qcurve"/>
      <point x="450" y="1150"/>
      <point x="510" y="1220"/>
      <point x="553" y="1220" type="qcurve"/>
      <point x="630" y="1220"/>
    </contour>
  </outline>
</glyph>
<glyph name="acute" format="2">
  <advance width="626"/>
  <unicode hex="00B4"/>
  <outline>
    <contour>
      <point x="251" y="957" type="line"/>
      <point x="176" y="957" type="line"/>
      <point x="454" y="1237" type="line"/>
      <point x="496" y="1279"/>
      <point x="533" y="1279" type="qcurve"/>
      <point x="596" y="1279"/>
      <point x="598" y="1220" type="qcurve"/>
      <point x="598" y="1176"/>
      <point x="542" y="1139" type="qcurve"/>
    </contour>
  </outline>
</glyph>
<glyph name="periodcentered" format="2">
  <advance width="269"/>
  <unicode hex="00B7"/>
  <outline>
    <contour>
      <point x="225" y="649" type="qcurve"/>
      <point x="225" y="598"/>
      <point x="166" y="526"/>
      <point x="120" y="526" type="qcurve"/>
      <point x="44" y="526"/>
      <point x="44" y="612" type="qcurve"/>
      <point x="44" y="663"/>
      <point x="107" y="734"/>
      <point x="149" y="734" type="qcurve"/>
      <point x="225" y="734"/>
    </contour>
  </outline>
</glyph>
<glyph name="cedilla" format="2">
  <advance width="422"/>
  <unicode hex="00B8"/>
  <outline>
    <contour>
      <point x="367" y="-206" type="qcurve"/>
      <point x="367" y="-273"/>
      <point x="239" y="-378"/>
      <point x="90" y="-400" type="qcurve"/>
      <point x="70" y="-356" type="line"/>
      <point x="164" y="-339"/>
      <point x="243" y="-278"/>
      <point x="243" y="-248" type="qcurve"/>
      <point x="243" y="-218"/>
      <point x="195" y="-194"/>
      <point x="140" y="-188" type="qcurve"/>
      <point x="149" y="-162" type="line"/>
      <point x="157" y="-142"/>
      <point x="181" y="-65"/>
      <point x="206" y="13" type="qcurve"/>
      <point x="276" y="11" type="line"/>
      <point x="241" y="-94" type="line"/>
      <point x="290" y="-104"/>
      <point x="367" y="-155"/>
    </contour>
  </outline>
</glyph>
<glyph name="questiondown" format="2">
  <advance width="1073"/>
  <unicode hex="00BF"/>
  <outline>
    <contour>
      <point x="560" y="1486" type="qcurve"/>
      <point x="604" y="1486"/>
      <point x="665" y="1426"/>
      <point x="665" y="1382" type="qcurve"/>
      <point x="665" y="1338"/>
      <point x="605" y="1278"/>
      <point x="560" y="1278" type="qcurve"/>
      <point x="516" y="1278"/>
      <point x="456" y="1338"/>
      <point x="456" y="1382" type="qcurve"/>
      <point x="456" y="1426"/>
      <point x="516" y="1486"/>
    </contour>
    <contour>
      <point x="640" y="1072" type="line"/>
      <point x="640" y="980"/>
      <point x="623" y="865"/>
      <point x="592" y="809" type="qcurve"/>
      <point x="567" y="761"/>
      <point x="497" y="693"/>
      <point x="438" y="650" type="qcurve"/>
      <point x="432" y="646"/>
      <point x="384" y="610"/>
      <point x="344" y="575"/>
      <point x="329" y="558" type="qcurve"/>
      <point x="292" y="515"/>
      <point x="262" y="422"/>
      <point x="262" y="366" type="qcurve"/>
      <point x="262" y="262"/>
      <point x="314" y="202" type="qcurve"/>
      <point x="388" y="115"/>
      <point x="539" y="115" type="qcurve"/>
      <point x="604" y="115"/>
      <point x="714" y="152"/>
      <point x="749" y="187" type="qcurve"/>
      <point x="782" y="219"/>
      <point x="814" y="307"/>
      <point x="814" y="358" type="qcurve"/>
      <point x="814" y="361"/>
      <point x="814" y="364" type="qcurve"/>
      <point x="970" y="364" type="line"/>
      <point x="966" y="279"/>
      <point x="901" y="126"/>
      <point x="843" y="76" type="qcurve"/>
      <point x="785" y="24"/>
      <point x="626" y="-30"/>
      <point x="540" y="-30" type="qcurve"/>
      <point x="434" y="-30"/>
      <point x="257" y="35"/>
      <point x="198" y="101" type="qcurve"/>
      <point x="150" y="154"/>
      <point x="102" y="287"/>
      <point x="102" y="364" type="qcurve"/>
      <point x="102" y="446"/>
      <point x="166" y="597"/>
      <point x="223" y="656" type="qcurve"/>
      <point x="252" y="687"/>
      <point x="322" y="740" type="qcurve"/>
      <point x="373" y="780"/>
      <point x="432" y="836"/>
      <point x="450" y="867" type="qcurve"/>
      <point x="469" y="903"/>
      <point x="480" y="969"/>
      <point x="480" y="1018" type="qcurve"/>
      <point x="480" y="1072" type="line"/>
    </contour>
  </outline>
</glyph>
<glyph name="multiply" format="2">
  <advance width="756"/>
  <unicode hex="00D7"/>
  <outline>
    <contour>
      <point x="671" y="253" type="line"/>
      <point x="653" y="243"/>
      <point x="605" y="229"/>
      <point x="588" y="225" type="qcurve"/>
      <point x="378" y="436" type="line"/>
      <point x="167" y="225" type="line"/>
      <point x="151" y="229"/>
      <point x="104" y="243"/>
      <point x="83" y="253" type="qcurve"/>
      <point x="83" y="282" type="line"/>
      <point x="307" y="506" type="line"/>
      <point x="85" y="728" type="line"/>
      <point x="85" y="758" type="line"/>
      <point x="125" y="776"/>
      <point x="167" y="785" type="qcurve"/>
      <point x="377" y="576" type="line"/>
      <point x="586" y="785" type="line"/>
      <point x="630" y="776"/>
      <point x="671" y="758" type="qcurve"/>
      <point x="671" y="728" type="line"/>
      <point x="447" y="505" type="line"/>
      <point x="671" y="282" type="line"/>
    </contour>
  </outline>
</glyph>
<glyph name="divide" format="2">
  <advance width="756"/>
  <unicode hex="00F7"/>
  <outline>
    <contour>
      <point x="450" y="737" type="qcurve"/>
      <point x="450" y="698"/>
      <point x="401" y="640"/>
      <point x="367" y="640" type="qcurve"/>
      <point x="306" y="640"/>
      <point x="306" y="709" type="qcurve"/>
      <point x="306" y="751"/>
      <point x="354" y="806"/>
      <point x="389" y="806" type="qcurve"/>
      <point x="450" y="806"/>
    </contour>
    <contour>
      <point x="700" y="535" type="line"/>
      <point x="697" y="516"/>
      <point x="680" y="470"/>
      <point x="673" y="455" type="qcurve"/>
      <point x="77" y="455" type="line"/>
      <point x="55" y="477" type="line"/>
      <point x="65" y="516"/>
      <point x="83" y="556" type="qcurve"/>
      <point x="679" y="556" type="line"/>
    </contour>
    <contour>
      <point x="450" y="306" type="qcurve"/>
      <point x="450" y="266"/>
      <point x="401" y="208"/>
      <point x="367" y="208" type="qcurve"/>
      <point x="306" y="208"/>
      <point x="306" y="276" type="qcurve"/>
      <point x="306" y="319"/>
      <point x="354" y="374"/>
      <point x="389" y="374" type="qcurve"/>
      <point x="450" y="374"/>
    </contour>
  </outline>
</glyph>
<glyph name="circumflexmod" format="2">
  <advance width="733"/>
  <unicode hex="02C6"/>
  <outline>
    <contour>
      <point x="682" y="1092" type="line"/>
      <point x="670" y="1073"/>
      <point x="655" y="1055"/>
      <point x="639" y="1047" type="qcurve"/>
      <point x="365" y="1315" type="line"/>
      <point x="94" y="1047" type="line"/>
      <point x="78" y="1055"/>
      <point x="63" y="1073"/>
      <point x="49" y="1092" type="qcurve"/>
      <point x="313" y="1470" type="line"/>
      <point x="420" y="1470" type="line"/>
    </contour>
  </outline>
</glyph>
<glyph name="caronmod" format="2">
  <advance width="733"/>
  <unicode hex="02C7"/>
  <outline>
    <contour>
      <point x="422" y="1071" type="line"/>
      <point x="313" y="1071" type="line"/>
      <point x="49" y="1427" type="line"/>
      <point x="66" y="1448"/>
      <point x="78" y="1464"/>
      <point x="94" y="1475" type="qcurve"/>
      <point x="371" y="1225" type="line"/>
      <point x="639" y="1475" type="line"/>
      <point x="657" y="1464"/>
      <point x="672" y="1448"/>
      <point x="682" y="1427" type="qcurve"/>
    </contour>
  </outline>
</glyph>
<glyph name="ringmod" format="2">
  <advance width="512"/>
  <unicode hex="02DA"/>
  <outline>
    <contour>
      <point x="442" y="1284" type="qcurve"/>
      <point x="442" y="1233"/>
      <point x="403" y="1147"/>
      <point x="340" y="1085"/>
      <point x="262" y="1051"/>
      <point x="225" y="1051" type="qcurve"/>
      <point x="158" y="1051"/>
      <point x="70" y="1141"/>
      <point x="70" y="1204" type="qcurve"/>
      <point x="70" y="1255"/>
      <point x="109" y="1341"/>
      <point x="170" y="1405"/>
      <point x="248" y="1440"/>
      <point x="287" y="1440" type="qcurve"/>
      <point x="352" y="1440"/>
      <point x="442" y="1348"/>
    </contour>
    <contour>
      <point x="352" y="1243" type="qcurve"/>
      <point x="352" y="1290"/>
      <point x="307" y="1364"/>
      <point x="266" y="1364" type="qcurve"/>
      <point x="225" y="1364"/>
      <point x="160" y="1298"/>
      <point x="160" y="1245" type="qcurve"/>
      <point x="160" y="1198"/>
      <point x="205" y="1126"/>
      <point x="246" y="1126" type="qcurve"/>
      <point x="287" y="1126"/>
      <point x="352" y="1186"/>
    </contour>
  </outline>
</glyph>
<glyph name="devanagaridanda" format="2">
  <advance width="529"/>
  <unicode hex="0964"/>
  <outline>
    <contour>
      <point x="422" y="75" type="line"/>
      <point x="422" y="75" type="line"/>
      <point x="422" y="1195" type="line"/>
      <point x="293" y="1195" type="line"/>
      <point x="293" y="75" type="line"/>
    </contour>
  </outline>
</glyph>
<glyph name="devanagaridoubledanda" format="2">
  <advance width="1139"/>
  <unicode hex="0965"/>
  <outline>
    <contour>
      <point x="504" y="217" type="line"/>
      <point x="504" y="1167" type="line"/>
      <point x="627" y="1051" type="line"/>
      <point x="627" y="98" type="line"/>
    </contour>
    <contour>
      <point x="852" y="217" type="line"/>
      <point x="852" y="1167" type="line"/>
      <point x="975" y="1051" type="line"/>
      <point x="975" y="98" type="line"/>
    </contour>
  </outline>
</glyph>
<glyph name="signcandrabinducomb-bng2" format="2">
  <advance width="2"/>
  <unicode hex="0981"/>
  <anchor x="-223" y="1431" name="Anchor_up"/>
  <anchor x="-336" y="1363" name="Anchor_Up_ex"/>
  <outline>
    <contour>
      <point x="-243" y="1532" type="curve"/>
      <point x="-243" y="1532" type="line"/>
      <point x="-104" y="1532"/>
      <point x="21" y="1634"/>
      <point x="44" y="1772" type="curve"/>
      <point x="-79" y="1792" type="line"/>
      <point x="-92" y="1710"/>
      <point x="-175" y="1649"/>
      <point x="-259" y="1657" type="curve"/>
      <point x="-328" y="1664"/>
      <point x="-385" y="1716"/>
      <point x="-399" y="1784" type="curve"/>
      <point x="-521" y="1759" type="line"/>
      <point x="-497" y="1639"/>
      <point x="-395" y="1546"/>
      <point x="-272" y="1533" type="curve"/>
      <point x="-262" y="1532"/>
      <point x="-252" y="1532"/>
    </contour>
    <contour>
      <point x="-239" y="1722" type="curve"/>
      <point x="-239" y="1722" type="line"/>
      <point x="-189" y="1722"/>
      <point x="-148" y="1763"/>
      <point x="-148" y="1813" type="curve"/>
      <point x="-148" y="1863"/>
      <point x="-189" y="1904"/>
      <point x="-239" y="1904" type="curve"/>
      <point x="-289" y="1904"/>
      <point x="-330" y="1863"/>
      <point x="-330" y="1813" type="curve"/>
      <point x="-330" y="1763"/>
      <point x="-289" y="1722"/>
    </contour>
  </outline>
</glyph>
<glyph name="signanusvara-bng2" format="2">
  <advance width="784"/>
  <unicode hex="0982"/>
  <outline>
    <contour>
      <point x="548" y="50" type="curve"/>
      <point x="548" y="50" type="line"/>
      <point x="663" y="108" type="line"/>
      <point x="593" y="247"/>
      <point x="503" y="373"/>
      <point x="394" y="481" type="curve"/>
      <point x="321" y="554"/>
      <point x="240" y="619"/>
      <point x="154" y="675" type="curve"/>
      <point x="84" y="566" type="line"/>
      <point x="163" y="515"/>
      <point x="237" y="456"/>
      <point x="303" y="390" type="curve"/>
      <point x="402" y="291"/>
      <point x="484" y="177"/>
    </contour>
    <contour>
      <point x="383" y="714" type="curve"/>
      <point x="383" y="714" type="line"/>
      <point x="427" y="714"/>
      <point x="471" y="726"/>
      <point x="510" y="751" type="curve"/>
      <point x="575" y="792"/>
      <point x="622" y="861"/>
      <point x="641" y="942" type="curve"/>
      <point x="641" y="942" type="line"/>
      <point x="675" y="1095"/>
      <point x="594" y="1245"/>
      <point x="460" y="1276" type="curve"/>
      <point x="401" y="1290"/>
      <point x="338" y="1278"/>
      <point x="284" y="1244" type="curve"/>
      <point x="219" y="1203"/>
      <point x="172" y="1134"/>
      <point x="153" y="1053" type="curve"/>
      <point x="119" y="900"/>
      <point x="200" y="750"/>
      <point x="334" y="719" type="curve"/>
      <point x="350" y="715"/>
      <point x="367" y="714"/>
    </contour>
    <contour>
      <point x="410" y="1153" type="curve"/>
      <point x="410" y="1153" type="line"/>
      <point x="417" y="1153"/>
      <point x="424" y="1152"/>
      <point x="431" y="1150" type="curve"/>
      <point x="496" y="1135"/>
      <point x="534" y="1055"/>
      <point x="515" y="970" type="curve"/>
      <point x="515" y="970" type="line"/>
      <point x="504" y="923"/>
      <point x="477" y="883"/>
      <point x="441" y="860" type="curve"/>
      <point x="424" y="849"/>
      <point x="396" y="838"/>
      <point x="363" y="845" type="curve"/>
      <point x="298" y="860"/>
      <point x="260" y="941"/>
      <point x="279" y="1025" type="curve"/>
      <point x="290" y="1072"/>
      <point x="317" y="1112"/>
      <point x="353" y="1135" type="curve"/>
      <point x="366" y="1144"/>
      <point x="387" y="1153"/>
    </contour>
  </outline>
</glyph>
<glyph name="signvisarga-bng2" format="2">
  <advance width="722"/>
  <unicode hex="0983"/>
  <outline>
    <contour>
      <point x="323" y="675" type="curve"/>
      <point x="323" y="675" type="line"/>
      <point x="365" y="675"/>
      <point x="407" y="688"/>
      <point x="444" y="711" type="curve"/>
      <point x="506" y="750"/>
      <point x="551" y="816"/>
      <point x="568" y="892" type="curve"/>
      <point x="568" y="892" type="line"/>
      <point x="601" y="1038"/>
      <point x="524" y="1181"/>
      <point x="396" y="1210" type="curve"/>
      <point x="339" y="1223"/>
      <point x="280" y="1213"/>
      <point x="228" y="1180" type="curve"/>
      <point x="166" y="1141"/>
      <point x="121" y="1075"/>
      <point x="104" y="999" type="curve"/>
      <point x="71" y="853"/>
      <point x="148" y="710"/>
      <point x="276" y="681" type="curve"/>
      <point x="291" y="677"/>
      <point x="307" y="675"/>
    </contour>
    <contour>
      <point x="348" y="1087" type="curve"/>
      <point x="348" y="1087" type="line"/>
      <point x="354" y="1087"/>
      <point x="361" y="1086"/>
      <point x="367" y="1085" type="curve"/>
      <point x="425" y="1071"/>
      <point x="459" y="996"/>
      <point x="442" y="921" type="curve"/>
      <point x="442" y="921" type="line"/>
      <point x="432" y="878"/>
      <point x="408" y="841"/>
      <point x="375" y="820" type="curve"/>
      <point x="359" y="810"/>
      <point x="334" y="800"/>
      <point x="305" y="807" type="curve"/>
      <point x="247" y="820"/>
      <point x="213" y="895"/>
      <point x="230" y="970" type="curve"/>
      <point x="239" y="1013"/>
      <point x="264" y="1050"/>
      <point x="296" y="1071" type="curve"/>
      <point x="309" y="1078"/>
      <point x="327" y="1087"/>
    </contour>
    <contour>
      <point x="323" y="54" type="curve"/>
      <point x="323" y="54" type="line"/>
      <point x="365" y="54"/>
      <point x="407" y="66"/>
      <point x="444" y="90" type="curve"/>
      <point x="506" y="129"/>
      <point x="551" y="195"/>
      <point x="568" y="271" type="curve"/>
      <point x="568" y="271" type="line"/>
      <point x="601" y="417"/>
      <point x="524" y="560"/>
      <point x="396" y="589" type="curve"/>
      <point x="339" y="602"/>
      <point x="280" y="591"/>
      <point x="228" y="559" type="curve"/>
      <point x="166" y="520"/>
      <point x="121" y="454"/>
      <point x="104" y="378" type="curve"/>
      <point x="71" y="232"/>
      <point x="148" y="89"/>
      <point x="276" y="60" type="curve"/>
      <point x="291" y="56"/>
      <point x="307" y="54"/>
    </contour>
    <contour>
      <point x="348" y="466" type="curve"/>
      <point x="348" y="466" type="line"/>
      <point x="354" y="466"/>
      <point x="361" y="465"/>
      <point x="367" y="463" type="curve"/>
      <point x="425" y="450"/>
      <point x="459" y="375"/>
      <point x="442" y="300" type="curve"/>
      <point x="442" y="300" type="line"/>
      <point x="432" y="257"/>
      <point x="408" y="220"/>
      <point x="375" y="199" type="curve"/>
      <point x="359" y="189"/>
      <point x="334" y="179"/>
      <point x="305" y="185" type="curve"/>
      <point x="247" y="199"/>
      <point x="213" y="274"/>
      <point x="230" y="349" type="curve"/>
      <point x="239" y="392"/>
      <point x="264" y="429"/>
      <point x="296" y="450" type="curve"/>
      <point x="309" y="457"/>
      <point x="327" y="466"/>
    </contour>
  </outline>
</glyph>
<glyph name="a-bng2" format="2">
  <advance width="1625"/>
  <unicode hex="0985"/>
  <outline>
    <contour>
      <point x="744" y="242" type="curve"/>
      <point x="744" y="242" type="line"/>
      <point x="804" y="242"/>
      <point x="905" y="253"/>
      <point x="994" y="319" type="curve"/>
      <point x="1144" y="430"/>
      <point x="1149" y="616"/>
      <point x="1151" y="677" type="curve"/>
      <point x="1155" y="847"/>
      <point x="1088" y="1051"/>
      <point x="927" y="1122" type="curve"/>
      <point x="866" y="1149"/>
      <point x="805" y="1157"/>
      <point x="745" y="1144" type="curve"/>
      <point x="719" y="1138"/>
      <point x="628" y="1113"/>
      <point x="573" y="1026" type="curve"/>
      <point x="495" y="903"/>
      <point x="559" y="776"/>
      <point x="566" y="761" type="curve"/>
      <point x="680" y="822" type="line"/>
      <point x="679" y="825"/>
      <point x="643" y="895"/>
      <point x="682" y="957" type="curve"/>
      <point x="711" y="1002"/>
      <point x="762" y="1015"/>
      <point x="772" y="1017" type="curve"/>
      <point x="805" y="1024"/>
      <point x="839" y="1020"/>
      <point x="875" y="1004" type="curve"/>
      <point x="988" y="954"/>
      <point x="1024" y="783"/>
      <point x="1022" y="681" type="curve"/>
      <point x="1020" y="630"/>
      <point x="1017" y="497"/>
      <point x="917" y="422" type="curve"/>
      <point x="839" y="365"/>
      <point x="743" y="369"/>
      <point x="716" y="372" type="curve"/>
      <point x="524" y="391"/>
      <point x="338" y="673"/>
      <point x="262" y="1056" type="curve"/>
      <point x="135" y="1031" type="line"/>
      <point x="225" y="578"/>
      <point x="447" y="269"/>
      <point x="703" y="244" type="curve"/>
      <point x="712" y="243"/>
      <point x="726" y="242"/>
    </contour>
    <contour>
      <point x="1364" y="149" type="curve"/>
      <point x="1364" y="149" type="line"/>
      <point x="1470" y="223" type="line"/>
      <point x="1418" y="296"/>
      <point x="1358" y="363"/>
      <point x="1291" y="421" type="curve"/>
      <point x="1237" y="467"/>
      <point x="1180" y="508"/>
      <point x="1119" y="542" type="curve"/>
      <point x="1055" y="430" type="line"/>
      <point x="1109" y="400"/>
      <point x="1160" y="364"/>
      <point x="1206" y="324" type="curve"/>
      <point x="1266" y="272"/>
      <point x="1319" y="214"/>
    </contour>
    <contour>
      <point x="1481" y="0" type="line"/>
      <point x="1481" y="0" type="line"/>
      <point x="1481" y="1402" type="line"/>
      <point x="1352" y="1402" type="line"/>
      <point x="1352" y="0" type="line"/>
    </contour>
    <contour>
      <point x="1620" y="1276" type="line"/>
      <point x="1620" y="1276" type="line"/>
      <point x="1620" y="1405" type="line"/>
      <point x="0" y="1405" type="line"/>
      <point x="0" y="1276" type="line"/>
    </contour>
  </outline>
</glyph>
<glyph name="aa-bng2" format="2">
  <advance width="1957"/>
  <unicode hex="0986"/>
  <outline>
    <contour>
      <point x="684" y="242" type="curve"/>
      <point x="684" y="242" type="line"/>
      <point x="744" y="242"/>
      <point x="845" y="253"/>
      <point x="934" y="319" type="curve"/>
      <point x="1084" y="430"/>
      <point x="1089" y="616"/>
      <point x="1091" y="677" type="curve"/>
      <point x="1095" y="847"/>
      <point x="1028" y="1051"/>
      <point x="867" y="1122" type="curve"/>
      <point x="806" y="1149"/>
      <point x="745" y="1157"/>
      <point x="685" y="1144" type="curve"/>
      <point x="659" y="1138"/>
      <point x="568" y="1113"/>
      <point x="513" y="1026" type="curve"/>
      <point x="435" y="903"/>
      <point x="499" y="776"/>
      <point x="506" y="761" type="curve"/>
      <point x="620" y="822" type="line"/>
      <point x="619" y="825"/>
      <point x="583" y="895"/>
      <point x="622" y="957" type="curve"/>
      <point x="651" y="1002"/>
      <point x="702" y="1015"/>
      <point x="712" y="1017" type="curve"/>
      <point x="745" y="1024"/>
      <point x="779" y="1020"/>
      <point x="815" y="1004" type="curve"/>
      <point x="928" y="954"/>
      <point x="964" y="783"/>
      <point x="962" y="681" type="curve"/>
      <point x="960" y="630"/>
      <point x="957" y="497"/>
      <point x="857" y="422" type="curve"/>
      <point x="779" y="365"/>
      <point x="683" y="369"/>
      <point x="656" y="372" type="curve"/>
      <point x="464" y="391"/>
      <point x="278" y="673"/>
      <point x="202" y="1056" type="curve"/>
      <point x="75" y="1031" type="line"/>
      <point x="165" y="578"/>
      <point x="387" y="269"/>
      <point x="643" y="244" type="curve"/>
      <point x="652" y="243"/>
      <point x="666" y="242"/>
    </contour>
    <contour>
      <point x="1304" y="149" type="curve"/>
      <point x="1304" y="149" type="line"/>
      <point x="1410" y="223" type="line"/>
      <point x="1358" y="296"/>
      <point x="1298" y="363"/>
      <point x="1231" y="421" type="curve"/>
      <point x="1177" y="467"/>
      <point x="1120" y="508"/>
      <point x="1059" y="542" type="curve"/>
      <point x="995" y="430" type="line"/>
      <point x="1049" y="400"/>
      <point x="1100" y="364"/>
      <point x="1146" y="324" type="curve"/>
      <point x="1206" y="272"/>
      <point x="1259" y="214"/>
    </contour>
    <contour>
      <point x="1421" y="0" type="line"/>
      <point x="1421" y="0" type="line"/>
      <point x="1421" y="1402" type="line"/>
      <point x="1292" y="1402" type="line"/>
      <point x="1292" y="0" type="line"/>
    </contour>
    <contour>
      <point x="1400" y="1276" type="line"/>
      <point x="1400" y="1276" type="line"/>
      <point x="1400" y="1405" type="line"/>
      <point x="-31" y="1405" type="line"/>
      <point x="-31" y="1276" type="line"/>
    </contour>
    <contour>
      <point x="1988" y="1276" type="line"/>
      <point x="1988" y="1276" type="line"/>
      <point x="1988" y="1405" type="line"/>
      <point x="1762" y="1405" type="line"/>
      <point x="1762" y="1276" type="line"/>
    </contour>
    <contour>
      <point x="1854" y="0" type="line"/>
      <point x="1854" y="0" type="line"/>
      <point x="1854" y="1509" type="line"/>
      <point x="1725" y="1509" type="line"/>
      <point x="1725" y="0" type="line"/>
    </contour>
    <contour>
      <point x="1728" y="958" type="curve"/>
      <point x="1728" y="958" type="line"/>
      <point x="1851" y="999" type="line"/>
      <point x="1748" y="1304"/>
      <point x="1551" y="1377"/>
      <point x="1486" y="1401" type="curve"/>
      <point x="1475" y="1405" type="line"/>
      <point x="1392" y="1405" type="line"/>
      <point x="1392" y="1276" type="line"/>
      <point x="1452" y="1276" type="line"/>
      <point x="1539" y="1242"/>
      <point x="1657" y="1170"/>
    </contour>
  </outline>
</glyph>
<glyph name="i-bng2" format="2">
  <advance width="1013"/>
  <unicode hex="0987"/>
  <outline>
    <contour>
      <point x="950" y="1302" type="line"/>
      <point x="950" y="1302" type="line"/>
      <point x="971" y="1453"/>
      <point x="949" y="1559"/>
      <point x="884" y="1627" type="curve"/>
      <point x="786" y="1727"/>
      <point x="625" y="1709"/>
      <point x="483" y="1693" type="curve"/>
      <point x="399" y="1684"/>
      <point x="304" y="1673"/>
      <point x="268" y="1697" type="curve"/>
      <point x="174" y="1762"/>
      <point x="217" y="1905"/>
      <point x="217" y="1907" type="curve"/>
      <point x="99" y="1959" type="line"/>
      <point x="83" y="1923"/>
      <point x="31" y="1703"/>
      <point x="195" y="1591" type="curve"/>
      <point x="270" y="1540"/>
      <point x="381" y="1552"/>
      <point x="497" y="1565" type="curve"/>
      <point x="610" y="1578"/>
      <point x="738" y="1592"/>
      <point x="791" y="1537" type="curve"/>
      <point x="827" y="1500"/>
      <point x="837" y="1427"/>
      <point x="822" y="1320" type="curve"/>
    </contour>
    <contour>
      <point x="800" y="-74" type="curve"/>
      <point x="800" y="-74" type="line"/>
      <point x="902" y="6" type="line"/>
      <point x="792" y="146"/>
      <point x="660" y="266"/>
      <point x="511" y="361" type="curve"/>
      <point x="399" y="433"/>
      <point x="278" y="490"/>
      <point x="152" y="531" type="curve"/>
      <point x="112" y="408" type="line"/>
      <point x="228" y="370"/>
      <point x="339" y="318"/>
      <point x="441" y="252" type="curve"/>
      <point x="578" y="165"/>
      <point x="699" y="55"/>
    </contour>
    <contour>
      <point x="152" y="402" type="line"/>
      <point x="152" y="402" type="line"/>
      <point x="335" y="402"/>
      <point x="484" y="428"/>
      <point x="595" y="479" type="curve"/>
      <point x="708" y="530"/>
      <point x="787" y="633"/>
      <point x="805" y="753" type="curve"/>
      <point x="823" y="868"/>
      <point x="783" y="979"/>
      <point x="697" y="1057" type="curve"/>
      <point x="622" y="1125"/>
      <point x="535" y="1134"/>
      <point x="452" y="1134" type="curve"/>
      <point x="326" y="1134"/>
      <point x="248" y="1056"/>
      <point x="227" y="1032" type="curve"/>
      <point x="159" y="954"/>
      <point x="152" y="864"/>
      <point x="152" y="829" type="curve"/>
      <point x="281" y="830" type="line"/>
      <point x="281" y="850"/>
      <point x="285" y="902"/>
      <point x="324" y="947" type="curve"/>
      <point x="329" y="953"/>
      <point x="377" y="1005"/>
      <point x="452" y="1005" type="curve"/>
      <point x="532" y="1005"/>
      <point x="575" y="993"/>
      <point x="610" y="962" type="curve"/>
      <point x="664" y="913"/>
      <point x="689" y="844"/>
      <point x="678" y="772" type="curve"/>
      <point x="666" y="696"/>
      <point x="615" y="630"/>
      <point x="541" y="596" type="curve"/>
      <point x="447" y="553"/>
      <point x="316" y="531"/>
      <point x="152" y="531" type="curve"/>
    </contour>
    <contour>
      <point x="1028" y="1275" type="line"/>
      <point x="1028" y="1275" type="line"/>
      <point x="1028" y="1405" type="line"/>
      <point x="-19" y="1405" type="line"/>
      <point x="-19" y="1275" type="line"/>
    </contour>
  </outline>
</glyph>
<glyph name="ii-bng2" format="2">
  <advance width="1237"/>
  <unicode hex="0988"/>
  <outline>
    <contour>
      <point x="1091" y="1283" type="line"/>
      <point x="1091" y="1283" type="line"/>
      <point x="1114" y="1430"/>
      <point x="1093" y="1535"/>
      <point x="1027" y="1604" type="curve"/>
      <point x="926" y="1710"/>
      <point x="753" y="1691"/>
      <point x="600" y="1675" type="curve"/>
      <point x="509" y="1666"/>
      <point x="406" y="1655"/>
      <point x="366" y="1680" type="curve"/>
      <point x="264" y="1746"/>
      <point x="311" y="1886"/>
      <point x="312" y="1887" type="curve"/>
      <point x="253" y="1913" type="line"/>
      <point x="195" y="1942" type="line"/>
      <point x="166" y="1882"/>
      <point x="134" y="1676"/>
      <point x="297" y="1572" type="curve"/>
      <point x="374" y="1522"/>
      <point x="490" y="1534"/>
      <point x="613" y="1547" type="curve"/>
      <point x="737" y="1560"/>
      <point x="877" y="1575"/>
      <point x="934" y="1515" type="curve"/>
      <point x="969" y="1478"/>
      <point x="979" y="1406"/>
      <point x="964" y="1302" type="curve"/>
    </contour>
    <contour>
      <point x="1013" y="15" type="curve"/>
      <point x="1013" y="15" type="line"/>
      <point x="1137" y="50" type="line"/>
      <point x="1094" y="204"/>
      <point x="1072" y="363"/>
      <point x="1073" y="522" type="curve"/>
      <point x="1073" y="687"/>
      <point x="1096" y="851"/>
      <point x="1143" y="1009" type="curve"/>
      <point x="1160" y="1068" type="line"/>
      <point x="1070" y="1099" type="line"/>
      <point x="1046" y="1085" type="line"/>
      <point x="805" y="955"/>
      <point x="658" y="834"/>
      <point x="595" y="714" type="curve"/>
      <point x="590" y="704"/>
      <point x="574" y="674"/>
      <point x="551" y="635" type="curve"/>
      <point x="484" y="525"/>
      <point x="456" y="479"/>
      <point x="410" y="449" type="curve"/>
      <point x="378" y="428"/>
      <point x="325" y="393"/>
      <point x="272" y="409" type="curve"/>
      <point x="219" y="426"/>
      <point x="194" y="487"/>
      <point x="190" y="499" type="curve"/>
      <point x="69" y="455" type="line"/>
      <point x="80" y="424"/>
      <point x="125" y="320"/>
      <point x="234" y="286" type="curve"/>
      <point x="345" y="251"/>
      <point x="440" y="314"/>
      <point x="481" y="341" type="curve"/>
      <point x="553" y="389"/>
      <point x="591" y="453"/>
      <point x="661" y="568" type="curve"/>
      <point x="687" y="611"/>
      <point x="704" y="643"/>
      <point x="710" y="656" type="curve"/>
      <point x="748" y="729"/>
      <point x="841" y="812"/>
      <point x="983" y="900" type="curve"/>
      <point x="957" y="776"/>
      <point x="944" y="649"/>
      <point x="944" y="522" type="curve"/>
      <point x="943" y="351"/>
      <point x="967" y="180"/>
    </contour>
    <contour>
      <point x="718" y="681" type="line"/>
      <point x="718" y="681" type="line"/>
      <point x="737" y="912"/>
      <point x="615" y="1116"/>
      <point x="439" y="1145" type="curve"/>
      <point x="337" y="1162"/>
      <point x="200" y="1119"/>
      <point x="136" y="1004" type="curve"/>
      <point x="69" y="883"/>
      <point x="120" y="759"/>
      <point x="131" y="735" type="curve"/>
      <point x="248" y="789" type="line"/>
      <point x="244" y="798"/>
      <point x="211" y="874"/>
      <point x="249" y="941" type="curve"/>
      <point x="288" y="1011"/>
      <point x="373" y="1025"/>
      <point x="418" y="1018" type="curve"/>
      <point x="513" y="1002"/>
      <point x="604" y="867"/>
      <point x="589" y="691" type="curve"/>
    </contour>
    <contour>
      <point x="1272" y="1276" type="line"/>
      <point x="1272" y="1276" type="line"/>
      <point x="1272" y="1405" type="line"/>
      <point x="-20" y="1405" type="line"/>
      <point x="-20" y="1276" type="line"/>
    </contour>
  </outline>
</glyph>
<glyph name="u-bng2" format="2">
  <advance width="1272"/>
  <unicode hex="0989"/>
  <outline>
    <contour>
      <point x="1108" y="1288" type="line"/>
      <point x="1108" y="1288" type="line"/>
      <point x="1132" y="1443"/>
      <point x="1110" y="1553"/>
      <point x="1042" y="1625" type="curve"/>
      <point x="935" y="1737"/>
      <point x="748" y="1718"/>
      <point x="584" y="1700" type="curve"/>
      <point x="485" y="1690"/>
      <point x="373" y="1679"/>
      <point x="329" y="1707" type="curve"/>
      <point x="216" y="1778"/>
      <point x="268" y="1930"/>
      <point x="268" y="1931" type="curve"/>
      <point x="210" y="1958" type="line"/>
      <point x="267" y="1929" type="line"/>
      <point x="152" y="1987" type="line"/>
      <point x="133" y="1949"/>
      <point x="73" y="1716"/>
      <point x="260" y="1597" type="curve"/>
      <point x="342" y="1546"/>
      <point x="466" y="1558"/>
      <point x="597" y="1572" type="curve"/>
      <point x="732" y="1586"/>
      <point x="885" y="1602"/>
      <point x="948" y="1536" type="curve"/>
      <point x="987" y="1495"/>
      <point x="998" y="1418"/>
      <point x="981" y="1308" type="curve"/>
    </contour>
    <contour>
      <point x="710" y="87" type="curve"/>
      <point x="710" y="87" type="line"/>
      <point x="887" y="87"/>
      <point x="1026" y="170"/>
      <point x="1101" y="320" type="curve"/>
      <point x="1190" y="500"/>
      <point x="1173" y="765"/>
      <point x="1062" y="912" type="curve"/>
      <point x="1037" y="944" type="line"/>
      <point x="940" y="923" type="line"/>
      <point x="928" y="888" type="line"/>
      <point x="928" y="887"/>
      <point x="881" y="752"/>
      <point x="779" y="723" type="curve"/>
      <point x="760" y="718"/>
      <point x="724" y="708"/>
      <point x="689" y="728" type="curve"/>
      <point x="680" y="734"/>
      <point x="671" y="740"/>
      <point x="664" y="749" type="curve"/>
      <point x="643" y="771"/>
      <point x="632" y="805"/>
      <point x="632" y="842" type="curve"/>
      <point x="632" y="1327" type="line"/>
      <point x="503" y="1327" type="line"/>
      <point x="503" y="842" type="line"/>
      <point x="503" y="772"/>
      <point x="526" y="708"/>
      <point x="568" y="662" type="curve"/>
      <point x="585" y="644"/>
      <point x="604" y="628"/>
      <point x="625" y="616" type="curve"/>
      <point x="707" y="569"/>
      <point x="787" y="592"/>
      <point x="814" y="599" type="curve"/>
      <point x="905" y="625"/>
      <point x="965" y="691"/>
      <point x="1003" y="749" type="curve"/>
      <point x="1040" y="642"/>
      <point x="1043" y="494"/>
      <point x="986" y="378" type="curve"/>
      <point x="932" y="270"/>
      <point x="839" y="216"/>
      <point x="710" y="216" type="curve"/>
      <point x="331" y="216"/>
      <point x="228" y="680"/>
      <point x="209" y="1070" type="curve"/>
      <point x="208" y="1090" type="line"/>
      <point x="79" y="1082" type="line"/>
      <point x="80" y="1063" type="line"/>
      <point x="120" y="256"/>
      <point x="445" y="87"/>
    </contour>
    <contour>
      <point x="1312" y="1276" type="line"/>
      <point x="1312" y="1276" type="line"/>
      <point x="1312" y="1405" type="line"/>
      <point x="-30" y="1405" type="line"/>
      <point x="-30" y="1276" type="line"/>
    </contour>
  </outline>
</glyph>
<glyph name="uu-bng2" format="2">
  <advance width="1430"/>
  <unicode hex="098A"/>
  <outline>
    <contour>
      <point x="1218" y="1288" type="line"/>
      <point x="1218" y="1288" type="line"/>
      <point x="1242" y="1443"/>
      <point x="1220" y="1553"/>
      <point x="1152" y="1625" type="curve"/>
      <point x="1045" y="1737"/>
      <point x="858" y="1718"/>
      <point x="694" y="1700" type="curve"/>
      <point x="595" y="1690"/>
      <point x="483" y="1679"/>
      <point x="439" y="1707" type="curve"/>
      <point x="326" y="1778"/>
      <point x="378" y="1930"/>
      <point x="378" y="1931" type="curve"/>
      <point x="320" y="1958" type="line"/>
      <point x="377" y="1929" type="line"/>
      <point x="262" y="1987" type="line"/>
      <point x="243" y="1949"/>
      <point x="183" y="1716"/>
      <point x="370" y="1597" type="curve"/>
      <point x="452" y="1546"/>
      <point x="576" y="1558"/>
      <point x="707" y="1572" type="curve"/>
      <point x="842" y="1586"/>
      <point x="995" y="1602"/>
      <point x="1058" y="1536" type="curve"/>
      <point x="1097" y="1495"/>
      <point x="1108" y="1418"/>
      <point x="1091" y="1308" type="curve"/>
    </contour>
    <contour>
      <point x="866" y="87" type="curve"/>
      <point x="866" y="87" type="line"/>
      <point x="873" y="87"/>
      <point x="878" y="87"/>
      <point x="882" y="87" type="curve"/>
      <point x="1058" y="88"/>
      <point x="1196" y="171"/>
      <point x="1271" y="320" type="curve"/>
      <point x="1360" y="500"/>
      <point x="1342" y="765"/>
      <point x="1231" y="912" type="curve"/>
      <point x="1206" y="945" type="line"/>
      <point x="1109" y="924" type="line"/>
      <point x="1098" y="888" type="line"/>
      <point x="1098" y="887"/>
      <point x="1050" y="752"/>
      <point x="948" y="724" type="curve"/>
      <point x="929" y="718"/>
      <point x="894" y="708"/>
      <point x="859" y="729" type="curve"/>
      <point x="849" y="734"/>
      <point x="841" y="741"/>
      <point x="833" y="749" type="curve"/>
      <point x="813" y="771"/>
      <point x="802" y="805"/>
      <point x="802" y="843" type="curve"/>
      <point x="802" y="1327" type="line"/>
      <point x="672" y="1327" type="line"/>
      <point x="672" y="843" type="line"/>
      <point x="672" y="773"/>
      <point x="696" y="709"/>
      <point x="738" y="662" type="curve"/>
      <point x="754" y="644"/>
      <point x="773" y="629"/>
      <point x="794" y="617" type="curve"/>
      <point x="877" y="569"/>
      <point x="957" y="592"/>
      <point x="983" y="599" type="curve"/>
      <point x="1074" y="625"/>
      <point x="1135" y="691"/>
      <point x="1172" y="749" type="curve"/>
      <point x="1210" y="642"/>
      <point x="1213" y="494"/>
      <point x="1155" y="378" type="curve"/>
      <point x="1102" y="271"/>
      <point x="1009" y="216"/>
      <point x="879" y="216" type="curve"/>
      <point x="873" y="216" type="line"/>
      <point x="872" y="216"/>
      <point x="758" y="207"/>
      <point x="651" y="304" type="curve"/>
      <point x="520" y="423"/>
      <point x="451" y="652"/>
      <point x="451" y="968" type="curve"/>
      <point x="322" y="968" type="line"/>
      <point x="322" y="610"/>
      <point x="403" y="354"/>
      <point x="564" y="208" type="curve"/>
      <point x="686" y="98"/>
      <point x="816" y="87"/>
    </contour>
    <contour>
      <point x="481" y="369" type="curve"/>
      <point x="481" y="369" type="line"/>
      <point x="481" y="498" type="line"/>
      <point x="418" y="498"/>
      <point x="367" y="519"/>
      <point x="328" y="563" type="curve"/>
      <point x="214" y="687"/>
      <point x="212" y="962"/>
      <point x="221" y="1058" type="curve"/>
      <point x="92" y="1070" type="line"/>
      <point x="91" y="1053"/>
      <point x="57" y="667"/>
      <point x="232" y="476" type="curve"/>
      <point x="297" y="405"/>
      <point x="381" y="369"/>
    </contour>
    <contour>
      <point x="1467" y="1276" type="line"/>
      <point x="1467" y="1276" type="line"/>
      <point x="1467" y="1405" type="line"/>
      <point x="-15" y="1405" type="line"/>
      <point x="-15" y="1276" type="line"/>
    </contour>
  </outline>
</glyph>
<glyph name="vocalicl-bng2" format="2">
  <advance width="1104"/>
  <unicode hex="098C"/>
  <outline>
    <contour>
      <point x="594" y="61" type="qcurve"/>
      <point x="571" y="61"/>
      <point x="532" y="64"/>
      <point x="518" y="66" type="qcurve"/>
      <point x="537" y="180" type="line"/>
      <point x="545" y="178"/>
      <point x="564" y="177"/>
      <point x="575" y="176" type="qcurve"/>
      <point x="571" y="178" type="line"/>
      <point x="600" y="227"/>
      <point x="624" y="332"/>
      <point x="616" y="432"/>
      <point x="576" y="519"/>
      <point x="541" y="549" type="qcurve"/>
      <point x="514" y="573"/>
      <point x="434" y="606"/>
      <point x="389" y="606" type="qcurve"/>
      <point x="350" y="606"/>
      <point x="311" y="591" type="qcurve"/>
      <point x="271" y="575"/>
      <point x="212" y="515"/>
      <point x="176" y="442"/>
      <point x="165" y="366"/>
      <point x="173" y="333" type="qcurve"/>
      <point x="174" y="332"/>
      <point x="184" y="299"/>
      <point x="206" y="259"/>
      <point x="242" y="222"/>
      <point x="267" y="217" type="qcurve"/>
      <point x="295" y="211"/>
      <point x="342" y="229"/>
      <point x="355" y="237" type="qcurve"/>
      <point x="416" y="139" type="line"/>
      <point x="397" y="126"/>
      <point x="330" y="99"/>
      <point x="287" y="99" type="qcurve"/>
      <point x="242" y="99"/>
      <point x="168" y="133"/>
      <point x="110" y="190"/>
      <point x="71" y="265"/>
      <point x="61" y="306" type="qcurve"/>
      <point x="46" y="365"/>
      <point x="65" y="485"/>
      <point x="121" y="591"/>
      <point x="211" y="676"/>
      <point x="268" y="699" type="qcurve"/>
      <point x="328" y="722"/>
      <point x="390" y="722" type="qcurve"/>
      <point x="452" y="722"/>
      <point x="570" y="679"/>
      <point x="618" y="637" type="qcurve"/>
      <point x="663" y="598"/>
      <point x="719" y="496"/>
      <point x="742" y="380"/>
      <point x="730" y="255"/>
      <point x="707" y="194" type="qcurve"/>
      <point x="730" y="203"/>
      <point x="752" y="215" type="qcurve"/>
      <point x="791" y="236"/>
      <point x="847" y="294"/>
      <point x="885" y="356"/>
      <point x="907" y="417"/>
      <point x="919" y="466"/>
      <point x="922" y="499"/>
      <point x="922" y="501" type="qcurve"/>
      <point x="922" y="503"/>
      <point x="922" y="558"/>
      <point x="905" y="636"/>
      <point x="865" y="725"/>
      <point x="826" y="762" type="qcurve"/>
      <point x="798" y="789"/>
      <point x="724" y="829"/>
      <point x="636" y="860"/>
      <point x="535" y="887"/>
      <point x="480" y="900" type="qcurve"/>
      <point x="477" y="901"/>
      <point x="430" y="914"/>
      <point x="357" y="941"/>
      <point x="264" y="983"/>
      <point x="215" y="1012" type="qcurve"/>
      <point x="207" y="1017"/>
      <point x="181" y="1033"/>
      <point x="153" y="1060"/>
      <point x="127" y="1097"/>
      <point x="119" y="1121" type="qcurve"/>
      <point x="101" y="1180"/>
      <point x="122" y="1241" type="qcurve"/>
      <point x="133" y="1270"/>
      <point x="166" y="1313"/>
      <point x="201" y="1341"/>
      <point x="232" y="1357"/>
      <point x="239" y="1360" type="qcurve"/>
      <point x="282" y="1252" type="line"/>
      <point x="279" y="1251"/>
      <point x="265" y="1244"/>
      <point x="250" y="1232"/>
      <point x="235" y="1214"/>
      <point x="231" y="1202" type="qcurve"/>
      <point x="225" y="1188"/>
      <point x="227" y="1165"/>
      <point x="229" y="1158" type="qcurve"/>
      <point x="234" y="1141"/>
      <point x="260" y="1121"/>
      <point x="275" y="1112" type="qcurve"/>
      <point x="318" y="1087"/>
      <point x="401" y="1049"/>
      <point x="466" y="1025"/>
      <point x="507" y="1013"/>
      <point x="507" y="1013" type="qcurve"/>
      <point x="565" y="999"/>
      <point x="677" y="969"/>
      <point x="780" y="931"/>
      <point x="870" y="881"/>
      <point x="906" y="846" type="qcurve"/>
      <point x="958" y="796"/>
      <point x="1013" y="679"/>
      <point x="1037" y="577"/>
      <point x="1039" y="502"/>
      <point x="1038" y="494" type="qcurve"/>
      <point x="1038" y="487"/>
      <point x="1032" y="441"/>
      <point x="1016" y="376"/>
      <point x="985" y="297"/>
      <point x="935" y="218"/>
      <point x="861" y="143"/>
      <point x="809" y="114" type="qcurve"/>
      <point x="749" y="82"/>
      <point x="640" y="61"/>
    </contour>
  </outline>
</glyph>
<glyph name="e-bng2" format="2">
  <advance width="1218"/>
  <unicode hex="098F"/>
  <outline>
    <contour>
      <point x="1124" y="0" type="line"/>
      <point x="1124" y="0" type="line"/>
      <point x="1124" y="1162" type="line"/>
      <point x="1124" y="1169" type="line"/>
      <point x="1118" y="1228"/>
      <point x="1062" y="1339"/>
      <point x="894" y="1339" type="curve"/>
      <point x="894" y="1339"/>
      <point x="894" y="1339"/>
      <point x="894" y="1339" type="curve"/>
      <point x="686" y="1328"/>
      <point x="547" y="1118"/>
      <point x="545" y="1116" type="curve"/>
      <point x="457" y="980"/>
      <point x="435" y="861"/>
      <point x="480" y="762" type="curve"/>
      <point x="520" y="674"/>
      <point x="580" y="641"/>
      <point x="623" y="629" type="curve"/>
      <point x="692" y="611"/>
      <point x="753" y="634"/>
      <point x="782" y="650" type="curve"/>
      <point x="722" y="764" type="line"/>
      <point x="711" y="759"/>
      <point x="684" y="747"/>
      <point x="656" y="754" type="curve"/>
      <point x="621" y="764"/>
      <point x="603" y="802"/>
      <point x="598" y="815" type="curve"/>
      <point x="572" y="872"/>
      <point x="591" y="949"/>
      <point x="654" y="1045" type="curve"/>
      <point x="675" y="1079"/>
      <point x="781" y="1204"/>
      <point x="898" y="1210" type="curve"/>
      <point x="976" y="1210"/>
      <point x="992" y="1171"/>
      <point x="995" y="1157" type="curve"/>
      <point x="995" y="0" type="line"/>
    </contour>
    <contour>
      <point x="1008" y="81" type="curve"/>
      <point x="1008" y="81" type="line"/>
      <point x="1111" y="159" type="line"/>
      <point x="980" y="332"/>
      <point x="892" y="404"/>
      <point x="682" y="399" type="curve"/>
      <point x="676" y="399"/>
      <point x="660" y="397"/>
      <point x="639" y="394" type="curve"/>
      <point x="471" y="372"/>
      <point x="364" y="374"/>
      <point x="320" y="402" type="curve"/>
      <point x="249" y="442"/>
      <point x="225" y="532"/>
      <point x="217" y="583" type="curve"/>
      <point x="199" y="704"/>
      <point x="232" y="838"/>
      <point x="298" y="909" type="curve"/>
      <point x="204" y="998" type="line"/>
      <point x="111" y="898"/>
      <point x="65" y="724"/>
      <point x="90" y="563" type="curve"/>
      <point x="109" y="436"/>
      <point x="168" y="339"/>
      <point x="254" y="291" type="curve"/>
      <point x="344" y="234"/>
      <point x="508" y="247"/>
      <point x="656" y="266" type="curve"/>
      <point x="670" y="268"/>
      <point x="681" y="269"/>
      <point x="685" y="270" type="curve"/>
      <point x="840" y="274"/>
      <point x="894" y="233"/>
    </contour>
  </outline>
</glyph>
<glyph name="ai-bng2" format="2">
  <advance width="1582"/>
  <unicode hex="0990"/>
  <outline>
    <contour>
      <point x="1124" y="0" type="line"/>
      <point x="1124" y="0" type="line"/>
      <point x="1124" y="1162" type="line"/>
      <point x="1124" y="1169" type="line"/>
      <point x="1117" y="1228"/>
      <point x="1062" y="1339"/>
      <point x="894" y="1339" type="curve"/>
      <point x="894" y="1339"/>
      <point x="894" y="1339"/>
      <point x="894" y="1339" type="curve"/>
      <point x="686" y="1328"/>
      <point x="547" y="1118"/>
      <point x="545" y="1116" type="curve"/>
      <point x="457" y="980"/>
      <point x="435" y="861"/>
      <point x="480" y="762" type="curve"/>
      <point x="520" y="674"/>
      <point x="580" y="641"/>
      <point x="623" y="629" type="curve"/>
      <point x="692" y="611"/>
      <point x="753" y="634"/>
      <point x="782" y="650" type="curve"/>
      <point x="722" y="764" type="line"/>
      <point x="711" y="759"/>
      <point x="684" y="747"/>
      <point x="656" y="754" type="curve"/>
      <point x="621" y="764"/>
      <point x="603" y="802"/>
      <point x="598" y="815" type="curve"/>
      <point x="572" y="872"/>
      <point x="591" y="949"/>
      <point x="654" y="1045" type="curve"/>
      <point x="675" y="1079"/>
      <point x="781" y="1204"/>
      <point x="898" y="1210" type="curve"/>
      <point x="976" y="1210"/>
      <point x="992" y="1171"/>
      <point x="995" y="1157" type="curve"/>
      <point x="995" y="0" type="line"/>
    </contour>
    <contour>
      <point x="1008" y="81" type="curve"/>
      <point x="1008" y="81" type="line"/>
      <point x="1111" y="159" type="line"/>
      <point x="980" y="332"/>
      <point x="892" y="404"/>
      <point x="682" y="399" type="curve"/>
      <point x="676" y="399"/>
      <point x="660" y="397"/>
      <point x="639" y="394" type="curve"/>
      <point x="471" y="372"/>
      <point x="364" y="374"/>
      <point x="320" y="402" type="curve"/>
      <point x="249" y="442"/>
      <point x="225" y="532"/>
      <point x="217" y="583" type="curve"/>
      <point x="199" y="704"/>
      <point x="232" y="838"/>
      <point x="298" y="909" type="curve"/>
      <point x="204" y="998" type="line"/>
      <point x="111" y="898"/>
      <point x="65" y="724"/>
      <point x="90" y="563" type="curve"/>
      <point x="109" y="436"/>
      <point x="168" y="339"/>
      <point x="254" y="291" type="curve"/>
      <point x="344" y="234"/>
      <point x="508" y="247"/>
      <point x="656" y="266" type="curve"/>
      <point x="670" y="268"/>
      <point x="681" y="269"/>
      <point x="685" y="270" type="curve"/>
      <point x="840" y="274"/>
      <point x="894" y="233"/>
    </contour>
    <contour>
      <point x="1066" y="630" type="curve"/>
      <point x="1066" y="630" type="line"/>
      <point x="1131" y="630"/>
      <point x="1196" y="644"/>
      <point x="1256" y="672" type="curve"/>
      <point x="1297" y="691"/>
      <point x="1357" y="727"/>
      <point x="1411" y="791" type="curve"/>
      <point x="1478" y="871"/>
      <point x="1516" y="970"/>
      <point x="1520" y="1080" type="curve"/>
      <point x="1521" y="1114"/>
      <point x="1521" y="1293"/>
      <point x="1391" y="1429" type="curve"/>
      <point x="1282" y="1543"/>
      <point x="1140" y="1571"/>
      <point x="1036" y="1591" type="curve"/>
      <point x="1000" y="1598"/>
      <point x="969" y="1601"/>
      <point x="942" y="1604" type="curve"/>
      <point x="889" y="1610"/>
      <point x="848" y="1615"/>
      <point x="785" y="1641" type="curve"/>
      <point x="718" y="1668"/>
      <point x="690" y="1694"/>
      <point x="673" y="1715" type="curve"/>
      <point x="660" y="1731"/>
      <point x="633" y="1764"/>
      <point x="629" y="1812" type="curve"/>
      <point x="628" y="1833"/>
      <point x="631" y="1854"/>
      <point x="639" y="1874" type="curve"/>
      <point x="518" y="1919" type="line"/>
      <point x="504" y="1882"/>
      <point x="498" y="1843"/>
      <point x="501" y="1804" type="curve"/>
      <point x="506" y="1714"/>
      <point x="555" y="1655"/>
      <point x="573" y="1633" type="curve"/>
      <point x="612" y="1586"/>
      <point x="662" y="1551"/>
      <point x="737" y="1521" type="curve"/>
      <point x="816" y="1489"/>
      <point x="870" y="1483"/>
      <point x="927" y="1476" type="curve"/>
      <point x="953" y="1473"/>
      <point x="980" y="1470"/>
      <point x="1011" y="1464" type="curve"/>
      <point x="1103" y="1446"/>
      <point x="1217" y="1424"/>
      <point x="1297" y="1340" type="curve"/>
      <point x="1392" y="1241"/>
      <point x="1392" y="1110"/>
      <point x="1391" y="1084" type="curve"/>
      <point x="1388" y="1004"/>
      <point x="1361" y="932"/>
      <point x="1313" y="874" type="curve"/>
      <point x="1272" y="826"/>
      <point x="1225" y="800"/>
      <point x="1201" y="789" type="curve"/>
      <point x="1144" y="763"/>
      <point x="1091" y="759"/>
      <point x="1057" y="759" type="curve"/>
      <point x="1053" y="630" type="line"/>
      <point x="1057" y="630"/>
      <point x="1061" y="630"/>
    </contour>
  </outline>
</glyph>
<glyph name="o-bng2" format="2">
  <advance width="1221"/>
  <unicode hex="0993"/>
  <outline>
    <contour>
      <point x="780" y="165" type="curve"/>
      <point x="780" y="165" type="line"/>
      <point x="897" y="165"/>
      <point x="976" y="205"/>
      <point x="1027" y="246" type="curve"/>
      <point x="1052" y="266"/>
      <point x="1178" y="376"/>
      <point x="1166" y="545" type="curve"/>
      <point x="1165" y="618"/>
      <point x="1108" y="798"/>
      <point x="935" y="889" type="curve"/>
      <point x="875" y="775" type="line"/>
      <point x="1007" y="705"/>
      <point x="1037" y="567"/>
      <point x="1036" y="545" type="curve"/>
      <point x="1036" y="541" type="line"/>
      <point x="1037" y="538" type="line"/>
      <point x="1046" y="430"/>
      <point x="956" y="355"/>
      <point x="946" y="346" type="curve"/>
      <point x="876" y="291"/>
      <point x="772" y="280"/>
      <point x="645" y="315" type="curve"/>
      <point x="412" y="379"/>
      <point x="234" y="709"/>
      <point x="191" y="1155" type="curve"/>
      <point x="62" y="1143" type="line"/>
      <point x="111" y="635"/>
      <point x="321" y="270"/>
      <point x="611" y="190" type="curve"/>
      <point x="674" y="173"/>
      <point x="731" y="165"/>
    </contour>
    <contour>
      <point x="799" y="677" type="line"/>
      <point x="799" y="677" type="line"/>
      <point x="801" y="677"/>
      <point x="993" y="753"/>
      <point x="1046" y="946" type="curve"/>
      <point x="1078" y="1065"/>
      <point x="1047" y="1147"/>
      <point x="1016" y="1195" type="curve"/>
      <point x="939" y="1310"/>
      <point x="792" y="1338"/>
      <point x="679" y="1314" type="curve"/>
      <point x="532" y="1284"/>
      <point x="399" y="1121"/>
      <point x="399" y="974" type="curve"/>
      <point x="397" y="849"/>
      <point x="518" y="777"/>
      <point x="623" y="754" type="curve"/>
      <point x="651" y="880" type="line"/>
      <point x="619" y="887"/>
      <point x="527" y="920"/>
      <point x="528" y="973" type="curve"/>
      <point x="528" y="1069"/>
      <point x="626" y="1171"/>
      <point x="706" y="1188" type="curve"/>
      <point x="762" y="1200"/>
      <point x="863" y="1192"/>
      <point x="908" y="1124" type="curve"/>
      <point x="933" y="1087"/>
      <point x="937" y="1038"/>
      <point x="921" y="980" type="curve"/>
      <point x="887" y="856"/>
      <point x="757" y="799"/>
      <point x="757" y="798" type="curve"/>
    </contour>
  </outline>
</glyph>
<glyph name="au-bng2" format="2">
  <advance width="1544"/>
  <unicode hex="0994"/>
  <outline>
    <contour>
      <point x="780" y="165" type="curve"/>
      <point x="780" y="165" type="line"/>
      <point x="896" y="165"/>
      <point x="976" y="205"/>
      <point x="1027" y="246" type="curve"/>
      <point x="1052" y="266"/>
      <point x="1178" y="376"/>
      <point x="1165" y="545" type="curve"/>
      <point x="1165" y="618"/>
      <point x="1108" y="798"/>
      <point x="935" y="889" type="curve"/>
      <point x="874" y="775" type="line"/>
      <point x="1007" y="705"/>
      <point x="1036" y="567"/>
      <point x="1036" y="545" type="curve"/>
      <point x="1036" y="541" type="line"/>
      <point x="1037" y="538" type="line"/>
      <point x="1046" y="430"/>
      <point x="956" y="355"/>
      <point x="946" y="346" type="curve"/>
      <point x="876" y="291"/>
      <point x="772" y="280"/>
      <point x="645" y="315" type="curve"/>
      <point x="412" y="379"/>
      <point x="234" y="709"/>
      <point x="191" y="1155" type="curve"/>
      <point x="62" y="1143" type="line"/>
      <point x="111" y="635"/>
      <point x="321" y="270"/>
      <point x="611" y="190" type="curve"/>
      <point x="674" y="173"/>
      <point x="731" y="165"/>
    </contour>
    <contour>
      <point x="799" y="677" type="line"/>
      <point x="799" y="677" type="line"/>
      <point x="801" y="677"/>
      <point x="993" y="753"/>
      <point x="1046" y="946" type="curve"/>
      <point x="1078" y="1065"/>
      <point x="1047" y="1147"/>
      <point x="1016" y="1195" type="curve"/>
      <point x="939" y="1310"/>
      <point x="792" y="1338"/>
      <point x="679" y="1314" type="curve"/>
      <point x="532" y="1284"/>
      <point x="399" y="1121"/>
      <point x="399" y="974" type="curve"/>
      <point x="397" y="849"/>
      <point x="518" y="777"/>
      <point x="622" y="754" type="curve"/>
      <point x="651" y="880" type="line"/>
      <point x="619" y="887"/>
      <point x="527" y="920"/>
      <point x="528" y="973" type="curve"/>
      <point x="528" y="1069"/>
      <point x="625" y="1171"/>
      <point x="706" y="1188" type="curve"/>
      <point x="762" y="1200"/>
      <point x="863" y="1192"/>
      <point x="908" y="1124" type="curve"/>
      <point x="933" y="1087"/>
      <point x="937" y="1038"/>
      <point x="921" y="980" type="curve"/>
      <point x="887" y="856"/>
      <point x="757" y="799"/>
      <point x="756" y="798" type="curve"/>
    </contour>
    <contour>
      <point x="1050" y="598" type="curve"/>
      <point x="1050" y="598" type="line"/>
      <point x="1115" y="598"/>
      <point x="1180" y="612"/>
      <point x="1240" y="640" type="curve"/>
      <point x="1281" y="659"/>
      <point x="1341" y="695"/>
      <point x="1395" y="759" type="curve"/>
      <point x="1462" y="839"/>
      <point x="1500" y="938"/>
      <point x="1504" y="1048" type="curve"/>
      <point x="1505" y="1082"/>
      <point x="1505" y="1261"/>
      <point x="1375" y="1397" type="curve"/>
      <point x="1266" y="1511"/>
      <point x="1124" y="1539"/>
      <point x="1020" y="1559" type="curve"/>
      <point x="984" y="1566"/>
      <point x="953" y="1569"/>
      <point x="926" y="1572" type="curve"/>
      <point x="873" y="1578"/>
      <point x="832" y="1583"/>
      <point x="769" y="1609" type="curve"/>
      <point x="702" y="1636"/>
      <point x="674" y="1662"/>
      <point x="657" y="1683" type="curve"/>
      <point x="644" y="1699"/>
      <point x="617" y="1732"/>
      <point x="613" y="1780" type="curve"/>
      <point x="612" y="1801"/>
      <point x="615" y="1822"/>
      <point x="623" y="1842" type="curve"/>
      <point x="502" y="1887" type="line"/>
      <point x="488" y="1850"/>
      <point x="482" y="1811"/>
      <point x="485" y="1772" type="curve"/>
      <point x="490" y="1682"/>
      <point x="539" y="1623"/>
      <point x="557" y="1601" type="curve"/>
      <point x="596" y="1554"/>
      <point x="646" y="1519"/>
      <point x="721" y="1489" type="curve"/>
      <point x="800" y="1457"/>
      <point x="854" y="1451"/>
      <point x="911" y="1444" type="curve"/>
      <point x="937" y="1441"/>
      <point x="964" y="1438"/>
      <point x="995" y="1432" type="curve"/>
      <point x="1087" y="1414"/>
      <point x="1201" y="1392"/>
      <point x="1281" y="1308" type="curve"/>
      <point x="1376" y="1209"/>
      <point x="1376" y="1078"/>
      <point x="1375" y="1052" type="curve"/>
      <point x="1372" y="972"/>
      <point x="1345" y="900"/>
      <point x="1297" y="842" type="curve"/>
      <point x="1256" y="794"/>
      <point x="1209" y="768"/>
      <point x="1185" y="757" type="curve"/>
      <point x="1128" y="731"/>
      <point x="1075" y="727"/>
      <point x="1041" y="727" type="curve"/>
      <point x="1037" y="598" type="line"/>
      <point x="1041" y="598"/>
      <point x="1045" y="598"/>
    </contour>
  </outline>
</glyph>
<glyph name="ga-bng2" format="2">
  <advance width="1115"/>
  <unicode hex="0997"/>
  <anchor x="1074" y="15" name="Anchor_1"/>
  <anchor x="1013" y="208" name="Anchor_3"/>
  <anchor x="708" y="1463" name="Anchor_up"/>
  <outline>
    <contour>
      <point x="972" y="0" type="line"/>
      <point x="972" y="0" type="line"/>
      <point x="972" y="1510" type="line"/>
      <point x="843" y="1510" type="line"/>
      <point x="843" y="0" type="line"/>
    </contour>
    <contour>
      <point x="295" y="357" type="line"/>
      <point x="295" y="357" type="line"/>
      <point x="372" y="403"/>
      <point x="621" y="569"/>
      <point x="596" y="778" type="curve"/>
      <point x="593" y="797"/>
      <point x="582" y="867"/>
      <point x="532" y="922" type="curve"/>
      <point x="457" y="1006"/>
      <point x="310" y="1014"/>
      <point x="185" y="979" type="curve"/>
      <point x="208" y="1177"/>
      <point x="357" y="1209"/>
      <point x="448" y="1209" type="curve"/>
      <point x="655" y="1209"/>
      <point x="811" y="1046"/>
      <point x="845" y="794" type="curve"/>
      <point x="973" y="812" type="line"/>
      <point x="930" y="1126"/>
      <point x="719" y="1338"/>
      <point x="448" y="1338" type="curve"/>
      <point x="257" y="1338"/>
      <point x="53" y="1230"/>
      <point x="53" y="926" type="curve"/>
      <point x="53" y="902" type="line"/>
      <point x="125" y="818" type="line"/>
      <point x="169" y="837" type="line"/>
      <point x="281" y="886"/>
      <point x="400" y="876"/>
      <point x="436" y="835" type="curve"/>
      <point x="461" y="807"/>
      <point x="467" y="766"/>
      <point x="468" y="762" type="curve"/>
      <point x="480" y="658"/>
      <point x="347" y="538"/>
      <point x="229" y="467" type="curve"/>
      <point x="227" y="466" type="line"/>
    </contour>
    <contour>
      <point x="1170" y="1276" type="line"/>
      <point x="1170" y="1276" type="line"/>
      <point x="1170" y="1405" type="line"/>
      <point x="901" y="1405" type="line"/>
      <point x="901" y="1276" type="line"/>
    </contour>
  </outline>
</glyph>
<glyph name="gha-bng2" format="2">
  <advance width="1005"/>
  <unicode hex="0998"/>
  <anchor x="987" y="15" name="Anchor_1"/>
  <anchor x="968" y="208" name="Anchor_3"/>
  <anchor x="708" y="1463" name="Anchor_up"/>
  <outline>
    <contour>
      <point x="927" y="0" type="line"/>
      <point x="927" y="0" type="line"/>
      <point x="927" y="1403" type="line"/>
      <point x="798" y="1403" type="line"/>
      <point x="798" y="0" type="line"/>
    </contour>
    <contour>
      <point x="1031" y="1276" type="line"/>
      <point x="1031" y="1276" type="line"/>
      <point x="1031" y="1405" type="line"/>
      <point x="-30" y="1405" type="line"/>
      <point x="-30" y="1276" type="line"/>
    </contour>
    <contour>
      <point x="384" y="883" type="curve"/>
      <point x="384" y="883" type="line"/>
      <point x="427" y="883"/>
      <point x="473" y="889"/>
      <point x="521" y="901" type="curve"/>
      <point x="490" y="1026" type="line"/>
      <point x="372" y="997"/>
      <point x="263" y="1017"/>
      <point x="231" y="1073" type="curve"/>
      <point x="222" y="1090"/>
      <point x="217" y="1112"/>
      <point x="215" y="1127" type="curve"/>
      <point x="207" y="1203"/>
      <point x="255" y="1263"/>
      <point x="270" y="1279" type="curve"/>
      <point x="175" y="1366" type="line"/>
      <point x="150" y="1340"/>
      <point x="72" y="1242"/>
      <point x="87" y="1113" type="curve"/>
      <point x="89" y="1095"/>
      <point x="95" y="1050"/>
      <point x="119" y="1009" type="curve"/>
      <point x="165" y="928"/>
      <point x="263" y="883"/>
    </contour>
    <contour>
      <point x="796" y="148" type="curve"/>
      <point x="796" y="148" type="line"/>
      <point x="897" y="228" type="line"/>
      <point x="853" y="284"/>
      <point x="805" y="336"/>
      <point x="754" y="384" type="curve"/>
      <point x="621" y="507"/>
      <point x="467" y="600"/>
      <point x="295" y="660" type="curve"/>
      <point x="633" y="993" type="line"/>
      <point x="542" y="1084" type="line"/>
      <point x="129" y="677" type="line"/>
      <point x="147" y="570" type="line"/>
      <point x="186" y="559" type="line"/>
      <point x="368" y="507"/>
      <point x="530" y="416"/>
      <point x="666" y="289" type="curve"/>
      <point x="712" y="247"/>
      <point x="756" y="199"/>
    </contour>
  </outline>
</glyph>
<glyph name="nga-bng2" format="2">
  <advance width="1210"/>
  <unicode hex="0999"/>
  <anchor x="1074" y="15" name="Anchor_1"/>
  <anchor x="640" y="0" name="Anchor_3"/>
  <anchor x="708" y="1463" name="Anchor_up"/>
  <outline>
    <contour>
      <point x="730" y="69" type="curve"/>
      <point x="730" y="69" type="line"/>
      <point x="797" y="69"/>
      <point x="862" y="84"/>
      <point x="920" y="114" type="curve"/>
      <point x="1101" y="207"/>
      <point x="1193" y="394"/>
      <point x="1153" y="592" type="curve"/>
      <point x="1132" y="700"/>
      <point x="1078" y="825"/>
      <point x="1033" y="870" type="curve"/>
      <point x="1011" y="892" type="line"/>
      <point x="907" y="879" type="line"/>
      <point x="894" y="842" type="line"/>
      <point x="881" y="807"/>
      <point x="833" y="692"/>
      <point x="727" y="657" type="curve"/>
      <point x="717" y="654" type="line"/>
      <point x="695" y="646"/>
      <point x="676" y="639"/>
      <point x="644" y="653" type="curve"/>
      <point x="569" y="685"/>
      <point x="534" y="781"/>
      <point x="548" y="910" type="curve"/>
      <point x="599" y="900"/>
      <point x="659" y="896"/>
      <point x="723" y="909" type="curve"/>
      <point x="859" y="937"/>
      <point x="954" y="1028"/>
      <point x="971" y="1083" type="curve"/>
      <point x="983" y="1122"/>
      <point x="983" y="1160"/>
      <point x="983" y="1164" type="curve"/>
      <point x="983" y="1171" type="line"/>
      <point x="982" y="1178"/>
      <point x="974" y="1241"/>
      <point x="920" y="1294" type="curve"/>
      <point x="830" y="1382"/>
      <point x="662" y="1369"/>
      <point x="545" y="1264" type="curve"/>
      <point x="486" y="1212"/>
      <point x="457" y="1147"/>
      <point x="443" y="1091" type="curve"/>
      <point x="305" y="1186"/>
      <point x="290" y="1361"/>
      <point x="288" y="1381" type="curve"/>
      <point x="159" y="1373" type="line"/>
      <point x="161" y="1346"/>
      <point x="182" y="1105"/>
      <point x="381" y="977" type="curve"/>
      <point x="390" y="971"/>
      <point x="404" y="963"/>
      <point x="423" y="953" type="curve"/>
      <point x="388" y="714"/>
      <point x="485" y="581"/>
      <point x="593" y="534" type="curve"/>
      <point x="672" y="501"/>
      <point x="732" y="522"/>
      <point x="761" y="532" type="curve"/>
      <point x="768" y="535" type="line"/>
      <point x="873" y="569"/>
      <point x="939" y="651"/>
      <point x="977" y="717" type="curve"/>
      <point x="996" y="677"/>
      <point x="1016" y="622"/>
      <point x="1027" y="567" type="curve"/>
      <point x="1055" y="425"/>
      <point x="992" y="296"/>
      <point x="861" y="229" type="curve"/>
      <point x="778" y="187"/>
      <point x="693" y="198"/>
      <point x="649" y="208" type="curve"/>
      <point x="423" y="263"/>
      <point x="238" y="606"/>
      <point x="179" y="1082" type="curve"/>
      <point x="51" y="1066" type="line"/>
      <point x="118" y="528"/>
      <point x="335" y="151"/>
      <point x="619" y="83" type="curve"/>
      <point x="656" y="74"/>
      <point x="693" y="69"/>
    </contour>
    <contour>
      <point x="564" y="1038" type="curve"/>
      <point x="564" y="1038" type="line"/>
      <point x="571" y="1078"/>
      <point x="588" y="1130"/>
      <point x="631" y="1168" type="curve"/>
      <point x="700" y="1229"/>
      <point x="795" y="1236"/>
      <point x="830" y="1201" type="curve"/>
      <point x="846" y="1185"/>
      <point x="852" y="1166"/>
      <point x="854" y="1160" type="curve"/>
      <point x="854" y="1151"/>
      <point x="852" y="1137"/>
      <point x="849" y="1124" type="curve"/>
      <point x="840" y="1110"/>
      <point x="790" y="1055"/>
      <point x="698" y="1036" type="curve"/>
      <point x="649" y="1026"/>
      <point x="603" y="1029"/>
    </contour>
    <contour>
      <point x="848" y="1121" type="line"/>
      <point x="848" y="1121"/>
      <point x="848" y="1121"/>
      <point x="848" y="1121" type="curve"/>
      <point x="848" y="1121"/>
      <point x="848" y="1121"/>
      <point x="848" y="1121" type="curve"/>
    </contour>
  </outline>
</glyph>
<glyph name="ca-bng2" format="2">
  <advance width="866"/>
  <unicode hex="099A"/>
  <anchor x="712" y="7" name="Anchor_1"/>
  <anchor x="640" y="0" name="Anchor_3"/>
  <anchor x="385" y="1463" name="Anchor_up"/>
  <outline>
    <contour>
      <point x="339" y="4" type="curve"/>
      <point x="339" y="4" type="line"/>
      <point x="367" y="4"/>
      <point x="392" y="9"/>
      <point x="411" y="12" type="curve"/>
      <point x="535" y="34"/>
      <point x="613" y="114"/>
      <point x="651" y="152" type="curve"/>
      <point x="753" y="256"/>
      <point x="790" y="373"/>
      <point x="810" y="434" type="curve"/>
      <point x="811" y="437"/>
      <point x="831" y="498"/>
      <point x="836" y="571" type="curve"/>
      <point x="837" y="586"/>
      <point x="838" y="606"/>
      <point x="834" y="632" type="curve"/>
      <point x="830" y="653"/>
      <point x="822" y="685"/>
      <point x="803" y="714" type="curve"/>
      <point x="781" y="749"/>
      <point x="750" y="773"/>
      <point x="693" y="797" type="curve"/>
      <point x="637" y="821"/>
      <point x="590" y="830"/>
      <point x="574" y="833" type="curve"/>
      <point x="569" y="834"/>
      <point x="450" y="857"/>
      <point x="362" y="924" type="curve"/>
      <point x="346" y="937"/>
      <point x="292" y="980"/>
      <point x="255" y="1035" type="curve"/>
      <point x="255" y="1300" type="line"/>
      <point x="125" y="1300" type="line"/>
      <point x="125" y="274" type="line"/>
      <point x="125" y="171"/>
      <point x="135" y="82"/>
      <point x="257" y="22" type="curve"/>
      <point x="284" y="8"/>
      <point x="313" y="4"/>
    </contour>
    <contour>
      <point x="255" y="845" type="line"/>
      <point x="255" y="845" type="line"/>
      <point x="267" y="835"/>
      <point x="277" y="827"/>
      <point x="284" y="821" type="curve"/>
      <point x="394" y="738"/>
      <point x="534" y="709"/>
      <point x="551" y="706" type="curve"/>
      <point x="563" y="704"/>
      <point x="599" y="697"/>
      <point x="643" y="678" type="curve"/>
      <point x="685" y="660"/>
      <point x="691" y="650"/>
      <point x="694" y="646" type="curve"/>
      <point x="699" y="637"/>
      <point x="704" y="624"/>
      <point x="706" y="610" type="curve"/>
      <point x="708" y="599"/>
      <point x="708" y="590"/>
      <point x="707" y="580" type="curve"/>
      <point x="703" y="524"/>
      <point x="688" y="476"/>
      <point x="687" y="475" type="curve"/>
      <point x="669" y="419"/>
      <point x="640" y="325"/>
      <point x="559" y="243" type="curve"/>
      <point x="528" y="212"/>
      <point x="472" y="154"/>
      <point x="389" y="139" type="curve"/>
      <point x="367" y="135"/>
      <point x="331" y="129"/>
      <point x="314" y="137" type="curve"/>
      <point x="263" y="163"/>
      <point x="255" y="183"/>
      <point x="255" y="274" type="curve"/>
    </contour>
    <contour>
      <point x="257" y="22" type="curve"/>
      <point x="257" y="22" type="line"/>
      <point x="314" y="137" type="line"/>
      <point x="263" y="163"/>
      <point x="255" y="183"/>
      <point x="255" y="274" type="curve"/>
      <point x="255" y="1208" type="line"/>
      <point x="125" y="1208" type="line"/>
      <point x="125" y="274" type="line"/>
      <point x="125" y="171"/>
      <point x="135" y="82"/>
    </contour>
    <contour>
      <point x="411" y="12" type="line"/>
      <point x="411" y="12" type="line"/>
      <point x="535" y="34"/>
      <point x="613" y="114"/>
      <point x="651" y="152" type="curve"/>
      <point x="753" y="256"/>
      <point x="790" y="373"/>
      <point x="810" y="434" type="curve"/>
      <point x="811" y="437"/>
      <point x="831" y="498"/>
      <point x="836" y="571" type="curve"/>
      <point x="837" y="586"/>
      <point x="838" y="607"/>
      <point x="834" y="632" type="curve"/>
      <point x="830" y="653"/>
      <point x="822" y="685"/>
      <point x="803" y="714" type="curve"/>
      <point x="781" y="749"/>
      <point x="750" y="773"/>
      <point x="693" y="797" type="curve"/>
      <point x="637" y="821"/>
      <point x="590" y="830"/>
      <point x="574" y="833" type="curve"/>
      <point x="569" y="834"/>
      <point x="450" y="857"/>
      <point x="362" y="924" type="curve"/>
      <point x="284" y="821" type="line"/>
      <point x="394" y="738"/>
      <point x="534" y="709"/>
      <point x="551" y="706" type="curve"/>
      <point x="563" y="704"/>
      <point x="599" y="697"/>
      <point x="643" y="678" type="curve"/>
      <point x="685" y="661"/>
      <point x="691" y="650"/>
      <point x="694" y="646" type="curve"/>
      <point x="699" y="637"/>
      <point x="704" y="624"/>
      <point x="706" y="610" type="curve"/>
      <point x="708" y="599"/>
      <point x="708" y="590"/>
      <point x="707" y="580" type="curve"/>
      <point x="703" y="524"/>
      <point x="688" y="476"/>
      <point x="687" y="475" type="curve"/>
      <point x="669" y="419"/>
      <point x="640" y="325"/>
      <point x="559" y="243" type="curve"/>
      <point x="528" y="212"/>
      <point x="472" y="154"/>
      <point x="389" y="139" type="curve"/>
    </contour>
    <contour>
      <point x="898" y="1276" type="line"/>
      <point x="898" y="1276" type="line"/>
      <point x="898" y="1405" type="line"/>
      <point x="-25" y="1405" type="line"/>
      <point x="-25" y="1276" type="line"/>
    </contour>
  </outline>
</glyph>
<glyph name="cha-bng2" format="2">
  <advance width="953"/>
  <unicode hex="099B"/>
  <anchor x="630" y="115" name="Anchor_1"/>
  <anchor x="640" y="0" name="Anchor_3"/>
  <anchor x="385" y="1463" name="Anchor_up"/>
  <outline>
    <contour>
      <point x="922" y="-25" type="curve"/>
      <point x="922" y="-25" type="line"/>
      <point x="994" y="82" type="line"/>
      <point x="679" y="294"/>
      <point x="374" y="482"/>
      <point x="103" y="455" type="curve"/>
      <point x="116" y="327" type="line"/>
      <point x="344" y="349"/>
      <point x="639" y="165"/>
    </contour>
    <contour>
      <point x="161" y="329" type="line"/>
      <point x="161" y="329" type="line"/>
      <point x="455" y="340"/>
      <point x="686" y="445"/>
      <point x="794" y="618" type="curve"/>
      <point x="861" y="725"/>
      <point x="872" y="848"/>
      <point x="824" y="955" type="curve"/>
      <point x="822" y="959" type="line"/>
      <point x="786" y="1025"/>
      <point x="695" y="1128"/>
      <point x="486" y="1083" type="curve"/>
      <point x="513" y="957" type="line"/>
      <point x="654" y="987"/>
      <point x="694" y="924"/>
      <point x="707" y="900" type="curve"/>
      <point x="736" y="832"/>
      <point x="728" y="757"/>
      <point x="684" y="687" type="curve"/>
      <point x="599" y="550"/>
      <point x="407" y="467"/>
      <point x="157" y="458" type="curve"/>
    </contour>
    <contour>
      <point x="243" y="615" type="curve"/>
      <point x="243" y="615" type="line"/>
      <point x="262" y="615"/>
      <point x="279" y="617"/>
      <point x="292" y="619" type="curve"/>
      <point x="377" y="632"/>
      <point x="432" y="679"/>
      <point x="456" y="698" type="curve"/>
      <point x="528" y="759"/>
      <point x="553" y="826"/>
      <point x="567" y="861" type="curve"/>
      <point x="569" y="868"/>
      <point x="583" y="902"/>
      <point x="586" y="944" type="curve"/>
      <point x="587" y="953"/>
      <point x="588" y="968"/>
      <point x="584" y="986" type="curve"/>
      <point x="581" y="1001"/>
      <point x="574" y="1023"/>
      <point x="558" y="1044" type="curve"/>
      <point x="541" y="1067"/>
      <point x="517" y="1082"/>
      <point x="477" y="1097" type="curve"/>
      <point x="439" y="1110"/>
      <point x="408" y="1115"/>
      <point x="397" y="1117" type="curve"/>
      <point x="394" y="1117"/>
      <point x="320" y="1129"/>
      <point x="267" y="1162" type="curve"/>
      <point x="250" y="1173"/>
      <point x="228" y="1190"/>
      <point x="212" y="1207" type="curve"/>
      <point x="212" y="1336" type="line"/>
      <point x="83" y="1336" type="line"/>
      <point x="83" y="789" type="line"/>
      <point x="83" y="730"/>
      <point x="90" y="664"/>
      <point x="185" y="625" type="curve"/>
      <point x="204" y="617"/>
      <point x="225" y="615"/>
    </contour>
    <contour>
      <point x="212" y="1045" type="line"/>
      <point x="212" y="1045" type="line"/>
      <point x="281" y="1006"/>
      <point x="360" y="992"/>
      <point x="377" y="989" type="curve"/>
      <point x="385" y="988"/>
      <point x="407" y="984"/>
      <point x="434" y="975" type="curve"/>
      <point x="449" y="969"/>
      <point x="455" y="966"/>
      <point x="456" y="966" type="curve"/>
      <point x="456" y="965"/>
      <point x="457" y="963"/>
      <point x="457" y="961" type="curve"/>
      <point x="458" y="959"/>
      <point x="458" y="958"/>
      <point x="457" y="955" type="curve"/>
      <point x="455" y="931"/>
      <point x="447" y="910"/>
      <point x="447" y="908" type="curve"/>
      <point x="436" y="880"/>
      <point x="419" y="836"/>
      <point x="373" y="797" type="curve"/>
      <point x="354" y="781"/>
      <point x="322" y="754"/>
      <point x="273" y="747" type="curve"/>
      <point x="264" y="746"/>
      <point x="240" y="742"/>
      <point x="233" y="745" type="curve"/>
      <point x="212" y="754"/>
      <point x="212" y="754"/>
      <point x="212" y="789" type="curve"/>
    </contour>
    <contour>
      <point x="990" y="1276" type="line"/>
      <point x="990" y="1276" type="line"/>
      <point x="990" y="1405" type="line"/>
      <point x="-29" y="1405" type="line"/>
      <point x="-29" y="1276" type="line"/>
    </contour>
  </outline>
</glyph>
<glyph name="ja-bng2" format="2">
  <advance width="1456"/>
  <unicode hex="099C"/>
  <anchor x="1390" y="95" name="Anchor_1"/>
  <anchor x="640" y="0" name="Anchor_3"/>
  <anchor x="708" y="1463" name="Anchor_up"/>
  <outline>
    <contour>
      <point x="1503" y="1276" type="line"/>
      <point x="1503" y="1276" type="line"/>
      <point x="1503" y="1405" type="line"/>
      <point x="-29" y="1405" type="line"/>
      <point x="-29" y="1276" type="line"/>
    </contour>
    <contour>
      <point x="644" y="199" type="curve"/>
      <point x="644" y="199" type="line"/>
      <point x="695" y="199"/>
      <point x="735" y="208"/>
      <point x="755" y="214" type="curve"/>
      <point x="872" y="247"/>
      <point x="960" y="319"/>
      <point x="1004" y="418" type="curve"/>
      <point x="1009" y="431"/>
      <point x="1058" y="550"/>
      <point x="1010" y="678" type="curve"/>
      <point x="997" y="712"/>
      <point x="958" y="815"/>
      <point x="862" y="833" type="curve"/>
      <point x="844" y="837"/>
      <point x="825" y="837"/>
      <point x="806" y="833" type="curve"/>
      <point x="790" y="831" type="line"/>
      <point x="778" y="820" type="line"/>
      <point x="698" y="757"/>
      <point x="596" y="739"/>
      <point x="542" y="778" type="curve"/>
      <point x="499" y="810"/>
      <point x="489" y="875"/>
      <point x="485" y="903" type="curve"/>
      <point x="477" y="958"/>
      <point x="487" y="1012"/>
      <point x="515" y="1066" type="curve"/>
      <point x="561" y="1156"/>
      <point x="644" y="1196"/>
      <point x="678" y="1209" type="curve"/>
      <point x="632" y="1329" type="line"/>
      <point x="573" y="1307"/>
      <point x="465" y="1250"/>
      <point x="400" y="1126" type="curve"/>
      <point x="360" y="1047"/>
      <point x="345" y="966"/>
      <point x="357" y="885" type="curve"/>
      <point x="363" y="844"/>
      <point x="379" y="737"/>
      <point x="466" y="674" type="curve"/>
      <point x="564" y="602"/>
      <point x="715" y="616"/>
      <point x="840" y="706" type="curve"/>
      <point x="849" y="703"/>
      <point x="868" y="689"/>
      <point x="889" y="633" type="curve"/>
      <point x="920" y="551"/>
      <point x="886" y="470"/>
      <point x="885" y="470" type="curve"/>
      <point x="848" y="385"/>
      <point x="766" y="351"/>
      <point x="720" y="338" type="curve"/>
      <point x="699" y="332"/>
      <point x="643" y="320"/>
      <point x="575" y="336" type="curve"/>
      <point x="351" y="390"/>
      <point x="192" y="712"/>
      <point x="168" y="992" type="curve"/>
      <point x="165" y="1021"/>
      <point x="164" y="1050"/>
      <point x="164" y="1078" type="curve"/>
      <point x="35" y="1080" type="line"/>
      <point x="35" y="1047"/>
      <point x="36" y="1014"/>
      <point x="39" y="981" type="curve"/>
      <point x="67" y="659"/>
      <point x="254" y="280"/>
      <point x="545" y="211" type="curve"/>
      <point x="580" y="202"/>
      <point x="614" y="199"/>
    </contour>
    <contour>
      <point x="1229" y="3" type="curve"/>
      <point x="1229" y="3" type="line"/>
      <point x="1351" y="43" type="line"/>
      <point x="1310" y="169"/>
      <point x="1288" y="299"/>
      <point x="1286" y="430" type="curve"/>
      <point x="1284" y="604"/>
      <point x="1316" y="775"/>
      <point x="1382" y="938" type="curve"/>
      <point x="1397" y="978" type="line"/>
      <point x="1305" y="1071" type="line"/>
      <point x="1272" y="1065" type="line"/>
      <point x="1223" y="1057"/>
      <point x="972" y="1023"/>
      <point x="817" y="1180" type="curve"/>
      <point x="782" y="1216"/>
      <point x="730" y="1288"/>
      <point x="713" y="1323" type="curve"/>
      <point x="596" y="1269" type="line"/>
      <point x="621" y="1215"/>
      <point x="684" y="1131"/>
      <point x="725" y="1089" type="curve"/>
      <point x="889" y="923"/>
      <point x="1122" y="919"/>
      <point x="1241" y="931" type="curve"/>
      <point x="1183" y="769"/>
      <point x="1155" y="600"/>
      <point x="1157" y="428" type="curve"/>
      <point x="1159" y="284"/>
      <point x="1183" y="141"/>
    </contour>
  </outline>
</glyph>
<glyph name="jha-bng2" format="2">
  <advance width="1383"/>
  <unicode hex="099D"/>
  <anchor x="918" y="15" name="Anchor_1"/>
  <anchor x="640" y="0" name="Anchor_3"/>
  <anchor x="1008" y="1463" name="Anchor_up"/>
  <outline>
    <contour>
      <point x="1091" y="285" type="curve"/>
      <point x="1091" y="285" type="line"/>
      <point x="1215" y="322" type="line"/>
      <point x="1189" y="409"/>
      <point x="1133" y="536"/>
      <point x="1014" y="645" type="curve"/>
      <point x="957" y="697"/>
      <point x="891" y="740"/>
      <point x="818" y="772" type="curve"/>
      <point x="767" y="654" type="line"/>
      <point x="826" y="628"/>
      <point x="880" y="593"/>
      <point x="927" y="549" type="curve"/>
      <point x="1024" y="461"/>
      <point x="1070" y="356"/>
    </contour>
    <contour>
      <point x="862" y="0" type="line"/>
      <point x="862" y="0" type="line"/>
      <point x="862" y="1373" type="line"/>
      <point x="732" y="1373" type="line"/>
      <point x="732" y="0" type="line"/>
    </contour>
    <contour>
      <point x="733" y="183" type="curve"/>
      <point x="733" y="183" type="line"/>
      <point x="844" y="251" type="line"/>
      <point x="762" y="384"/>
      <point x="649" y="501"/>
      <point x="517" y="589" type="curve"/>
      <point x="424" y="651"/>
      <point x="323" y="699"/>
      <point x="215" y="732" type="curve"/>
      <point x="298" y="814"/>
      <point x="391" y="882"/>
      <point x="491" y="935" type="curve"/>
      <point x="549" y="965"/>
      <point x="645" y="1016"/>
      <point x="785" y="1038" type="curve"/>
      <point x="799" y="1040"/>
      <point x="811" y="1042"/>
      <point x="819" y="1043" type="curve"/>
      <point x="803" y="1171" type="line"/>
      <point x="794" y="1170"/>
      <point x="781" y="1168"/>
      <point x="765" y="1166" type="curve"/>
      <point x="604" y="1141"/>
      <point x="491" y="1081"/>
      <point x="431" y="1049" type="curve"/>
      <point x="297" y="978"/>
      <point x="176" y="884"/>
      <point x="70" y="768" type="curve"/>
      <point x="40" y="735" type="line"/>
      <point x="92" y="632" type="line"/>
      <point x="121" y="624" type="line"/>
      <point x="238" y="595"/>
      <point x="347" y="547"/>
      <point x="446" y="482" type="curve"/>
      <point x="562" y="404"/>
      <point x="662" y="301"/>
    </contour>
    <contour>
      <point x="1221" y="203" type="line"/>
      <point x="1221" y="203" type="line"/>
      <point x="1221" y="1510" type="line"/>
      <point x="1092" y="1510" type="line"/>
      <point x="1092" y="203" type="line"/>
    </contour>
    <contour>
      <point x="1416" y="1276" type="line"/>
      <point x="1416" y="1276" type="line"/>
      <point x="1416" y="1405" type="line"/>
      <point x="1147" y="1405" type="line"/>
      <point x="1147" y="1276" type="line"/>
    </contour>
    <contour>
      <point x="861" y="1276" type="line"/>
      <point x="861" y="1276" type="line"/>
      <point x="861" y="1405" type="line"/>
      <point x="-21" y="1405" type="line"/>
      <point x="-21" y="1276" type="line"/>
    </contour>
  </outline>
</glyph>
<glyph name="nya-bng2" format="2">
  <advance width="1725"/>
  <unicode hex="099E"/>
  <anchor x="1205" y="15" name="Anchor_1"/>
  <anchor x="640" y="0" name="Anchor_3"/>
  <anchor x="946" y="1463" name="Anchor_up"/>
  <outline>
    <contour>
      <point x="1338" y="672" type="curve"/>
      <point x="1338" y="672" type="line"/>
      <point x="1432" y="672"/>
      <point x="1557" y="727"/>
      <point x="1602" y="819" type="curve"/>
      <point x="1655" y="925"/>
      <point x="1620" y="1040"/>
      <point x="1563" y="1107" type="curve"/>
      <point x="1455" y="1232"/>
      <point x="1250" y="1210"/>
      <point x="1134" y="1113" type="curve"/>
      <point x="1047" y="1040"/>
      <point x="1022" y="939"/>
      <point x="1015" y="885" type="curve"/>
      <point x="1143" y="868" type="line"/>
      <point x="1148" y="903"/>
      <point x="1163" y="969"/>
      <point x="1217" y="1014" type="curve"/>
      <point x="1286" y="1071"/>
      <point x="1409" y="1088"/>
      <point x="1465" y="1022" type="curve"/>
      <point x="1489" y="995"/>
      <point x="1514" y="933"/>
      <point x="1487" y="876" type="curve"/>
      <point x="1467" y="837"/>
      <point x="1389" y="799"/>
      <point x="1332" y="802" type="curve"/>
      <point x="1326" y="673" type="line"/>
      <point x="1330" y="673"/>
      <point x="1334" y="672"/>
    </contour>
    <contour>
      <point x="1373" y="298" type="curve"/>
      <point x="1373" y="298" type="line"/>
      <point x="1377" y="298"/>
      <point x="1382" y="298"/>
      <point x="1387" y="298" type="curve"/>
      <point x="1494" y="303"/>
      <point x="1629" y="367"/>
      <point x="1670" y="497" type="curve"/>
      <point x="1696" y="578"/>
      <point x="1687" y="699"/>
      <point x="1606" y="774" type="curve"/>
      <point x="1576" y="802"/>
      <point x="1537" y="821"/>
      <point x="1495" y="830" type="curve"/>
      <point x="1469" y="704" type="line"/>
      <point x="1488" y="700"/>
      <point x="1505" y="692"/>
      <point x="1518" y="680" type="curve"/>
      <point x="1556" y="645"/>
      <point x="1561" y="579"/>
      <point x="1547" y="536" type="curve"/>
      <point x="1523" y="460"/>
      <point x="1435" y="429"/>
      <point x="1381" y="427" type="curve"/>
      <point x="1282" y="423"/>
      <point x="1183" y="505"/>
      <point x="1139" y="629" type="curve"/>
      <point x="1017" y="585" type="line"/>
      <point x="1079" y="411"/>
      <point x="1221" y="298"/>
    </contour>
    <contour>
      <point x="1143" y="0" type="line"/>
      <point x="1143" y="0" type="line"/>
      <point x="1143" y="1215" type="line"/>
      <point x="1143" y="1221" type="line"/>
      <point x="1137" y="1282"/>
      <point x="1082" y="1398"/>
      <point x="916" y="1398" type="curve"/>
      <point x="916" y="1398"/>
      <point x="916" y="1398"/>
      <point x="916" y="1398" type="curve"/>
      <point x="710" y="1386"/>
      <point x="574" y="1166"/>
      <point x="572" y="1163" type="curve"/>
      <point x="487" y="1024"/>
      <point x="466" y="901"/>
      <point x="508" y="799" type="curve"/>
      <point x="540" y="726"/>
      <point x="587" y="679"/>
      <point x="649" y="661" type="curve"/>
      <point x="719" y="641"/>
      <point x="779" y="667"/>
      <point x="809" y="684" type="curve"/>
      <point x="745" y="796" type="line"/>
      <point x="735" y="790"/>
      <point x="710" y="778"/>
      <point x="685" y="785" type="curve"/>
      <point x="650" y="795"/>
      <point x="633" y="836"/>
      <point x="627" y="850" type="curve"/>
      <point x="602" y="911"/>
      <point x="620" y="994"/>
      <point x="683" y="1096" type="curve"/>
      <point x="704" y="1131"/>
      <point x="807" y="1262"/>
      <point x="920" y="1268" type="curve"/>
      <point x="994" y="1268"/>
      <point x="1011" y="1228"/>
      <point x="1014" y="1210" type="curve"/>
      <point x="1014" y="0" type="line"/>
    </contour>
    <contour>
      <point x="1027" y="87" type="curve"/>
      <point x="1027" y="87" type="line"/>
      <point x="1130" y="165" type="line"/>
      <point x="994" y="345"/>
      <point x="902" y="420"/>
      <point x="684" y="414" type="curve"/>
      <point x="677" y="414"/>
      <point x="661" y="412"/>
      <point x="639" y="409" type="curve"/>
      <point x="574" y="401"/>
      <point x="373" y="375"/>
      <point x="304" y="418" type="curve"/>
      <point x="228" y="461"/>
      <point x="203" y="556"/>
      <point x="195" y="609" type="curve"/>
      <point x="176" y="737"/>
      <point x="211" y="878"/>
      <point x="281" y="953" type="curve"/>
      <point x="186" y="1041" type="line"/>
      <point x="90" y="938"/>
      <point x="42" y="756"/>
      <point x="68" y="590" type="curve"/>
      <point x="88" y="458"/>
      <point x="149" y="357"/>
      <point x="238" y="307" type="curve"/>
      <point x="331" y="248"/>
      <point x="502" y="261"/>
      <point x="656" y="281" type="curve"/>
      <point x="671" y="283"/>
      <point x="682" y="285"/>
      <point x="687" y="285" type="curve"/>
      <point x="851" y="289"/>
      <point x="907" y="247"/>
    </contour>
  </outline>
</glyph>
<glyph name="tta-bng2" format="2">
  <advance width="1031"/>
  <unicode hex="099F"/>
  <anchor x="654" y="39" name="Anchor_1"/>
  <anchor x="708" y="1463" name="Anchor_up"/>
  <anchor x="789" y="1574" name="Anchor_Up_ex"/>
  <outline>
    <contour>
      <point x="374" y="104" type="curve"/>
      <point x="374" y="104" type="line"/>
      <point x="477" y="104"/>
      <point x="590" y="170"/>
      <point x="669" y="239" type="curve"/>
      <point x="813" y="365"/>
      <point x="885" y="490"/>
      <point x="902" y="644" type="curve"/>
      <point x="907" y="689"/>
      <point x="905" y="728"/>
      <point x="894" y="765" type="curve"/>
      <point x="883" y="805"/>
      <point x="863" y="839"/>
      <point x="836" y="867" type="curve"/>
      <point x="818" y="885"/>
      <point x="768" y="927"/>
      <point x="693" y="932" type="curve"/>
      <point x="587" y="939"/>
      <point x="509" y="863"/>
      <point x="480" y="817" type="curve"/>
      <point x="589" y="747" type="line"/>
      <point x="589" y="748"/>
      <point x="629" y="807"/>
      <point x="685" y="803" type="curve"/>
      <point x="717" y="801"/>
      <point x="740" y="780"/>
      <point x="744" y="776" type="curve"/>
      <point x="756" y="764"/>
      <point x="764" y="748"/>
      <point x="770" y="729" type="curve"/>
      <point x="776" y="709"/>
      <point x="777" y="686"/>
      <point x="774" y="659" type="curve"/>
      <point x="760" y="537"/>
      <point x="703" y="441"/>
      <point x="584" y="336" type="curve"/>
      <point x="502" y="264"/>
      <point x="405" y="222"/>
      <point x="352" y="236" type="curve"/>
      <point x="346" y="238"/>
      <point x="335" y="241"/>
      <point x="324" y="249" type="curve"/>
      <point x="299" y="271"/>
      <point x="290" y="313"/>
      <point x="288" y="345" type="curve"/>
      <point x="288" y="1357" type="line"/>
      <point x="158" y="1357" type="line"/>
      <point x="158" y="343" type="line"/>
      <point x="159" y="338" type="line"/>
      <point x="164" y="256"/>
      <point x="193" y="191"/>
      <point x="242" y="150" type="curve"/>
      <point x="274" y="123"/>
      <point x="307" y="115"/>
      <point x="319" y="111" type="curve"/>
      <point x="337" y="106"/>
      <point x="355" y="104"/>
    </contour>
    <contour>
      <point x="1041" y="1276" type="line"/>
      <point x="1041" y="1276" type="line"/>
      <point x="1041" y="1405" type="line"/>
      <point x="-14" y="1405" type="line"/>
      <point x="-14" y="1276" type="line"/>
    </contour>
    <contour>
      <point x="899" y="1319" type="line"/>
      <point x="899" y="1319" type="line"/>
      <point x="922" y="1372"/>
      <point x="966" y="1507"/>
      <point x="893" y="1619" type="curve"/>
      <point x="877" y="1644"/>
      <point x="857" y="1665"/>
      <point x="830" y="1683" type="curve"/>
      <point x="714" y="1762"/>
      <point x="546" y="1745"/>
      <point x="399" y="1730" type="curve"/>
      <point x="321" y="1722"/>
      <point x="247" y="1715"/>
      <point x="192" y="1722" type="curve"/>
      <point x="186" y="1722"/>
      <point x="173" y="1724"/>
      <point x="161" y="1733" type="curve"/>
      <point x="134" y="1752"/>
      <point x="126" y="1788"/>
      <point x="122" y="1813" type="curve"/>
      <point x="116" y="1854"/>
      <point x="128" y="1889"/>
      <point x="139" y="1911" type="curve"/>
      <point x="23" y="1968" type="line"/>
      <point x="4" y="1929"/>
      <point x="-17" y="1868"/>
      <point x="-6" y="1794" type="curve"/>
      <point x="6" y="1719"/>
      <point x="37" y="1663"/>
      <point x="87" y="1627" type="curve"/>
      <point x="125" y="1600"/>
      <point x="163" y="1595"/>
      <point x="175" y="1594" type="curve"/>
      <point x="245" y="1585"/>
      <point x="326" y="1593"/>
      <point x="412" y="1602" type="curve"/>
      <point x="544" y="1615"/>
      <point x="680" y="1629"/>
      <point x="757" y="1576" type="curve"/>
      <point x="769" y="1568"/>
      <point x="778" y="1559"/>
      <point x="785" y="1549" type="curve"/>
      <point x="825" y="1487"/>
      <point x="792" y="1396"/>
      <point x="781" y="1370" type="curve"/>
    </contour>
  </outline>
</glyph>
<glyph name="dda-bng2" format="2">
  <advance width="1225"/>
  <unicode hex="09A1"/>
  <anchor x="889" y="-34" name="Anchor_1"/>
  <anchor x="960" y="56" name="Anchor_3"/>
  <anchor x="708" y="1463" name="Anchor_up"/>
  <outline>
    <contour>
      <point x="701" y="78" type="curve"/>
      <point x="701" y="78" type="line"/>
      <point x="878" y="78"/>
      <point x="1018" y="160"/>
      <point x="1092" y="311" type="curve"/>
      <point x="1182" y="490"/>
      <point x="1164" y="756"/>
      <point x="1053" y="902" type="curve"/>
      <point x="1028" y="935" type="line"/>
      <point x="931" y="914" type="line"/>
      <point x="920" y="879" type="line"/>
      <point x="919" y="877"/>
      <point x="872" y="743"/>
      <point x="770" y="714" type="curve"/>
      <point x="751" y="709"/>
      <point x="715" y="699"/>
      <point x="680" y="719" type="curve"/>
      <point x="671" y="724"/>
      <point x="662" y="731"/>
      <point x="655" y="740" type="curve"/>
      <point x="635" y="762"/>
      <point x="623" y="796"/>
      <point x="623" y="833" type="curve"/>
      <point x="623" y="1317" type="line"/>
      <point x="494" y="1317" type="line"/>
      <point x="494" y="833" type="line"/>
      <point x="494" y="763"/>
      <point x="517" y="699"/>
      <point x="559" y="653" type="curve"/>
      <point x="576" y="634"/>
      <point x="595" y="619"/>
      <point x="616" y="607" type="curve"/>
      <point x="698" y="560"/>
      <point x="778" y="582"/>
      <point x="805" y="590" type="curve"/>
      <point x="896" y="615"/>
      <point x="956" y="682"/>
      <point x="994" y="740" type="curve"/>
      <point x="1031" y="633"/>
      <point x="1035" y="485"/>
      <point x="977" y="368" type="curve"/>
      <point x="923" y="261"/>
      <point x="831" y="207"/>
      <point x="701" y="207" type="curve"/>
      <point x="322" y="207"/>
      <point x="220" y="671"/>
      <point x="200" y="1060" type="curve"/>
      <point x="199" y="1081" type="line"/>
      <point x="70" y="1073" type="line"/>
      <point x="71" y="1054" type="line"/>
      <point x="112" y="247"/>
      <point x="436" y="78"/>
    </contour>
    <contour>
      <point x="1269" y="1276" type="line"/>
      <point x="1269" y="1276" type="line"/>
      <point x="1269" y="1405" type="line"/>
      <point x="-26" y="1405" type="line"/>
      <point x="-26" y="1276" type="line"/>
    </contour>
  </outline>
</glyph>
